<?xml version="1.0" encoding="utf-8" ?>
<svg baseProfile="full" height="599" version="1.1" width="599" xmlns="http://www.w3.org/2000/svg" xmlns:ev="http://www.w3.org/2001/xml-events" xmlns:xlink="http://www.w3.org/1999/xlink"><defs /><path d="M 183 589 C 181.76148474018646 592.0498464798668, 185.63487380323093 596.6980526797971, 189 598" fill="none" stroke="black" stroke-width="1" /><path d="M 189 598 C 187.28731973458136 592.4529209803042, 184.36534132984443 591.9252302802, 183 589" fill="none" stroke="black" stroke-width="1" /><path d="M 264 587 C 251.35531904020803 588.9297638152603, 248.28701123225932 590.2254371481599, 238 597" fill="none" stroke="black" stroke-width="1" /><path d="M 238 597 C 246.2972482940007 597.3697522728011, 256.02823740486593 586.3672282992442, 265 590" fill="none" stroke="black" stroke-width="1" /><path d="M 265 590 C 260.25531296049286 591.8588418675213, 256.563028383827 596.4487800139161, 253 597" fill="none" stroke="black" stroke-width="1" /><path d="M 253 597 C 262.3498435253663 597.4900806351692, 266.92841930769106 588.9696514136039, 275 591" fill="none" stroke="black" stroke-width="1" /><path d="M 275 591 C 272.95210727969345 592.989724834552, 266.04789272030655 596.010275165448, 264 597" fill="none" stroke="black" stroke-width="1" /><path d="M 264 597 C 268.78815693448183 599.3407381000394, 273.7726668203075 593.4758327811868, 274 598" fill="none" stroke="black" stroke-width="1" /><path d="M 274 598 C 274.5427350427347 596.8376068376062, 272.93162393162413 593.5598290598293, 276 594" fill="none" stroke="black" stroke-width="1" /><path d="M 276 594 C 282.1542282784765 592.0373896542085, 285.91268393760697 598.4552438632869, 293 598" fill="none" stroke="black" stroke-width="1" /><path d="M 293 598 C 284.3573067288513 592.7893953519836, 276.0534237406067 587.3602224070286, 264 587" fill="none" stroke="black" stroke-width="1" /><path d="M 433 581 C 429.22317444712246 588.1837281755181, 426.2193283185198 592.1812866058241, 424 597" fill="none" stroke="black" stroke-width="1" /><path d="M 424 597 C 429.4778678570294 594.7099881776345, 432.2120641491964 585.59561516471, 433 581" fill="none" stroke="black" stroke-width="1" /><path d="M 177 580 C 175.1666666666667 579.1666666666669, 176.33333333333326 581.3333333333331, 176 582" fill="none" stroke="black" stroke-width="1" /><path d="M 176 582 C 186.19129415655428 587.0602848853049, 198.59996068143315 591.4983147372521, 206 598" fill="none" stroke="black" stroke-width="1" /><path d="M 206 598 C 203.69036271433598 590.4568453124547, 188.36745215199787 584.9359657784869, 179 581" fill="none" stroke="black" stroke-width="1" /><path d="M 39 558 C 35.04801113367719 572.3289853594281, 34.92128562188591 581.9600554649872, 35 597" fill="none" stroke="black" stroke-width="1" /><path d="M 35 597 C 39.10639903684655 587.5315067408145, 36.8023854037879 573.0103362097317, 40 560" fill="none" stroke="black" stroke-width="1" /><path d="M 482 541 C 471.23355772621187 551.7687498690185, 453.2475677168369 560.0849642307293, 434 570" fill="none" stroke="black" stroke-width="1" /><path d="M 434 570 C 450.9801678357327 565.4310333311344, 468.63130255320164 556.4387168803989, 482 541" fill="none" stroke="black" stroke-width="1" /><path d="M 527 528 C 526.0993735483713 551.4004140967995, 524.2328344657003 574.3626710653404, 525 597" fill="none" stroke="black" stroke-width="1" /><path d="M 525 597 C 526.1372549019608 597.8039215686276, 526.8039215686274 597.1372549019607, 527 596" fill="none" stroke="black" stroke-width="1" /><path d="M 527 596 C 529.0470085470081 594.0555555555552, 526.9914529914533 598.9444444444447, 530 598" fill="none" stroke="black" stroke-width="1" /><path d="M 530 598 C 524.2436143325967 576.9516684205353, 528.7862743826621 553.5374327895443, 529 529" fill="none" stroke="black" stroke-width="1" /><path d="M 504 450 C 502.2653932059872 451.8682534920158, 501.83441677501077 452.8817215054839, 502 457" fill="none" stroke="black" stroke-width="1" /><path d="M 502 457 C 503.6562085257737 455.3333333333333, 503.08616021659503 452.66666666666663, 504 450" fill="none" stroke="black" stroke-width="1" /><path d="M 57 326 C 51.86754207167473 343.76763824850167, 42.99413452860394 365.74338760223327, 35 388" fill="none" stroke="black" stroke-width="1" /><path d="M 35 388 C 22.087800572283154 419.5504343657609, 4.42636949496132 454.96302681283845, 0 487" fill="none" stroke="black" stroke-width="1" /><path d="M 0 487 C 2.7439692517559693 476.4599783923141, 7.204145843071768 464.8809145936629, 12 450" fill="none" stroke="black" stroke-width="1" /><path d="M 12 450 C 29.43780010634417 407.4004572953553, 46.289585250872385 367.7788052836304, 59 327" fill="none" stroke="black" stroke-width="1" /><path d="M 586 276 C 584.153846153846 279.0683760683758, 589.4871794871794 277.45726495726507, 587 277" fill="none" stroke="black" stroke-width="1" /><path d="M 543 254 C 537.0605242052627 297.9018191525339, 539.4012574214228 353.3783710908579, 524 393" fill="none" stroke="black" stroke-width="1" /><path d="M 524 393 C 512.1713696004757 424.3045760541991, 504.8479993383301 454.1561080168292, 497 490" fill="none" stroke="black" stroke-width="1" /><path d="M 497 490 C 506.92664617241786 457.49902349893335, 516.3371025970727 420.47233935749273, 526 392" fill="none" stroke="black" stroke-width="1" /><path d="M 526 392 C 537.4776875041573 345.6955159906897, 549.5203226582308 307.7378414221208, 549 257" fill="none" stroke="black" stroke-width="1" /><path d="M 549 257 C 545.6783490371795 275.71577672358734, 544.4143481119004 300.5518472533362, 542 318" fill="none" stroke="black" stroke-width="1" /><path d="M 542 318 C 538.5906020474039 296.2558283625073, 542.3728112036148 275.3738911948176, 543 254" fill="none" stroke="black" stroke-width="1" /><path d="M 98 211 C 90.60106475560609 235.066859096138, 90.37470264156924 271.91100291620063, 105 291" fill="none" stroke="black" stroke-width="1" /><path d="M 105 291 C 91.60682190172646 264.7857749865289, 94.38003795674898 237.41894777970364, 98 211" fill="none" stroke="black" stroke-width="1" /><path d="M 172 137 C 162.57435604699538 153.8755501085573, 160.47939381901705 173.01196582107835, 153 193" fill="none" stroke="black" stroke-width="1" /><path d="M 153 193 C 151.3143500057401 213.36556281171957, 139.8699191828328 234.7356114665577, 144 256" fill="none" stroke="black" stroke-width="1" /><path d="M 144 256 C 145.36124779130688 238.06469278624712, 150.4499301509487 218.4677790608925, 153 200" fill="none" stroke="black" stroke-width="1" /><path d="M 153 200 C 161.78749678895625 178.2381829788412, 163.1461793788532 158.94107947055215, 174 138" fill="none" stroke="black" stroke-width="1" /><path d="M 266 42 C 246.3043949129191 46.711057031656786, 234.77445453603704 55.24967539526781, 224 62" fill="none" stroke="black" stroke-width="1" /><path d="M 224 62 C 207.0624684711289 78.1421695192408, 188.963106267076 100.61364315268145, 176 125" fill="none" stroke="black" stroke-width="1" /><path d="M 176 125 C 190.85737160363362 108.38747691096493, 202.03090844502267 82.78596477680397, 226 64" fill="none" stroke="black" stroke-width="1" /><path d="M 226 64 C 244.6637683575512 52.14638122495339, 258.94871019196256 41.043038846346, 278 45" fill="none" stroke="black" stroke-width="1" /><path d="M 278 45 C 277.2878141208242 42.16314958664676, 270.5803906832213 41.63678720222806, 266 42" fill="none" stroke="black" stroke-width="1" /><path d="M 284 7 C 261.3864939516077 9.726501502942492, 247.34491652616916 18.149201856934006, 227 21" fill="none" stroke="black" stroke-width="1" /><path d="M 227 21 C 212.58285552347294 28.09537631716587, 204.96386798161603 32.211036164265906, 194 40" fill="none" stroke="black" stroke-width="1" /><path d="M 195 41 C 194.16666666666666 42.16666666666669, 190.8333333333333 39.83333333333331, 192 42" fill="none" stroke="black" stroke-width="1" /><path d="M 192 42 C 193.33333333333334 40.993464052287585, 194.66666666666666 42.43790849673202, 196 42" fill="none" stroke="black" stroke-width="1" /><path d="M 195 41 C 178.38593474984629 51.57862158828689, 165.33085191176795 59.62973384937889, 155 70" fill="none" stroke="black" stroke-width="1" /><path d="M 155 70 C 147.21444999068493 71.11888334264845, 143.05127327975532 67.6153933869113, 134 69" fill="none" stroke="black" stroke-width="1" /><path d="M 134 69 C 126.68435140297849 76.53310314017871, 107.43975697741206 75.24159574018583, 99 85" fill="none" stroke="black" stroke-width="1" /><path d="M 99 85 C 97.94875295990911 91.00604275147882, 97.30054675997884 93.74045584796096, 101 98" fill="none" stroke="black" stroke-width="1" /><path d="M 101 98 C 87.40738213383187 118.10195746492577, 77.78077217223154 133.05673545139854, 74 155" fill="none" stroke="black" stroke-width="1" /><path d="M 74 155 C 71.0153695186374 169.88410207760597, 67.72835553077132 187.52517200094584, 70 206" fill="none" stroke="black" stroke-width="1" /><path d="M 70 206 C 63.82078278811661 213.10234815438017, 56.82869125328142 215.2186562568855, 50 222" fill="none" stroke="black" stroke-width="1" /><path d="M 50 222 C 52.9941917363328 223.90820581373364, 61.86893839704074 214.73301187897977, 68 212" fill="none" stroke="black" stroke-width="1" /><path d="M 68 212 C 64.40218004089864 282.8966052245801, 60.16639622245349 349.55448737574903, 56 422" fill="none" stroke="black" stroke-width="1" /><path d="M 56 422 C 44.19270338533725 480.2103689796064, 17.750073419887414 537.1949849749032, 1 597" fill="none" stroke="black" stroke-width="1" /><path d="M 1 597 C 2 598, 2 598, 3 598" fill="none" stroke="black" stroke-width="1" /><path d="M 3 598 C 17.562651840551 539.4790223464865, 46.44539544918304 484.834324479867, 57 426" fill="none" stroke="black" stroke-width="1" /><path d="M 57 426 C 61.567125553210715 356.5572681593511, 68.4616790067347 290.2581568547573, 70 216" fill="none" stroke="black" stroke-width="1" /><path d="M 70 216 C 70.56209150326798 213.66666666666666, 72.00653594771242 212.33333333333337, 70 211" fill="none" stroke="black" stroke-width="1" /><path d="M 68 212 C 84.10599778306653 199.6798262136922, 92.24109001569417 194.5532213546251, 101 187" fill="none" stroke="black" stroke-width="1" /><path d="M 101 187 C 108.94123410418108 177.36300780519755, 107.46814144635624 161.66511681516357, 113 153" fill="none" stroke="black" stroke-width="1" /><path d="M 113 153 C 103.65330126133503 156.3785963369145, 108.40128228433056 176.4792401389362, 101 183" fill="none" stroke="black" stroke-width="1" /><path d="M 101 183 C 96.18056311375281 189.8313172329291, 86.14571027502058 193.3536706395588, 81 200" fill="none" stroke="black" stroke-width="1" /><path d="M 81 200 C 105.65457194892623 154.69897456437502, 129.97167880893394 102.41800250909262, 164 65" fill="none" stroke="black" stroke-width="1" /><path d="M 164 65 C 200.05915901618135 46.10964997352233, 232.17272980383467 11.938489501742726, 281 24" fill="none" stroke="black" stroke-width="1" /><path d="M 281 24 C 282 23, 282 23, 282 22" fill="none" stroke="black" stroke-width="1" /><path d="M 282 22 C 271.4051794235247 20.73668689141576, 259.0320844728595 20.23167522407263, 250 19" fill="none" stroke="black" stroke-width="1" /><path d="M 250 19 C 277.2253191727789 5.823262626598766, 303.6179077974011 9.237698402791656, 331 10" fill="none" stroke="black" stroke-width="1" /><path d="M 331 10 C 325.96297566649827 13.967163089533587, 316.69517452874896 17.25283347836341, 309 23" fill="none" stroke="black" stroke-width="1" /><path d="M 309 23 C 339.3586816620072 4.187279083434944, 370.88531503036813 8.59374119578679, 404 26" fill="none" stroke="black" stroke-width="1" /><path d="M 404 26 C 447.9557004001701 47.04484728198519, 480.1927382875989 82.17240844444822, 500 123" fill="none" stroke="black" stroke-width="1" /><path d="M 500 123 C 496.9764284073637 133.61092593238558, 491.59773591005444 143.40991217634772, 480 146" fill="none" stroke="black" stroke-width="1" /><path d="M 480 146 C 469.1549974752961 139.35848935596536, 462.1503553227574 135.7183450658556, 450 132" fill="none" stroke="black" stroke-width="1" /><path d="M 450 132 C 455.1707110449831 138.6147667400881, 469.62532852360863 139.9681376755072, 475 147" fill="none" stroke="black" stroke-width="1" /><path d="M 475 147 C 467.83726175337733 152.0240485565845, 462.9905292204944 154.78332617478077, 455 158" fill="none" stroke="black" stroke-width="1" /><path d="M 455 158 C 446.84448742307023 139.56056273089294, 443.77180189484363 119.54130158235616, 435 100" fill="none" stroke="black" stroke-width="1" /><path d="M 435 100 C 456.80712582337634 111.62249459379534, 478.875379138674 120.90709744016218, 490 140" fill="none" stroke="black" stroke-width="1" /><path d="M 490 140 C 477.6055111683604 113.95661512075378, 457.3322124629645 110.68556758934233, 435 96" fill="none" stroke="black" stroke-width="1" /><path d="M 435 96 C 423.03618123115507 80.24746952802397, 419.08864662640923 73.03808198355057, 408 66" fill="none" stroke="black" stroke-width="1" /><path d="M 408 66 C 384.589259366391 53.941876938795936, 367.4979720578574 35.32252725700992, 338 35" fill="none" stroke="black" stroke-width="1" /><path d="M 338 35 C 364.0754066536365 39.53797246706832, 388.7614544201927 56.07251503914783, 410 70" fill="none" stroke="black" stroke-width="1" /><path d="M 410 70 C 434.89973315407013 90.25112978388744, 440.5414882807197 126.0035382473185, 452 158" fill="none" stroke="black" stroke-width="1" /><path d="M 455 158 C 452.31925936647315 165.20831019995745, 446.69123014401634 163.64483665318946, 443 171" fill="none" stroke="black" stroke-width="1" /><path d="M 443 171 C 440.2729777536233 177.7860682991033, 439.58950888691794 182.60142787274768, 440 190" fill="none" stroke="black" stroke-width="1" /><path d="M 440 190 C 447.8011345963352 202.24618250869202, 454.05726809886886 210.64351796127002, 463 220" fill="none" stroke="black" stroke-width="1" /><path d="M 463 220 C 468.5999564123545 242.08789020675366, 466.96164007056575 261.07398899886334, 478 282" fill="none" stroke="black" stroke-width="1" /><path d="M 478 282 C 468.5945974660904 280.5434902366876, 457.2859160948631 266.57654826622843, 453 257" fill="none" stroke="black" stroke-width="1" /><path d="M 453 257 C 451.5284698106317 242.05918294707618, 457.19222963802144 229.0620599776629, 454 216" fill="none" stroke="black" stroke-width="1" /><path d="M 454 216 C 452.19401671073916 234.59760000148378, 448.7169341181101 250.52917208219677, 450 267" fill="none" stroke="black" stroke-width="1" /><path d="M 450 267 C 440.4052950955483 284.97869609163666, 434.8808992650976 315.8475189443804, 417 333" fill="none" stroke="black" stroke-width="1" /><path d="M 417 333 C 418.35639423162837 324.1269215618586, 423.9100072456231 318.1651691231599, 425 310" fill="none" stroke="black" stroke-width="1" /><path d="M 425 310 C 426.6732026143791 308.2352941176471, 423.8954248366013 307.5686274509804, 423 308" fill="none" stroke="black" stroke-width="1" /><path d="M 423 308 C 410.59154574000206 325.6165543425257, 392.79552829684013 350.06187721443064, 371 358" fill="none" stroke="black" stroke-width="1" /><path d="M 371 358 C 372.0944208981951 353.43462965837426, 374.8059376888195 352.6015342235209, 379 346" fill="none" stroke="black" stroke-width="1" /><path d="M 379 346 C 380.2924004143516 343.54691276642507, 382.48752236557124 339.8314656119533, 380 340" fill="none" stroke="black" stroke-width="1" /><path d="M 380 340 C 375.83120778931965 347.17977904436316, 364.8944648021458 360.3799588351584, 355 364" fill="none" stroke="black" stroke-width="1" /><path d="M 355 364 C 383.6945363516571 310.7780731610208, 404.77997924953513 246.1364537655121, 398 175" fill="none" stroke="black" stroke-width="1" /><path d="M 398 175 C 386.67740878938724 124.44782719564452, 377.059679999337 65.85053684898845, 326 51" fill="none" stroke="black" stroke-width="1" /><path d="M 326 51 C 325 52, 325 52, 325 53" fill="none" stroke="black" stroke-width="1" /><path d="M 325 53 C 329.66666666666663 53.99999999999999, 334.33333333333337 54.0, 339 54" fill="none" stroke="black" stroke-width="1" /><path d="M 339 54 C 362.83671117915316 75.80906878430646, 372.60348068761476 96.91071621636947, 384 124" fill="none" stroke="black" stroke-width="1" /><path d="M 384 124 C 395.93115637367447 162.7183507874377, 401.0511400760032 217.2359114874561, 391 259" fill="none" stroke="black" stroke-width="1" /><path d="M 391 259 C 382.3394366098335 250.57561657570557, 366.8128270456492 243.994807827995, 358 238" fill="none" stroke="black" stroke-width="1" /><path d="M 358 238 C 352.1834009276616 216.04514094034076, 351.782997702392 190.49209280509373, 353 168" fill="none" stroke="black" stroke-width="1" /><path d="M 353 168 C 346.5242830999497 185.77759287755367, 352.2549003560763 213.19071607572866, 352 234" fill="none" stroke="black" stroke-width="1" /><path d="M 352 234 C 342.54334068115395 232.49182451056365, 336.48007295983683 229.05907470898163, 326 230" fill="none" stroke="black" stroke-width="1" /><path d="M 326 230 C 316.81710659310676 204.33979775615197, 325.3367421892344 182.11957127479408, 323 158" fill="none" stroke="black" stroke-width="1" /><path d="M 323 158 C 322.1989188159392 172.55796873553695, 313.1794174684073 183.00205159366496, 313 198" fill="none" stroke="black" stroke-width="1" /><path d="M 313 198 C 302.9017324146358 216.67128731507938, 299.21759461058843 242.32674331254327, 289 257" fill="none" stroke="black" stroke-width="1" /><path d="M 289 257 C 286.5246463792058 228.35001543170208, 289.2795236016893 201.72135074904295, 296 181" fill="none" stroke="black" stroke-width="1" /><path d="M 296 181 C 297.58757426248945 157.35234854530984, 306.20936421301815 137.83059590212636, 314 118" fill="none" stroke="black" stroke-width="1" /><path d="M 314 118 C 314.45308723357454 116.54691276642485, 316.1685343880471 112.83146561195352, 314 113" fill="none" stroke="black" stroke-width="1" /><path d="M 314 113 C 300.5900626451582 141.49001357995738, 292.877198137668 180.0706199523064, 287 214" fill="none" stroke="black" stroke-width="1" /><path d="M 287 214 C 283.1590218371883 249.35331931723042, 287.4523804145519 287.0805053161619, 299 313" fill="none" stroke="black" stroke-width="1" /><path d="M 299 313 C 283.05445630395013 299.2935726851433, 270.0691964294587 283.8701247834322, 254 263" fill="none" stroke="black" stroke-width="1" /><path d="M 254 263 C 249.24427133279727 245.78581306088188, 239.85168384709849 237.69310520853685, 241 222" fill="none" stroke="black" stroke-width="1" /><path d="M 241 222 C 236.83824028852618 239.8525730815656, 251.54340387826724 258.8154760315967, 253 278" fill="none" stroke="black" stroke-width="1" /><path d="M 253 278 C 241.30627594498816 267.3905008132812, 232.71734306113188 253.4970489500335, 231 237" fill="none" stroke="black" stroke-width="1" /><path d="M 231 237 C 230.642834481025 212.61664183121962, 224.63157771182972 195.7608769204977, 227 173" fill="none" stroke="black" stroke-width="1" /><path d="M 227 173 C 222.36812754301806 181.66912185713818, 223.04539104664343 197.1966313336246, 220 207" fill="none" stroke="black" stroke-width="1" /><path d="M 220 207 C 217.9999999999999 207.9999999999998, 216.00000000000014 208.0000000000002, 214 208" fill="none" stroke="black" stroke-width="1" /><path d="M 214 208 C 213.2674229283193 185.90399380556883, 209.6886791768374 167.0398816547534, 216 149" fill="none" stroke="black" stroke-width="1" /><path d="M 216 149 C 229.08918463881827 127.5800543203114, 235.35348428725132 100.17473479783293, 260 86" fill="none" stroke="black" stroke-width="1" /><path d="M 260 86 C 230.1014630979509 98.7460202884835, 223.87812734130435 136.39602305733757, 206 161" fill="none" stroke="black" stroke-width="1" /><path d="M 206 161 C 198.05688807915735 178.38501611938455, 192.97750720583147 192.06066075792606, 185 206" fill="none" stroke="black" stroke-width="1" /><path d="M 185 206 C 182.9999999999998 210.00784756882314, 181.00000000000017 208.77207521109972, 179 209" fill="none" stroke="black" stroke-width="1" /><path d="M 179 209 C 177.27469135802477 206.6666666666665, 179.72530864197526 204.33333333333354, 179 202" fill="none" stroke="black" stroke-width="1" /><path d="M 179 202 C 174.59330041938733 204.07172054998142, 176.35175452566762 208.56930509104427, 174 209" fill="none" stroke="black" stroke-width="1" /><path d="M 174 209 C 167.18656868382462 212.6289870283443, 161.0384139723169 212.26101228415138, 157 215" fill="none" stroke="black" stroke-width="1" /><path d="M 157 215 C 156 216, 156 216, 157 216" fill="none" stroke="black" stroke-width="1" /><path d="M 157 216 C 162.65123251244768 215.30886718724568, 168.7922911216837 213.14846860158184, 172 214" fill="none" stroke="black" stroke-width="1" /><path d="M 172 214 C 166.0363297409135 225.72002745747105, 169.7060279601723 237.3541132161578, 166 251" fill="none" stroke="black" stroke-width="1" /><path d="M 166 251 C 164.83931318077654 252.55984555984543, 163.31898797752464 253.5598455598457, 161 255" fill="none" stroke="black" stroke-width="1" /><path d="M 161 255 C 159.7391304347826 252.0724637681159, 162.26086956521743 251.9275362318841, 162 249" fill="none" stroke="black" stroke-width="1" /><path d="M 162 249 C 162.80392156862743 248.3006535947713, 162.1372549019608 246.1895424836601, 161 248" fill="none" stroke="black" stroke-width="1" /><path d="M 161 248 C 151.9926867756792 264.9782137444061, 151.81983607716882 285.4464581902653, 150 306" fill="none" stroke="black" stroke-width="1" /><path d="M 150 306 C 145.60411214112725 301.75278736056805, 145.80140529740908 293.74749851707645, 143 289" fill="none" stroke="black" stroke-width="1" /><path d="M 143 289 C 142.02561086189795 300.24590734334066, 149.72404605352622 312.11391916451987, 150 321" fill="none" stroke="black" stroke-width="1" /><path d="M 150 321 C 129.7832699214362 307.0778318963889, 128.2300671896643 279.96665131189127, 121 261" fill="none" stroke="black" stroke-width="1" /><path d="M 121 261 C 123.82349213984666 288.3961082703518, 132.67558344304618 315.3801700391251, 153 330" fill="none" stroke="black" stroke-width="1" /><path d="M 153 330 C 161.94160334398924 361.88180255957155, 168.99909604947706 387.31142661839095, 183 414" fill="none" stroke="black" stroke-width="1" /><path d="M 183 414 C 182.85607419665297 416.81750628801296, 175.56095487178374 419.2919008989864, 172 420" fill="none" stroke="black" stroke-width="1" /><path d="M 172 420 C 161.52076412835225 413.3930258637383, 148.85795529224276 397.698814630956, 143 388" fill="none" stroke="black" stroke-width="1" /><path d="M 143 388 C 131.3341109219742 368.38932499518603, 127.2793669427036 347.90575622032463, 120 329" fill="none" stroke="black" stroke-width="1" /><path d="M 120 329 C 123.31320552512898 348.24928170739935, 130.83548182542722 365.51551311987436, 131 387" fill="none" stroke="black" stroke-width="1" /><path d="M 131 387 C 117.61324245108933 363.6155252666508, 118.15834227339424 332.1915744922488, 116 299" fill="none" stroke="black" stroke-width="1" /><path d="M 116 299 C 121.97322277036494 302.69391904880456, 122.5348775988612 311.701635167155, 129 313" fill="none" stroke="black" stroke-width="1" /><path d="M 129 313 C 115.54165395945971 293.6838846842265, 106.14778861246683 278.4509227110945, 105 255" fill="none" stroke="black" stroke-width="1" /><path d="M 105 255 C 103.97683397683383 252.7748375553253, 102.97683397683413 247.82361804313027, 102 251" fill="none" stroke="black" stroke-width="1" /><path d="M 102 251 C 125.04192484625752 319.0133438632642, 111.31114084224168 404.775235083991, 82 461" fill="none" stroke="black" stroke-width="1" /><path d="M 82 461 C 61.47307764128853 497.988314134245, 45.00091872732221 555.4365275430811, 44 597" fill="none" stroke="black" stroke-width="1" /><path d="M 44 597 C 45 598, 45 598, 46 598" fill="none" stroke="black" stroke-width="1" /><path d="M 46 598 C 46.00081198296569 571.5653503957599, 51.903164120666126 554.3029280553857, 57 530" fill="none" stroke="black" stroke-width="1" /><path d="M 57 530 C 67.7662605631962 494.47109905688967, 81.29340594576801 468.94274071922695, 94 435" fill="none" stroke="black" stroke-width="1" /><path d="M 94 435 C 94.05906861896392 459.0196550917109, 89.4890109809154 492.09890458087796, 87 517" fill="none" stroke="black" stroke-width="1" /><path d="M 87 517 C 86.41513261327336 545.9306680129911, 98.07036439313195 570.1967413067053, 96 597" fill="none" stroke="black" stroke-width="1" /><path d="M 96 597 C 106.39401303622121 593.6309446897883, 114.38692307737603 583.5525951494311, 125 575" fill="none" stroke="black" stroke-width="1" /><path d="M 125 575 C 125.6666666666667 573.9999999999998, 126.83333333333329 573.0000000000002, 125 572" fill="none" stroke="black" stroke-width="1" /><path d="M 125 572 C 117.08137384428402 581.8476956524693, 106.283625907669 584.8429300079313, 100 593" fill="none" stroke="black" stroke-width="1" /><path d="M 100 593 C 98.52149861692239 553.8243759040115, 107.31674554353631 514.9342536673101, 109 477" fill="none" stroke="black" stroke-width="1" /><path d="M 109 477 C 114.68223096765679 432.56239022459073, 158.83918057983968 427.54491344031675, 193 416" fill="none" stroke="black" stroke-width="1" /><path d="M 193 416 C 180.93073513218212 428.00396162363336, 176.73679386107037 444.4185462627911, 169 456" fill="none" stroke="black" stroke-width="1" /><path d="M 169 456 C 159.1141033234951 470.3900710821044, 151.97920737031956 487.64571340770465, 140 502" fill="none" stroke="black" stroke-width="1" /><path d="M 140 502 C 135.78856370134272 500.961573135001, 139.00695450594023 494.695289610097, 138 491" fill="none" stroke="black" stroke-width="1" /><path d="M 138 491 C 137.66666666666666 490.0, 137.33333333333334 490.0, 137 490" fill="none" stroke="black" stroke-width="1" /><path d="M 137 490 C 137.08888936411435 521.8928774485897, 119.50738361774445 545.5871934953611, 104 572" fill="none" stroke="black" stroke-width="1" /><path d="M 104 572 C 108.35220188685534 572.2882954962163, 108.5979931326466 567.291662499583, 111 567" fill="none" stroke="black" stroke-width="1" /><path d="M 111 567 C 142.3233901325455 566.3813667385804, 155.67025280352618 576.8182265900977, 175 597" fill="none" stroke="black" stroke-width="1" /><path d="M 175 597 C 177.66666666666663 597.9999999999999, 180.3333333333334 598.0000000000001, 183 598" fill="none" stroke="black" stroke-width="1" /><path d="M 183 598 C 172.37447554340343 588.1195671427967, 167.47073427449047 584.3785665524866, 162 576" fill="none" stroke="black" stroke-width="1" /><path d="M 162 576 C 174.5739607942606 575.2804054358136, 187.83386172082837 576.2946772326948, 199 579" fill="none" stroke="black" stroke-width="1" /><path d="M 199 579 C 205.45796442448298 584.7580937285336, 208.61036659047667 591.6491591206258, 214 597" fill="none" stroke="black" stroke-width="1" /><path d="M 214 597 C 216.0 598.0, 217.0 598.0000000000003, 218 598" fill="none" stroke="black" stroke-width="1" /><path d="M 218 598 C 214.33242066627702 594.476756220248, 208.5345032902696 588.5944273131997, 208 584" fill="none" stroke="black" stroke-width="1" /><path d="M 208 584 C 211.40920499477255 585.2301822960205, 217.95016628410337 590.2258786708762, 224 597" fill="none" stroke="black" stroke-width="1" /><path d="M 224 597 C 226.66666666666657 597.9999999999991, 228.33333333333337 598.0000000000008, 230 598" fill="none" stroke="black" stroke-width="1" /><path d="M 230 598 C 235.17003129121233 586.2410059530085, 253.5953376516358 581.0782379031554, 260 573" fill="none" stroke="black" stroke-width="1" /><path d="M 261 572 C 286.6051509095986 571.1425868848365, 304.90043682545206 593.6366015774644, 328 598" fill="none" stroke="black" stroke-width="1" /><path d="M 328 598 C 305.74360244634096 590.4060080678431, 288.3319054656587 567.331804132787, 261 572" fill="none" stroke="black" stroke-width="1" /><path d="M 261 572 C 276.670402881863 558.6864331950802, 284.706322035871 545.8048706633966, 302 525" fill="none" stroke="black" stroke-width="1" /><path d="M 302 525 C 302.99999999999994 523.9999999999998, 303.0 523.0000000000001, 303 522" fill="none" stroke="black" stroke-width="1" /><path d="M 303 522 C 311.38377663675675 515.7977753770548, 315.8762071732809 510.3544102678452, 323 502" fill="none" stroke="black" stroke-width="1" /><path d="M 323 502 C 335.0834454522217 482.7442846399252, 354.95883738626156 463.86073360615603, 358 435" fill="none" stroke="black" stroke-width="1" /><path d="M 358 435 C 350.2163494190431 438.79589514055675, 339.299208007571 444.9715169179767, 331 446" fill="none" stroke="black" stroke-width="1" /><path d="M 331 446 C 350.21102400184145 415.53882299817457, 361.1991021340951 394.9722391044386, 362 365" fill="none" stroke="black" stroke-width="1" /><path d="M 362 365 C 384.2705352172465 356.1056815013899, 404.5795909566258 341.45477407310176, 419 316" fill="none" stroke="black" stroke-width="1" /><path d="M 419 316 C 420.00746354307626 322.47023009593903, 413.1213680370617 328.03310663067566, 411 339" fill="none" stroke="black" stroke-width="1" /><path d="M 411 339 C 412.359882510998 340.97831839109756, 415.20314269908613 337.5552950542806, 418 335" fill="none" stroke="black" stroke-width="1" /><path d="M 418 335 C 413.26103950287927 362.1531856833449, 405.0390524693365 387.58514694593765, 392 413" fill="none" stroke="black" stroke-width="1" /><path d="M 392 413 C 390.2074226157097 404.3746515357448, 398.5627178129673 395.18406386372584, 399 387" fill="none" stroke="black" stroke-width="1" /><path d="M 399 387 C 399.56209150326794 385.1045751633987, 401.00653594771245 382.326797385621, 399 383" fill="none" stroke="black" stroke-width="1" /><path d="M 399 383 C 397.33371830163236 386.2233952585115, 395.5190735765402 391.38808463215616, 394 396" fill="none" stroke="black" stroke-width="1" /><path d="M 394 396 C 392.7307692307691 397.39743589743546, 392.2307692307693 398.56410256410294, 390 398" fill="none" stroke="black" stroke-width="1" /><path d="M 390 398 C 384.53342949336644 406.5415295743514, 376.6363500350542 410.65669789979927, 371 418" fill="none" stroke="black" stroke-width="1" /><path d="M 371 418 C 368.3979423868313 421.5325102880658, 374.3187242798354 417.3174897119342, 374 417" fill="none" stroke="black" stroke-width="1" /><path d="M 374 417 C 374.56011420608104 424.0245933052628, 372.12622886261505 428.3984836178142, 367 433" fill="none" stroke="black" stroke-width="1" /><path d="M 367 433 C 372.13447008174495 433.2211459057734, 373.7112612068794 428.59917911139297, 377 427" fill="none" stroke="black" stroke-width="1" /><path d="M 377 427 C 392.53744864105806 436.5323264026975, 421.18773146428964 443.94293942723283, 434 452" fill="none" stroke="black" stroke-width="1" /><path d="M 434 452 C 432.7190105426968 467.5375727729624, 428.1902846448742 488.3861824373445, 420 504" fill="none" stroke="black" stroke-width="1" /><path d="M 420 504 C 400.2540923249057 536.2423999236504, 388.92571506129605 566.5526105164786, 365 598" fill="none" stroke="black" stroke-width="1" /><path d="M 365 598 C 372.7608571941281 596.948113725141, 378.00989835506965 580.9383655443439, 383 575" fill="none" stroke="black" stroke-width="1" /><path d="M 383 575 C 382.61374546557505 581.6023391293342, 378.055003593585 589.2249226499824, 377 597" fill="none" stroke="black" stroke-width="1" /><path d="M 377 597 C 375.1666666666667 598.8333333333334, 377.3333333333333 597.6666666666667, 378 598" fill="none" stroke="black" stroke-width="1" /><path d="M 378 598 C 382.94977497196953 579.5569312068592, 395.06038732254723 561.2635947266763, 400 546" fill="none" stroke="black" stroke-width="1" /><path d="M 400 546 C 417.041196887894 514.9816817173939, 430.1878235836667 481.97461920539604, 458 464" fill="none" stroke="black" stroke-width="1" /><path d="M 458 464 C 470.9140468975569 464.0892000081731, 472.88705037771183 470.75690460508656, 486 477" fill="none" stroke="black" stroke-width="1" /><path d="M 486 477 C 469.21852666134413 493.3441415779419, 454.1435249493799 518.5000023541307, 442 543" fill="none" stroke="black" stroke-width="1" /><path d="M 442 543 C 430.16059007788783 560.4152442433807, 418.37018048317134 577.6390829053704, 413 597" fill="none" stroke="black" stroke-width="1" /><path d="M 413 597 C 413 598, 413 598, 414 598" fill="none" stroke="black" stroke-width="1" /><path d="M 414 598 C 420.72754419010175 579.1704298896949, 430.60869230132596 563.9805334848073, 441 549" fill="none" stroke="black" stroke-width="1" /><path d="M 441 549 C 448.9191528813068 530.0496122941215, 467.4945597967495 502.9095873020049, 480 487" fill="none" stroke="black" stroke-width="1" /><path d="M 480 487 C 484.2037163872865 488.01285090838866, 485.3789166659348 489.6398101560372, 489 493" fill="none" stroke="black" stroke-width="1" /><path d="M 489 493 C 488.1804305191536 518.4688392982175, 484.6432169039252 546.7362634366714, 482 572" fill="none" stroke="black" stroke-width="1" /><path d="M 482 572 C 481.65933175283857 581.0073349138279, 479.6764634219523 591.6568699113814, 482 598" fill="none" stroke="black" stroke-width="1" /><path d="M 482 598 C 483.8109282477466 523.9124022129356, 505.0169097756593 455.8871775564055, 505 381" fill="none" stroke="black" stroke-width="1" /><path d="M 505 381 C 498.35774532267106 295.603829907115, 454.1739654815473 203.02907684838186, 502 128" fill="none" stroke="black" stroke-width="1" /><path d="M 502 128 C 560.2241827332368 137.31132593871442, 557.5343040588291 222.53865396231095, 564 281" fill="none" stroke="black" stroke-width="1" /><path d="M 564 281 C 571.8300711270743 345.28655228533165, 542.8803822904429 415.55997228732497, 550 478" fill="none" stroke="black" stroke-width="1" /><path d="M 550 478 C 544.8837038449304 475.97141331497755, 545.2849510296069 468.5857648010241, 542 465" fill="none" stroke="black" stroke-width="1" /><path d="M 542 465 C 535.7542763890533 486.89500071440443, 531.6212322019518 504.30422828747226, 532 528" fill="none" stroke="black" stroke-width="1" /><path d="M 532 528 C 534.6867976951208 552.5268414659183, 533.1126501888436 573.5317913395023, 536 595" fill="none" stroke="black" stroke-width="1" /><path d="M 536 595 C 538.4444444444443 594.888888888889, 535.5555555555557 599.111111111111, 538 598" fill="none" stroke="black" stroke-width="1" /><path d="M 538 598 C 536.0294869053748 582.7608919866801, 536.4188547543532 568.415488807103, 536 552" fill="none" stroke="black" stroke-width="1" /><path d="M 536 552 C 544.0033638343623 569.2839826652089, 554.5087661434255 578.8433321594295, 557 597" fill="none" stroke="black" stroke-width="1" /><path d="M 557 597 C 558 598, 558 598, 559 598" fill="none" stroke="black" stroke-width="1" /><path d="M 559 598 C 555.6978014853131 590.1511347769442, 557.544611532381 576.8129423444365, 560 566" fill="none" stroke="black" stroke-width="1" /><path d="M 560 566 C 562.5184290820492 574.9330108831078, 563.5079400379469 586.578950588413, 563 597" fill="none" stroke="black" stroke-width="1" /><path d="M 563 597 C 566.2917021576851 523.9758590857344, 534.7000243003972 456.21667603327893, 561 383" fill="none" stroke="black" stroke-width="1" /><path d="M 561 383 C 569.498592416849 318.5939841927418, 566.8066361636722 249.9441623420341, 556 188" fill="none" stroke="black" stroke-width="1" /><path d="M 556 188 C 561.0830156256472 177.06583575630077, 573.0399982973669 160.8020126115476, 559 150" fill="none" stroke="black" stroke-width="1" /><path d="M 558 149 C 573.3587909255585 153.1132733004485, 573.1397245855148 176.8454337778885, 560 187" fill="none" stroke="black" stroke-width="1" /><path d="M 560 187 C 571.4794065653892 181.668871713419, 579.8269179636226 160.31152908344504, 563 149" fill="none" stroke="black" stroke-width="1" /><path d="M 563 149 C 546.174543524233 135.3495104257216, 526.4241705919056 133.03103814924597, 506 125" fill="none" stroke="black" stroke-width="1" /><path d="M 506 125 C 479.96301256233687 81.27623308923039, 452.2077519382513 44.86650587686468, 406 25" fill="none" stroke="black" stroke-width="1" /><path d="M 406 25 C 371.6857043605427 4.008509956623746, 327.0864672583833 8.187927312357514, 284 7" fill="none" stroke="black" stroke-width="1" /><path d="M 162 583 C 163 582, 163 582, 164 583" fill="none" stroke="black" stroke-width="1" /><path d="M 161 580 C 163.16666666666686 578.0000000000006, 160.83333333333314 582.4999999999995, 163 581" fill="none" stroke="black" stroke-width="1" /><path d="M 160 578 C 161 579, 161 579, 161 580" fill="none" stroke="black" stroke-width="1" /><path d="M 157 575 C 158.8333333333332 575.3376068376064, 158.16666666666677 576.0598290598294, 160 578" fill="none" stroke="black" stroke-width="1" /><path d="M 161 580 C 158.8627450980392 578.8039215686276, 158.19607843137257 578.1372549019605, 158 577" fill="none" stroke="black" stroke-width="1" /><path d="M 129 555 C 140.40115987372306 554.7603386888303, 157.75571186092023 557.5201552067329, 171 558" fill="none" stroke="black" stroke-width="1" /><path d="M 171 558 C 190.65930193455213 565.210865255501, 216.38744595401943 562.7374616603136, 228 575" fill="none" stroke="black" stroke-width="1" /><path d="M 228 575 C 229.0 581.3333333333333, 229.0 587.6666666666667, 229 594" fill="none" stroke="black" stroke-width="1" /><path d="M 229 594 C 228.66666666666666 595.3333333333334, 228.33333333333334 595.6666666666666, 228 596" fill="none" stroke="black" stroke-width="1" /><path d="M 228 596 C 212.43129469630375 574.1158291472051, 185.13535433130872 572.3494059360443, 159 572" fill="none" stroke="black" stroke-width="1" /><path d="M 159 572 C 149.62715730219972 568.0214585831602, 135.87998357891237 566.3743329653562, 124 564" fill="none" stroke="black" stroke-width="1" /><path d="M 124 564 C 127.04558404558406 559.4715099715102, 125.95441595441598 558.5284900284898, 129 555" fill="none" stroke="black" stroke-width="1" /><path d="M 119 552 C 123.0586419753087 550.2746913580247, 122.94135802469128 552.7253086419753, 126 552" fill="none" stroke="black" stroke-width="1" /><path d="M 126 552 C 126.92849578871338 555.997903662333, 124.51833324432256 558.0020963376671, 123 562" fill="none" stroke="black" stroke-width="1" /><path d="M 124 564 C 120.33333333333333 564.3675213675214, 117.66666666666666 564.3675213675214, 115 563" fill="none" stroke="black" stroke-width="1" /><path d="M 115 563 C 115.36918308105528 558.2617865047855, 118.2095485321591 556.1247579852073, 119 552" fill="none" stroke="black" stroke-width="1" /><path d="M 247 501 C 268.62469647185173 499.8121318220359, 288.2191237658514 510.08633009865656, 298 522" fill="none" stroke="black" stroke-width="1" /><path d="M 298 522 C 299.0 522.9999999999994, 299.00000000000017 524.0000000000006, 299 525" fill="none" stroke="black" stroke-width="1" /><path d="M 299 525 C 284.79224624086197 541.5141874015114, 271.7463654979806 560.4854052368494, 255 574" fill="none" stroke="black" stroke-width="1" /><path d="M 255 574 C 249.68080028997989 578.5394949473005, 237.3261567707931 585.2827686008483, 233 591" fill="none" stroke="black" stroke-width="1" /><path d="M 233 591 C 230.83563844923046 561.9628833361825, 237.35614303641623 535.8927571382412, 236 506" fill="none" stroke="black" stroke-width="1" /><path d="M 236 506 C 238.8118946638217 501.1098656808598, 243.71471598043604 502.0133836188602, 247 501" fill="none" stroke="black" stroke-width="1" /><path d="M 487 480 C 488.1623931623925 479.72649572649584, 491.4401709401714 480.67094017093996, 491 482" fill="none" stroke="black" stroke-width="1" /><path d="M 491 482 C 492.13189300411517 484.3333333333333, 492.1514403292184 486.6666666666667, 491 489" fill="none" stroke="black" stroke-width="1" /><path d="M 491 489 C 488.7243292253217 490.752844669039, 485.891524433215 486.18008216022935, 484 486" fill="none" stroke="black" stroke-width="1" /><path d="M 484 486 C 482.2716200521075 482.2716200521077, 484.9870672065797 482.9870672065795, 485 481" fill="none" stroke="black" stroke-width="1" /><path d="M 541 473 C 549.3590699679198 483.7051461395191, 551.0370953543962 499.95520863784327, 555 511" fill="none" stroke="black" stroke-width="1" /><path d="M 555 511 C 556.371551495005 533.3330633137339, 558.4958226261358 555.4528245178111, 556 578" fill="none" stroke="black" stroke-width="1" /><path d="M 556 578 C 547.7670678324608 569.2748065670914, 544.4964232472681 552.3758735323357, 536 542" fill="none" stroke="black" stroke-width="1" /><path d="M 536 542 C 532.0556828452973 517.7311513286945, 536.575692901932 493.973421912464, 541 473" fill="none" stroke="black" stroke-width="1" /><path d="M 437 456 C 439.3596048759983 451.73517506577616, 443.91088692728044 456.4697429670109, 446 457" fill="none" stroke="black" stroke-width="1" /><path d="M 446 457 C 449.2509057220453 472.19434175740264, 437.6829810526721 477.81127418592973, 431 487" fill="none" stroke="black" stroke-width="1" /><path d="M 431 487 C 430.32826254435736 476.61920205294365, 435.99908394616904 468.6085538672602, 437 456" fill="none" stroke="black" stroke-width="1" /><path d="M 502 416 C 503.77415814301105 413.1062537947787, 502.72857409742613 420.5877352762596, 503 423" fill="none" stroke="black" stroke-width="1" /><path d="M 503 423 C 498.163008111096 423.6050706023383, 503.2304345118549 419.0998474304487, 502 416" fill="none" stroke="black" stroke-width="1" /><path d="M 203 413 C 204.32679738562098 411.43137254901956, 207.10457516339864 411.43137254901967, 208 413" fill="none" stroke="black" stroke-width="1" /><path d="M 208 413 C 191.68295645913116 443.7802860833807, 171.8129180593487 471.43952020625915, 156 500" fill="none" stroke="black" stroke-width="1" /><path d="M 156 500 C 148.95963224393972 515.3133462470329, 139.80055323138316 530.9084128750164, 130 548" fill="none" stroke="black" stroke-width="1" /><path d="M 130 548 C 127.77746695543053 551.3149718970762, 126.10058182505729 548.6606378590213, 123 549" fill="none" stroke="black" stroke-width="1" /><path d="M 123 549 C 131.1045571692593 523.5573052670095, 139.86699553978164 506.16029501006136, 155 484" fill="none" stroke="black" stroke-width="1" /><path d="M 155 484 C 171.91926528078378 461.29133000933547, 179.92169274371932 427.9754057255706, 203 413" fill="none" stroke="black" stroke-width="1" /><path d="M 103 412 C 103.56717110450893 432.95047269840586, 101.78951408788731 466.87111643496434, 106 489" fill="none" stroke="black" stroke-width="1" /><path d="M 106 489 C 103.41545092439956 516.2807049950383, 98.1200797734097 539.3478557872932, 98 568" fill="none" stroke="black" stroke-width="1" /><path d="M 98 568 C 90.83142875546959 551.1785518455523, 90.41477458142883 531.2708926335715, 89 513" fill="none" stroke="black" stroke-width="1" /><path d="M 89 513 C 92.79939727720085 487.3035168775592, 97.01052049158315 454.966291097899, 96 429" fill="none" stroke="black" stroke-width="1" /><path d="M 96 429 C 99.14343809715868 422.68378801409676, 99.1415235886651 419.0231085376274, 102 414" fill="none" stroke="black" stroke-width="1" /><path d="M 220 407 C 236.00974428372552 410.2409599343336, 244.967149390677 426.29062749760953, 261 422" fill="none" stroke="black" stroke-width="1" /><path d="M 261 422 C 253.40013093722678 449.5177959733115, 239.7748137242584 465.975547771975, 241 498" fill="none" stroke="black" stroke-width="1" /><path d="M 241 498 C 239.81810699588476 499.426131687243, 237.4652263374486 501.8572016460903, 235 501" fill="none" stroke="black" stroke-width="1" /><path d="M 235 501 C 234.02575046257112 524.3515571799678, 232.44089637069607 549.4960782380759, 230 570" fill="none" stroke="black" stroke-width="1" /><path d="M 230 570 C 214.91201123253245 562.72390333556, 197.4578162240432 562.46831262698, 180 558" fill="none" stroke="black" stroke-width="1" /><path d="M 180 558 C 164.6863960204792 554.7526290553612, 148.17548948634794 554.8643488626502, 133 551" fill="none" stroke="black" stroke-width="1" /><path d="M 133 551 C 144.80439487450445 523.90887060294, 169.30022031187804 481.9941050647502, 186 454" fill="none" stroke="black" stroke-width="1" /><path d="M 186 454 C 201.79027653765627 438.8592674738774, 200.86762340843998 420.4535198309584, 218 408" fill="none" stroke="black" stroke-width="1" /><path d="M 389 403 C 390.20331180250633 407.0422077397947, 383.53831561450005 413.889274148419, 378 422" fill="none" stroke="black" stroke-width="1" /><path d="M 378 422 C 377.4150308174028 411.42083353316457, 383.5474069527159 410.05446599087946, 389 403" fill="none" stroke="black" stroke-width="1" /><path d="M 107 401 C 111.48215624713954 415.6896898318887, 102.61149354559802 443.34539919570517, 110 462" fill="none" stroke="black" stroke-width="1" /><path d="M 110 462 C 108.1492223623371 467.3675213675217, 108.7005044136192 468.63247863247835, 107 473" fill="none" stroke="black" stroke-width="1" /><path d="M 107 473 C 106.54479315868987 449.97167153053465, 102.8375420830111 424.79039879463437, 107 401" fill="none" stroke="black" stroke-width="1" /><path d="M 390 398 C 393.4480020089775 398.5640204664592, 391.21222965125406 403.4745895721508, 390 401" fill="none" stroke="black" stroke-width="1" /><path d="M 341 396 C 353.37091889070143 414.033584238521, 338.73512192965853 430.9036870160537, 325 447" fill="none" stroke="black" stroke-width="1" /><path d="M 325 447 C 335.5273206936316 449.67495193376334, 346.3180923203208 443.4829500893073, 354 439" fill="none" stroke="black" stroke-width="1" /><path d="M 354 439 C 356.24907679227533 451.52251591545803, 343.148298008174 467.38956946265347, 336 479" fill="none" stroke="black" stroke-width="1" /><path d="M 336 479 C 320.58510626118976 482.7902495238182, 304.72193200050145 478.1189299095877, 295 486" fill="none" stroke="black" stroke-width="1" /><path d="M 295 486 C 302.459600161783 484.6188255659623, 319.15334644373206 482.3649522495633, 332 483" fill="none" stroke="black" stroke-width="1" /><path d="M 332 483 C 327.0104737759408 495.836518650315, 314.52072982022975 509.83137004405086, 301 520" fill="none" stroke="black" stroke-width="1" /><path d="M 301 520 C 285.46289594447876 505.2802258714455, 266.57484243922744 496.1444565684155, 245 499" fill="none" stroke="black" stroke-width="1" /><path d="M 245 499 C 242.60063648485834 473.77792643087906, 249.6540569709187 453.90112854653313, 261 435" fill="none" stroke="black" stroke-width="1" /><path d="M 261 435 C 268.50016447801653 438.1641091115632, 264.0649620887075 450.67717048211256, 268 455" fill="none" stroke="black" stroke-width="1" /><path d="M 268 455 C 271.0194420660059 441.7814146849383, 263.0245236442586 434.1542120943214, 264 422" fill="none" stroke="black" stroke-width="1" /><path d="M 264 422 C 293.8791214746201 417.5324604059149, 317.87764198492084 403.56679609579106, 341 396" fill="none" stroke="black" stroke-width="1" /><path d="M 250 468 C 246.9999999999999 468.9999999999996, 251.50000000000009 470.00000000000045, 250 471" fill="none" stroke="black" stroke-width="1" /><path d="M 250 471 C 256.4528993909639 472.906150634878, 260.88969735190176 478.54519512081566, 267 482" fill="none" stroke="black" stroke-width="1" /><path d="M 267 482 C 263.64642353147764 475.4486767184249, 256.79411391849374 471.34649194938527, 252 469" fill="none" stroke="black" stroke-width="1" /><path d="M 356 386 C 356.66666666666674 383.33333333333337, 358.8333333333333 386.6666666666667, 358 387" fill="none" stroke="black" stroke-width="1" /><path d="M 358 387 C 354.8481891322481 394.52111796021126, 350.9096377554131 400.9807236604149, 350 405" fill="none" stroke="black" stroke-width="1" /><path d="M 350 405 C 346.0259550006001 402.34580519773215, 347.24295256242516 398.72842449414463, 347 394" fill="none" stroke="black" stroke-width="1" /><path d="M 347 394 C 350.24642989860376 389.86048733874816, 351.65222700005313 390.35807187981106, 354 388" fill="none" stroke="black" stroke-width="1" /><path d="M 171 376 C 186.45640109665723 384.2619845546306, 200.6365253658204 394.67884940168034, 217 405" fill="none" stroke="black" stroke-width="1" /><path d="M 217 405 C 207.4551586386069 409.82711255668715, 195.17821173633655 411.8804495441333, 186 415" fill="none" stroke="black" stroke-width="1" /><path d="M 186 415 C 179.8748963078297 402.9764782774176, 170.4594781678599 389.7503808542658, 171 376" fill="none" stroke="black" stroke-width="1" /><path d="M 498 368 C 508.2178925986649 383.17504747358095, 493.3046126392328 412.3009041530091, 501 430" fill="none" stroke="black" stroke-width="1" /><path d="M 501 430 C 495.1144517176694 444.81893650330977, 497.323613783302 463.971626916063, 493 478" fill="none" stroke="black" stroke-width="1" /><path d="M 493 478 C 484.10997994977464 471.67622756075457, 478.1163519131367 470.4578070507147, 470 464" fill="none" stroke="black" stroke-width="1" /><path d="M 470 464 C 471.8741603058778 447.45858827367135, 482.6963798117716 436.20604164571694, 488 418" fill="none" stroke="black" stroke-width="1" /><path d="M 488 418 C 492.375621157329 400.6266767529406, 493.7773764961644 386.8273880190356, 498 368" fill="none" stroke="black" stroke-width="1" /><path d="M 116 343 C 120.49084273586125 366.5655042930093, 125.98065137923228 402.5305516102024, 148 417" fill="none" stroke="black" stroke-width="1" /><path d="M 148 417 C 140.20813938938804 407.60480426605113, 130.86516931190437 388.00836190859013, 133 375" fill="none" stroke="black" stroke-width="1" /><path d="M 133 375 C 141.32380420950955 393.435964359273, 154.25069393236177 409.78419918978324, 168 420" fill="none" stroke="black" stroke-width="1" /><path d="M 168 420 C 145.3312555343051 426.66270311399467, 122.24064773730306 436.7899074449514, 111 458" fill="none" stroke="black" stroke-width="1" /><path d="M 111 458 C 108.27037353341991 445.7240359724222, 110.86720361396696 433.20224226776804, 110 419" fill="none" stroke="black" stroke-width="1" /><path d="M 110 419 C 111.2698482559021 393.9026024855667, 116.15478553175635 364.9998757635151, 116 343" fill="none" stroke="black" stroke-width="1" /><path d="M 152 309 C 154.16853438804662 306.8314656119534, 152.45308723357502 310.546912766425, 153 312" fill="none" stroke="black" stroke-width="1" /><path d="M 153 312 C 150.89316239316233 313.4401709401708, 152.50427350427347 310.1623931623932, 152 309" fill="none" stroke="black" stroke-width="1" /><path d="M 487 302 C 502.9027609004935 336.3593154137079, 496.26111064177053 366.7323090646521, 489 408" fill="none" stroke="black" stroke-width="1" /><path d="M 489 408 C 483.3888773312916 427.2179004197675, 474.1955191254505 441.49813349885375, 467 460" fill="none" stroke="black" stroke-width="1" /><path d="M 467 460 C 460.7148062946431 460.17726662376555, 454.8674752009511 462.32442425501523, 451 464" fill="none" stroke="black" stroke-width="1" /><path d="M 451 464 C 449.74580791412444 460.1920192019201, 453.9545621228792 457.7576757675767, 450 457" fill="none" stroke="black" stroke-width="1" /><path d="M 450 457 C 442.8561140021519 452.7445320483259, 441.14388599784814 451.691000221262, 434 448" fill="none" stroke="black" stroke-width="1" /><path d="M 434 448 C 448.4319216637644 425.8285290184284, 458.0176941749801 404.6100319941107, 466 382" fill="none" stroke="black" stroke-width="1" /><path d="M 466 382 C 478.91354912521064 356.9622473917993, 481.7331545946439 326.61554963935555, 487 302" fill="none" stroke="black" stroke-width="1" /><path d="M 323 282 C 337.53027067334386 280.87661841156273, 348.1362358448077 288.4652692091712, 357 297" fill="none" stroke="black" stroke-width="1" /><path d="M 357 297 C 361.68298207428643 298.45766310983703, 355.91164552034115 295.8634602112863, 357 293" fill="none" stroke="black" stroke-width="1" /><path d="M 357 293 C 360.3750923872874 294.11149641623285, 362.6553954175906 294.95557675449885, 363 298" fill="none" stroke="black" stroke-width="1" /><path d="M 363 298 C 364.3412313035649 316.40897216272964, 353.87187104374186 327.56073161542906, 342 337" fill="none" stroke="black" stroke-width="1" /><path d="M 342 337 C 334.38053275184365 334.4174924316379, 325.0759184280866 330.5353103601721, 318 329" fill="none" stroke="black" stroke-width="1" /><path d="M 318 329 C 316.37182209573757 312.2671240942488, 313.10397906148165 294.377514653852, 322 284" fill="none" stroke="black" stroke-width="1" /><path d="M 313 275 C 320.9918154845466 275.00818451545337, 329.3681423181811 274.63185768181893, 336 276" fill="none" stroke="black" stroke-width="1" /><path d="M 336 276 C 337.90354090354094 277.1833625311886, 339.2368742368742 279.77756542973935, 341 281" fill="none" stroke="black" stroke-width="1" /><path d="M 341 281 C 329.5424103255969 281.4481517090063, 322.7548311688122 277.2101702994337, 311 280" fill="none" stroke="black" stroke-width="1" /><path d="M 311 280 C 310.6666666666668 279.0000000000001, 312.8333333333333 277.99999999999994, 312 277" fill="none" stroke="black" stroke-width="1" /><path d="M 318 270 C 324.26474065958104 268.40192600708554, 327.59169562832733 269.74163770500604, 332 270" fill="none" stroke="black" stroke-width="1" /><path d="M 332 270 C 331.83333333333337 272.1666666666667, 335.1666666666667 269.8333333333333, 334 272" fill="none" stroke="black" stroke-width="1" /><path d="M 334 272 C 326.33333333333366 273.0000000000002, 318.66666666666634 272.9999999999998, 311 273" fill="none" stroke="black" stroke-width="1" /><path d="M 309 273 C 311.02200220022013 271.47361402806956, 314.59775977597747 269.3961729506282, 318 270" fill="none" stroke="black" stroke-width="1" /><path d="M 482 268 C 487.02746685631956 271.8570291176918, 487.02499772051743 281.93916323418745, 488 290" fill="none" stroke="black" stroke-width="1" /><path d="M 488 290 C 483.889597003318 288.70692945162835, 481.80424090835936 281.52655542596233, 478 276" fill="none" stroke="black" stroke-width="1" /><path d="M 478 276 C 478.5024966053044 272.72432922532175, 481.210918028842 269.89152443321484, 482 268" fill="none" stroke="black" stroke-width="1" /><path d="M 452 268 C 461.54676383550026 277.70276962667816, 477.64327026832706 285.75081127517853, 488 297" fill="none" stroke="black" stroke-width="1" /><path d="M 488 297 C 480.3888066462708 307.8935510379071, 465.2596884973969 334.0930471027617, 453 342" fill="none" stroke="black" stroke-width="1" /><path d="M 453 342 C 437.25114007056163 356.44264354329107, 432.51600417117527 360.21179944957964, 416 366" fill="none" stroke="black" stroke-width="1" /><path d="M 416 366 C 425.27352176130654 366.802388346833, 432.7794329067992 361.9627897427514, 442 355" fill="none" stroke="black" stroke-width="1" /><path d="M 442 355 C 457.16550981556674 340.2182839421328, 466.8425390451946 334.8911926856041, 480 314" fill="none" stroke="black" stroke-width="1" /><path d="M 480 314 C 482.359797710736 344.1353521121746, 466.9090182172761 369.1330218520381, 460 393" fill="none" stroke="black" stroke-width="1" /><path d="M 460 393 C 449.6834381586968 411.8718895087925, 444.50553636010716 431.8197294632707, 430 447" fill="none" stroke="black" stroke-width="1" /><path d="M 430 447 C 412.9554778162903 439.0153303580252, 392.9911343069177 433.5140531968908, 379 425" fill="none" stroke="black" stroke-width="1" /><path d="M 379 425 C 382.92938073871153 420.5812427374294, 383.2708993733333 417.2184771505258, 387 414" fill="none" stroke="black" stroke-width="1" /><path d="M 387 414 C 391.2530586391972 412.6984031736503, 388.01736840350696 418.3313998066476, 388 420" fill="none" stroke="black" stroke-width="1" /><path d="M 388 420 C 395.87692600389397 411.8712749831534, 399.57821123092043 402.66652328380343, 405 390" fill="none" stroke="black" stroke-width="1" /><path d="M 405 390 C 411.55685004137047 368.54586068552044, 417.4349701759917 355.5121867973939, 422 335" fill="none" stroke="black" stroke-width="1" /><path d="M 422 335 C 440.5555783685098 319.0194502474281, 456.80417202829784 301.2061906217364, 467 286" fill="none" stroke="black" stroke-width="1" /><path d="M 467 286 C 458.48761561168516 289.45132953344654, 443.68582492032004 316.45604634774367, 427 326" fill="none" stroke="black" stroke-width="1" /><path d="M 427 326 C 435.4068462738113 309.63762618981843, 443.9275350117895 287.81368065173234, 452 268" fill="none" stroke="black" stroke-width="1" /><path d="M 183 257 C 198.72779170496904 257.1878654218614, 206.14482113144322 261.19848349729676, 216 269" fill="none" stroke="black" stroke-width="1" /><path d="M 216 269 C 217.00665743535902 283.63727404139007, 218.4177591607405 299.3940143721594, 211 309" fill="none" stroke="black" stroke-width="1" /><path d="M 211 309 C 205.01360306888628 306.94417193860755, 189.88507993214685 311.2835981112579, 187 308" fill="none" stroke="black" stroke-width="1" /><path d="M 187 308 C 177.2572611569879 293.34003138106556, 176.06776468317975 272.31350802283873, 182 259" fill="none" stroke="black" stroke-width="1" /><path d="M 164 256 C 163.6196581196579 253.0555555555554, 167.34188034188048 256.77777777777777, 166 258" fill="none" stroke="black" stroke-width="1" /><path d="M 166 258 C 168.1666666666667 258.00000000000017, 165.8333333333333 256.99999999999983, 168 256" fill="none" stroke="black" stroke-width="1" /><path d="M 168 256 C 170.83333333333326 255.99999999999997, 169.6666666666667 257.0, 170 258" fill="none" stroke="black" stroke-width="1" /><path d="M 170 258 C 165.5144724121162 261.0109507130491, 164.17718449273863 262.435749794565, 161 268" fill="none" stroke="black" stroke-width="1" /><path d="M 161 268 C 159.16220199728414 265.8377980027157, 157.4109687344232 264.589031265577, 158 261" fill="none" stroke="black" stroke-width="1" /><path d="M 158 261 C 160.03909465020575 259.7057613168723, 159.9609053497943 257.2942386831277, 162 257" fill="none" stroke="black" stroke-width="1" /><path d="M 174 250 C 190.3017638065608 247.02386461380226, 209.3867657269341 257.4708908997081, 217 264" fill="none" stroke="black" stroke-width="1" /><path d="M 217 264 C 207.07646002651873 260.58686593429167, 189.49970102566692 249.4665721542583, 173 257" fill="none" stroke="black" stroke-width="1" /><path d="M 173 257 C 170.1666666666667 256.0000000000002, 171.3333333333333 254.99999999999986, 171 254" fill="none" stroke="black" stroke-width="1" /><path d="M 171 254 C 171.76495726495713 249.99145299145295, 173.8760683760685 252.0470085470085, 174 250" fill="none" stroke="black" stroke-width="1" /><path d="M 356 250 C 361.29452286685773 258.87410852429304, 361.32856160832046 267.94951379183794, 363 281" fill="none" stroke="black" stroke-width="1" /><path d="M 363 281 C 360.1736196126439 281.98706720657907, 360.40939197036766 279.2716200521081, 358 280" fill="none" stroke="black" stroke-width="1" /><path d="M 358 280 C 356.8264742320564 269.3333333333332, 357.62500184531035 259.6666666666668, 356 250" fill="none" stroke="black" stroke-width="1" /><path d="M 359 245 C 373.309554555817 247.5106639184278, 377.77075914743057 254.66558458791923, 389 263" fill="none" stroke="black" stroke-width="1" /><path d="M 389 263 C 388.19854141757526 273.84029183407694, 383.4882074508499 289.1461372719089, 381 301" fill="none" stroke="black" stroke-width="1" /><path d="M 381 301 C 363.929527100058 286.19683096105445, 363.61366087948574 267.02610951399095, 359 245" fill="none" stroke="black" stroke-width="1" /><path d="M 477 236 C 478.64451903167515 243.92752958867482, 487.9426733851968 260.44903266779477, 477 269" fill="none" stroke="black" stroke-width="1" /><path d="M 477 269 C 471.4658533898117 262.4321735272998, 474.75626211793576 247.52861957467647, 476 238" fill="none" stroke="black" stroke-width="1" /><path d="M 325 234 C 334.9397221552397 231.51053836033233, 346.388803485786 236.27476136246742, 352 239" fill="none" stroke="black" stroke-width="1" /><path d="M 352 239 C 354.84662900956346 257.3277618756578, 356.0068349727835 272.55860915215413, 354 291" fill="none" stroke="black" stroke-width="1" /><path d="M 354 291 C 345.36593137434807 282.9260425004557, 342.1078838049304 279.1288155472764, 337 272" fill="none" stroke="black" stroke-width="1" /><path d="M 337 272 C 337.9999999999996 268.8314656119532, 340.0000000000004 270.5469127664251, 342 270" fill="none" stroke="black" stroke-width="1" /><path d="M 342 270 C 339.6089998109283 268.104414823218, 334.7446587256571 268.96875590848936, 334 265" fill="none" stroke="black" stroke-width="1" /><path d="M 334 265 C 330.2105919052409 254.50062806940585, 326.7881683668758 244.45654496735202, 325 234" fill="none" stroke="black" stroke-width="1" /><path d="M 475 215 C 477.48206362897275 222.55453935345108, 474.850587008227 237.79696977215218, 472 245" fill="none" stroke="black" stroke-width="1" /><path d="M 472 245 C 471.11176288905426 235.45845626311677, 467.5810363245117 230.594341312045, 468 222" fill="none" stroke="black" stroke-width="1" /><path d="M 468 222 C 470.1031428866083 220.8115643101463, 472.4456376011965 217.73721617765858, 474 217" fill="none" stroke="black" stroke-width="1" /><path d="M 470 212 C 471.764705882353 209.32026143790853, 472.43137254901956 213.54248366013073, 472 214" fill="none" stroke="black" stroke-width="1" /><path d="M 472 214 C 471.38622594720124 217.72837994789214, 468.1504535894783 217.01293279342062, 468 219" fill="none" stroke="black" stroke-width="1" /><path d="M 468 219 C 465.1479358001097 216.641928120189, 467.2574366052628 217.13951266125179, 469 214" fill="none" stroke="black" stroke-width="1" /><path d="M 177 212 C 178.05555555555546 209.83333333333303, 182.94444444444449 211.0000000000002, 182 213" fill="none" stroke="black" stroke-width="1" /><path d="M 182 213 C 176.80478659854077 220.3075377032908, 176.1952134014592 227.44808948820335, 171 234" fill="none" stroke="black" stroke-width="1" /><path d="M 171 234 C 171.75010858641193 224.04171588666213, 171.64271092284602 218.4283277683131, 177 212" fill="none" stroke="black" stroke-width="1" /><path d="M 213 213 C 214.66666666666652 208.3290598290597, 216.33333333333343 211.1068376068377, 218 211" fill="none" stroke="black" stroke-width="1" /><path d="M 218 211 C 217.97567260504175 219.1126713373499, 218.0265898866874 224.22636091382935, 215 232" fill="none" stroke="black" stroke-width="1" /><path d="M 215 232 C 212.52974242658428 226.33333333333331, 213.07274883898612 219.6666666666666, 213 213" fill="none" stroke="black" stroke-width="1" /><path d="M 224 200 C 225.51623690665576 199.4231273624931, 225.9305921263802 207.26652780992072, 226 210" fill="none" stroke="black" stroke-width="1" /><path d="M 225 211 C 221.14879465978737 210.3603316378136, 222.3023748603477 206.20465509958694, 223 202" fill="none" stroke="black" stroke-width="1" /><path d="M 319 180 C 319.3437498185145 194.7359789854528, 318.71590251992336 214.23408546201367, 322 228" fill="none" stroke="black" stroke-width="1" /><path d="M 322 228 C 318.60475923590684 231.5516323385175, 313.89250852365603 228.59864088552624, 312 231" fill="none" stroke="black" stroke-width="1" /><path d="M 312 231 C 315.39524076409316 234.63598150483395, 320.10749147634414 231.86675073560323, 322 233" fill="none" stroke="black" stroke-width="1" /><path d="M 322 233 C 322.84236233379886 242.9326916666406, 329.33267074768827 256.59323995072396, 331 266" fill="none" stroke="black" stroke-width="1" /><path d="M 331 266 C 319.4784058153625 266.7139421000931, 312.4135727016159 266.7310509699, 303 273" fill="none" stroke="black" stroke-width="1" /><path d="M 303 273 C 303.16666666666663 275.1666666666666, 299.83333333333337 272.8333333333335, 301 275" fill="none" stroke="black" stroke-width="1" /><path d="M 301 275 C 303.8013468013466 276.00293362669584, 306.19865319865323 272.7470413708038, 309 273" fill="none" stroke="black" stroke-width="1" /><path d="M 309 273 C 310.75479119565296 280.8794259649868, 300.38772219505574 282.34308792572494, 299 288" fill="none" stroke="black" stroke-width="1" /><path d="M 299 288 C 305.14042770293577 287.43554968810446, 310.07498110209576 280.6713685508893, 319 282" fill="none" stroke="black" stroke-width="1" /><path d="M 319 282 C 310.52162674809637 293.29124909265175, 315.12849159101194 316.50403963630885, 314 329" fill="none" stroke="black" stroke-width="1" /><path d="M 314 329 C 321.908455802181 332.7865050299982, 327.59771610810054 334.4289096922659, 336 337" fill="none" stroke="black" stroke-width="1" /><path d="M 336 337 C 335.83333333333337 339.16666666666686, 339.16666666666663 336.8333333333332, 338 339" fill="none" stroke="black" stroke-width="1" /><path d="M 338 339 C 353.30998610514445 334.69272368831236, 364.31584827956476 319.89459202058543, 366 303" fill="none" stroke="black" stroke-width="1" /><path d="M 366 303 C 368.87268219722574 305.08951292115586, 370.4900629008134 309.1093666306649, 373 313" fill="none" stroke="black" stroke-width="1" /><path d="M 373 313 C 370.60040037758904 301.11794047328306, 364.7840022640913 294.50912959800417, 358 289" fill="none" stroke="black" stroke-width="1" /><path d="M 358 289 C 356.99999999999983 287.33333333333303, 357.0000000000001 285.66666666666686, 357 284" fill="none" stroke="black" stroke-width="1" /><path d="M 357 284 C 361.4388718016279 282.2053672015795, 365.2158078840115 287.53599979056145, 368 293" fill="none" stroke="black" stroke-width="1" /><path d="M 368 293 C 369.2418300653594 292.6666666666667, 367.13071895424844 291.33333333333326, 368 290" fill="none" stroke="black" stroke-width="1" /><path d="M 368 290 C 389.55864647450386 309.2580645182012, 362.9657831185217 333.90348236292425, 356 356" fill="none" stroke="black" stroke-width="1" /><path d="M 356 356 C 349.6876792712961 365.73033970351474, 343.9240934695585 371.05014862192166, 333 377" fill="none" stroke="black" stroke-width="1" /><path d="M 333 377 C 338.69394992855007 380.8476494772293, 352.7062835743127 366.59130391815825, 359 365" fill="none" stroke="black" stroke-width="1" /><path d="M 362 365 C 362.53388465715153 369.6666666666667, 358.5958823609404 374.3333333333332, 360 379" fill="none" stroke="black" stroke-width="1" /><path d="M 360 379 C 339.2258006818795 399.1475538675785, 314.06433587978785 402.18479787174834, 292 412" fill="none" stroke="black" stroke-width="1" /><path d="M 292 412 C 275.48380895202325 417.2247973226957, 264.87110583774023 418.06777736538055, 249 420" fill="none" stroke="black" stroke-width="1" /><path d="M 249 420 C 233.33419512663477 407.8881482805002, 213.40033450688264 401.31078614085885, 201 392" fill="none" stroke="black" stroke-width="1" /><path d="M 201 392 C 179.41193762998947 376.24427567791906, 158.6245440659493 366.583111385087, 158 337" fill="none" stroke="black" stroke-width="1" /><path d="M 158 337 C 156.2082603386951 332.3820672081542, 158.1116419812072 334.14052131443435, 159 333" fill="none" stroke="black" stroke-width="1" /><path d="M 159 333 C 157.45726495726484 331.8760683760683, 157.9017094017095 329.7649572649573, 157 329" fill="none" stroke="black" stroke-width="1" /><path d="M 157 329 C 156.54827081484774 308.9516216557986, 153.063169300821 287.3989398526487, 156 270" fill="none" stroke="black" stroke-width="1" /><path d="M 156 270 C 160.56931000873834 274.8676780552914, 160.0154601062042 280.3578966573524, 164 282" fill="none" stroke="black" stroke-width="1" /><path d="M 164 282 C 164.95629743891516 276.1503099019817, 159.6421538885184 275.1696964191308, 163 269" fill="none" stroke="black" stroke-width="1" /><path d="M 161 268 C 166.64860304863276 263.9050919769627, 171.630494515987 258.83606616267144, 179 258" fill="none" stroke="black" stroke-width="1" /><path d="M 179 258 C 173.46379738324762 272.69378871292514, 175.61295896385357 296.66400590624875, 184 308" fill="none" stroke="black" stroke-width="1" /><path d="M 184 308 C 191.4275228012259 311.93589150444546, 202.9307511496846 311.19950041954496, 212 312" fill="none" stroke="black" stroke-width="1" /><path d="M 212 312 C 221.15693678208373 299.5704803604526, 218.60697090333755 274.9066044809746, 219 263" fill="none" stroke="black" stroke-width="1" /><path d="M 219 263 C 206.83724268135825 253.89487153119637, 198.64455210043664 250.2165008801761, 184 247" fill="none" stroke="black" stroke-width="1" /><path d="M 184 247 C 196.16131012015637 243.32903960670026, 205.27010422182084 249.51200432300988, 216 256" fill="none" stroke="black" stroke-width="1" /><path d="M 216 256 C 208.17303563205581 245.0575145743265, 197.74818747348075 241.99976908346574, 181 242" fill="none" stroke="black" stroke-width="1" /><path d="M 181 242 C 179.03846153846155 243.2692307692308, 179.03846153846143 243.76923076923066, 180 246" fill="none" stroke="black" stroke-width="1" /><path d="M 180 246 C 175.94135802469123 246.27469135802457, 176.05864197530875 248.7253086419755, 173 248" fill="none" stroke="black" stroke-width="1" /><path d="M 173 248 C 171.17593573252304 233.00313683569834, 180.83733562953347 221.66162806691824, 186 211" fill="none" stroke="black" stroke-width="1" /><path d="M 186 211 C 193.99999999999994 210.7844517148335, 202.00000000000009 208.63394930995742, 210 210" fill="none" stroke="black" stroke-width="1" /><path d="M 210 210 C 210.4277511506697 224.3815243469748, 211.8851416640067 239.42573458513547, 216 249" fill="none" stroke="black" stroke-width="1" /><path d="M 216 249 C 215.0538811526535 235.64921124852904, 220.6419657247239 224.52270589650175, 221 213" fill="none" stroke="black" stroke-width="1" /><path d="M 221 213 C 222.26923076923066 211.60256410256395, 222.7692307692308 210.43589743589752, 225 211" fill="none" stroke="black" stroke-width="1" /><path d="M 225 211 C 227.40697965085553 222.68885514340215, 227.875737564471 231.3111448565978, 229 243" fill="none" stroke="black" stroke-width="1" /><path d="M 229 243 C 235.5789016077744 266.27087725522205, 251.3587437569653 281.54578582328105, 262 292" fill="none" stroke="black" stroke-width="1" /><path d="M 262 292 C 259.6564652869598 285.9055455290528, 253.51955215371834 276.7624633539791, 252 267" fill="none" stroke="black" stroke-width="1" /><path d="M 252 267 C 266.12685920659794 282.0872025349149, 282.18551395446974 304.11082323801264, 303 319" fill="none" stroke="black" stroke-width="1" /><path d="M 303 319 C 300.13826415778817 305.25182666189215, 288.8852409941998 280.0716605221761, 289 263" fill="none" stroke="black" stroke-width="1" /><path d="M 289 263 C 302.2107440933774 236.28214052891676, 311.0999553222691 212.06728380906313, 318 182" fill="none" stroke="black" stroke-width="1" /><path d="M 273 377 C 267.65421341447313 379.98808929080724, 262.4297875010682 380.5392625059426, 258 383" fill="none" stroke="black" stroke-width="1" /><path d="M 258 383 C 261.5652843476752 386.3287362152367, 268.0110430859531 381.11579602243705, 271 380" fill="none" stroke="black" stroke-width="1" /><path d="M 271 380 C 273.83333333333326 379.8333333333334, 272.6666666666668 377.6666666666666, 273 377" fill="none" stroke="black" stroke-width="1" /><path d="M 235 371 C 234.87044120509253 378.1388451200578, 240.35098416469677 381.1203809370168, 248 383" fill="none" stroke="black" stroke-width="1" /><path d="M 248 383 C 246.65832796057347 378.3187992407759, 236.14957002379515 378.3202381923792, 235 371" fill="none" stroke="black" stroke-width="1" /><path d="M 236 331 C 234.20475876573428 330.1109332328841, 231.9689864080109 333.3060551841043, 234 333" fill="none" stroke="black" stroke-width="1" /><path d="M 234 333 C 235.32905982905947 333.66239316239296, 236.27350427350456 332.940170940171, 236 331" fill="none" stroke="black" stroke-width="1" /><path d="M 454 172 C 454.6666666666666 170.5000000000001, 456.83333333333326 170.49999999999991, 456 172" fill="none" stroke="black" stroke-width="1" /><path d="M 456 172 C 459.44898196543045 184.3852191452013, 460.91039317495034 197.42259288910023, 463 211" fill="none" stroke="black" stroke-width="1" /><path d="M 463 211 C 453.31343135515925 201.5808382108116, 434.3268362375208 185.3725804850063, 452 173" fill="none" stroke="black" stroke-width="1" /><path d="M 211 157 C 208.45424510402057 166.84669430136148, 211.26440826054028 188.40357184214307, 211 205" fill="none" stroke="black" stroke-width="1" /><path d="M 211 205 C 203.66666666666666 208.87034893153628, 196.33333333333331 205.16909526389173, 189 208" fill="none" stroke="black" stroke-width="1" /><path d="M 189 208 C 194.16632960614 193.96482026470537, 200.46950264379902 174.79372923964175, 210 159" fill="none" stroke="black" stroke-width="1" /><path d="M 466 156 C 466.1666666666668 153.16666666666674, 468.33333333333314 154.33333333333326, 469 154" fill="none" stroke="black" stroke-width="1" /><path d="M 471 154 C 457.5412509343491 162.75620144675236, 456.5997410796398 167.0830974049253, 444 177" fill="none" stroke="black" stroke-width="1" /><path d="M 444 177 C 445.18052832393386 165.1773220789581, 455.58290556803234 161.9120502215779, 466 156" fill="none" stroke="black" stroke-width="1" /><path d="M 469 154 C 469.45751633986936 151.1241830065359, 473.6797385620914 154.67973856209156, 471 154" fill="none" stroke="black" stroke-width="1" /><path d="M 473 152 C 473.3333333333333 152.0, 473.6666666666667 152.0, 474 152" fill="none" stroke="black" stroke-width="1" /><path d="M 485 150 C 486.8954248366013 149.43790849673204, 489.67320261437914 147.99346405228758, 489 150" fill="none" stroke="black" stroke-width="1" /><path d="M 489 150 C 481.20994480836663 167.09145489644416, 478.06979455454837 198.22751403413065, 467 213" fill="none" stroke="black" stroke-width="1" /><path d="M 467 213 C 463.2635146275578 203.08571091386855, 462.7364853724421 188.71204480921048, 460 176" fill="none" stroke="black" stroke-width="1" /><path d="M 460 176 C 465.6666666666667 172.1547010300129, 472.3333333333331 175.7977986731102, 479 173" fill="none" stroke="black" stroke-width="1" /><path d="M 479 173 C 472.15003867156116 169.67324817759157, 465.6124535940154 171.47423399417193, 460 172" fill="none" stroke="black" stroke-width="1" /><path d="M 460 172 C 459.24183006535947 170.42483660130716, 457.13071895424844 171.20261437908502, 458 169" fill="none" stroke="black" stroke-width="1" /><path d="M 458 169 C 466.5629942967973 158.96442427712273, 475.27672507719063 150.62384474608285, 484 154" fill="none" stroke="black" stroke-width="1" /><path d="M 484 154 C 486.3071895424837 152.6666666666667, 482.7516339869281 151.3333333333333, 485 150" fill="none" stroke="black" stroke-width="1" /><path d="M 556 146 C 555.6196581196577 145.83333333333314, 559.3418803418805 147.0000000000001, 558 149" fill="none" stroke="black" stroke-width="1" /><path d="M 483 148 C 483 147, 483 147, 484 147" fill="none" stroke="black" stroke-width="1" /><path d="M 553 145 C 555 146, 555 146, 556 146" fill="none" stroke="black" stroke-width="1" /><path d="M 551 145 C 552 144, 552 144, 553 145" fill="none" stroke="black" stroke-width="1" /><path d="M 486 145 C 487.32679738562086 143.43137254901958, 490.1045751633988 143.43137254901964, 491 145" fill="none" stroke="black" stroke-width="1" /><path d="M 491 145 C 490.44017094017056 146.542735042735, 487.1623931623935 146.0982905982906, 486 147" fill="none" stroke="black" stroke-width="1" /><path d="M 486 147 C 483.8333333333338 144.8333333333333, 487.1666666666661 147.16666666666666, 486 145" fill="none" stroke="black" stroke-width="1" /><path d="M 548 143 C 549 143, 549 143, 550 143" fill="none" stroke="black" stroke-width="1" /><path d="M 536 144 C 554.8586212997353 140.4299777717142, 573.4465261874966 165.6475815848298, 556 181" fill="none" stroke="black" stroke-width="1" /><path d="M 556 181 C 549.7881003252123 165.90832310507824, 543.7153917070519 156.63425345731926, 536 144" fill="none" stroke="black" stroke-width="1" /><path d="M 531 137 C 538.6712312224116 134.3108780583078, 542.6687896527186 139.73659723841277, 547 141" fill="none" stroke="black" stroke-width="1" /><path d="M 547 141 C 543.2466575093048 144.17298488587062, 538.7787487621532 140.1727845503085, 533 138" fill="none" stroke="black" stroke-width="1" /><path d="M 100 103 C 107.42891396124841 103.12964090448338, 112.1833319327897 120.03344245122024, 118 121" fill="none" stroke="black" stroke-width="1" /><path d="M 118 121 C 113.65685687561657 113.80713860727897, 112.77732658797866 111.58179598753802, 108 106" fill="none" stroke="black" stroke-width="1" /><path d="M 108 106 C 113.13933471390217 107.61386348404656, 120.27067409865288 113.26362950028455, 123 117" fill="none" stroke="black" stroke-width="1" /><path d="M 123 117 C 109.741139535614 141.70282194419096, 96.19168594794215 164.17669843634877, 82 191" fill="none" stroke="black" stroke-width="1" /><path d="M 82 191 C 78.34077448362407 195.70308753012785, 77.4013545947279 199.70739115527343, 72 205" fill="none" stroke="black" stroke-width="1" /><path d="M 70 206 C 71.41266263533853 186.02873754738738, 72.11139627372111 166.79945733314287, 78 146" fill="none" stroke="black" stroke-width="1" /><path d="M 78 146 C 84.4136195880374 129.78287251900417, 92.81438934337538 113.77607515494681, 100 103" fill="none" stroke="black" stroke-width="1" /><path d="M 110 84 C 110.66666666666659 84.33333333333333, 112.83333333333341 83.16666666666669, 112 85" fill="none" stroke="black" stroke-width="1" /><path d="M 112 85 C 109.40853014146234 88.4100061012812, 106.31367868419477 90.25432956305445, 105 94" fill="none" stroke="black" stroke-width="1" /><path d="M 105 94 C 102.42204220422046 90.8709870987098, 105.97759775977592 86.6588658865887, 108 85" fill="none" stroke="black" stroke-width="1" /><path d="M 104 84 C 105.66666666666659 81.50000000000007, 107.83333333333344 81.49999999999993, 107 83" fill="none" stroke="black" stroke-width="1" /><path d="M 107 83 C 104.23687423687421 84.90354090354089, 102.90354090354093 86.23687423687426, 102 88" fill="none" stroke="black" stroke-width="1" /><path d="M 102 88 C 100.16239316239316 86.83760683760677, 102.27350427350422 83.55982905982911, 104 84" fill="none" stroke="black" stroke-width="1" /><path d="M 107 83 C 108 81, 108 81, 109 81" fill="none" stroke="black" stroke-width="1" /><path d="M 140 79 C 144.33333333333337 79.00000000000003, 146.66666666666663 78.99999999999997, 149 79" fill="none" stroke="black" stroke-width="1" /><path d="M 149 79 C 139.38312280440414 90.55455544272245, 132.26903681994133 103.19216451675268, 125 114" fill="none" stroke="black" stroke-width="1" /><path d="M 125 114 C 119.11965062574244 109.35964281150915, 112.26368318084249 105.93073162105189, 106 97" fill="none" stroke="black" stroke-width="1" /><path d="M 106 97 C 109.11118157894238 92.09682784436285, 111.8079814498097 85.275368452491, 119 82" fill="none" stroke="black" stroke-width="1" /><path d="M 119 82 C 126.95805961718503 80.02908987151925, 131.92830353408175 78.415681851603, 140 79" fill="none" stroke="black" stroke-width="1" /><path d="M 142 74 C 144.4306949089558 71.7640282422891, 148.92827945001858 73.59494611668525, 151 73" fill="none" stroke="black" stroke-width="1" /><path d="M 151 73 C 152 74, 152 74, 152 75" fill="none" stroke="black" stroke-width="1" /><path d="M 152 75 C 144.12812061437256 78.12812061437256, 132.10150929875078 76.1015092987508, 124 78" fill="none" stroke="black" stroke-width="1" /><path d="M 124 78 C 125.79522143319129 73.97899777476513, 136.00424380745042 75.77069371022048, 142 74" fill="none" stroke="black" stroke-width="1" /><path d="M 196 42 C 200.78827160493816 39.345061728395045, 194.8283950617285 44.63827160493828, 195 41" fill="none" stroke="black" stroke-width="1" /><path d="M 202 39 C 203.4487179487179 38.32905982905978, 198.1153846153846 42.273504273504315, 199 40" fill="none" stroke="black" stroke-width="1" /><path d="M 228 23 C 231.00000000000009 21.16666666666668, 231.99999999999994 22.333333333333325, 233 22" fill="none" stroke="black" stroke-width="1" /><path d="M 233 22 C 225.46449984269853 27.918509086401645, 210.31487546174498 35.018678779687356, 202 39" fill="none" stroke="black" stroke-width="1" /><path d="M 202 39 C 207.5277082988938 32.826352245402894, 220.15683892945927 26.290846999711132, 228 23" fill="none" stroke="black" stroke-width="1" /></svg>