<?xml version="1.0" encoding="UTF-8" standalone="no"?>
<!-- Created with Inkscape (http://www.inkscape.org/) -->

<svg
   version="1.1"
   id="svg1"
   width="598"
   height="776"
   viewBox="0 0 598 776"
   sodipodi:docname="184422_78.50777_413_SVCFP+LSTSQ(11.91s)_contour.png"
   xmlns:inkscape="http://www.inkscape.org/namespaces/inkscape"
   xmlns:sodipodi="http://sodipodi.sourceforge.net/DTD/sodipodi-0.dtd"
   xmlns="http://www.w3.org/2000/svg"
   xmlns:svg="http://www.w3.org/2000/svg">
  <defs
     id="defs1" />
  <sodipodi:namedview
     id="namedview1"
     pagecolor="#ffffff"
     bordercolor="#000000"
     borderopacity="0.25"
     inkscape:showpageshadow="2"
     inkscape:pageopacity="0.0"
     inkscape:pagecheckerboard="0"
     inkscape:deskcolor="#d1d1d1">
    <inkscape:page
       x="0"
       y="0"
       width="598"
       height="776"
       id="page2"
       margin="0"
       bleed="0" />
  </sodipodi:namedview>
  <g
     inkscape:groupmode="layer"
     inkscape:label="Image"
     id="g1">
    <path
       style="fill:#000000"
       d="m 181.12332,745.97021 c -15.25315,-6.92092 -29.2044,-24.73591 -32.21458,-41.13629 l -1.22352,-6.66608 -6.09261,3.8472 c -15.17444,9.58195 -39.95206,17.93245 -53.34261,17.97741 -2.98138,0.01 -2.949952,-2.7121 0.143791,-12.45435 1.316585,-4.14596 2.198658,-7.5381 1.960162,-7.5381 -0.238496,0 -2.103202,0.8493 -4.143791,1.88734 C 75.827357,707.16901 54.501898,711 35.483967,711 23.165819,711 22.731019,710.62819 22.670484,700.04285 22.62526,692.13505 24.108408,688.97744 30.673223,683.0051 33.32795,680.58995 40.225,674.25918 46,668.93672 c 5.775,-5.32247 30.729816,-28.21822 55.45515,-50.87946 38.77734,-35.54017 45.42172,-42.04406 48.35037,-47.32806 1.86737,-3.36921 4.4365,-7.49909 5.70918,-9.17751 L 157.82867,558.5 157.2874,528 c -1.60789,-90.60384 10.5014,-173.34649 33.35056,-227.88393 18.64233,-44.49638 48.95927,-80.19069 83.89475,-98.77532 4.92264,-2.6187 10.07908,-6.10177 11.45877,-7.74016 7.42973,-8.82289 17.36807,-24.765 27.60038,-44.27382 3.70017,-7.05472 8.64579,-15.55846 10.99025,-18.8972 10.8573,-15.4618 32.16369,-29.98817 57.3953,-39.131224 32.68448,-11.843712 76.25616,-15.371373 101.94202,-8.253455 13.98743,3.876113 24.65733,11.138398 31.17064,21.215769 4.07726,6.3083 7.90993,16.8543 7.90993,21.76498 0,2.36472 1.71947,4.22668 10.75,11.64087 22.52334,18.49198 41.32812,38.65537 38.59744,41.38605 -1.89795,1.89795 -28.35787,4.18278 -52.34744,4.52024 l -24.5,0.34463 -5.83766,8.29129 c -7.27338,10.33046 -16.28219,28.47548 -17.85086,35.95416 -1.09014,5.19728 -0.96664,6.35897 1.54722,14.55398 5.54703,18.08291 7.53581,42.09158 5.71405,68.98033 -2.64455,39.033 -10.93145,67.74376 -31.17329,108.00277 -16.93571,33.68345 -31.22387,55.45046 -60.23638,91.76587 -27.95269,34.98882 -30.32012,39.9655 -26.26215,55.20674 2.52948,9.50042 3.00669,9.80385 15.70786,9.9876 10.00489,0.14474 11.30316,0.3782 13.48113,2.42431 1.32555,1.24528 2.41008,2.76737 2.41008,3.38243 0,0.61505 2.05144,1.66696 4.55876,2.33756 4.89314,1.30872 9.44124,5.32706 9.44124,8.34155 0,1.57355 -0.80668,1.85398 -5.33322,1.85398 -5.76447,0 -16.67587,1.8924 -16.65228,2.88805 0.0436,1.83787 13.86035,15.06497 16.38843,15.68899 1.71893,0.42429 5.79757,0.0519 10,-0.91292 3.90339,-0.89621 11.72435,-1.71409 17.37992,-1.81752 9.01341,-0.16484 10.61828,0.0664 13,1.87326 1.49443,1.13372 2.65969,2.7553 2.58947,3.6035 -0.0879,1.06107 1.15255,1.75847 3.97609,2.2355 4.41021,0.7451 11.16948,6.38108 10.40836,8.67864 -0.54425,1.64291 -16.74978,3.05501 -26.61312,2.31898 -4.04599,-0.30192 -9.86681,-0.2539 -12.93514,0.10672 -4.95317,0.58215 -5.30571,0.76801 -3.14365,1.65737 1.33933,0.55093 6.33615,1.04168 11.10405,1.09056 7.56036,0.0775 8.97723,0.37847 11.08007,2.35355 4.99456,4.69112 8.65811,15.93864 5.77244,17.72208 -0.53821,0.33264 -2.3404,-0.40205 -4.00486,-1.63264 -2.06174,-1.52431 -5.21853,-2.47167 -9.90452,-2.97237 -4.53006,-0.48403 -8.93207,-1.77171 -12.89431,-3.77184 -3.30885,-1.6703 -9.09895,-3.79319 -12.86691,-4.71754 -3.76795,-0.92435 -8.46367,-2.43887 -10.43494,-3.36561 -3.42433,-1.60985 -3.93704,-1.58757 -11.5,0.49968 -4.35373,1.20157 -10.80392,3.41216 -14.33374,4.91244 -3.61396,1.53604 -8.275,2.72779 -10.66867,2.72779 -2.92601,0 -5.27271,0.75393 -7.52971,2.41909 -4.12077,3.04021 -5.5301,1.90269 -3.87101,-3.1244 1.39434,-4.22487 7.07101,-10.94163 10.9121,-12.91143 1.41633,-0.72633 6.07083,-2.09419 10.34332,-3.03969 4.2725,-0.9455 8.75329,-2.51678 9.95731,-3.49174 2.15759,-1.74711 2.16358,-1.82846 0.41619,-5.64558 -1.53663,-3.35671 -2.79715,-4.31902 -9.4573,-7.21989 -4.2264,-1.84084 -11.48695,-4.46116 -16.13456,-5.82295 -4.6476,-1.36179 -9.57405,-3.06484 -10.94767,-3.78455 -2.12655,-1.11421 -3.5449,-1.01874 -9.54981,0.64281 -3.87878,1.07326 -10.34883,3.26994 -14.37789,4.88152 -4.16913,1.66761 -9.19889,2.93014 -11.67327,2.93014 -3.17861,0 -5.14665,0.67225 -7.3188,2.5 -1.6341,1.375 -3.24362,2.5 -3.57673,2.5 -0.3331,0 -0.60564,-1.54002 -0.60564,-3.42226 0,-3.66576 4.38391,-10.34725 9,-13.71684 1.375,-1.0037 6.67735,-2.90171 11.783,-4.21779 5.10565,-1.31608 10.15897,-3.18561 11.2296,-4.15451 1.91718,-1.73502 1.88552,-1.87904 -2.09518,-9.53044 -2.22297,-4.27283 -5.47629,-9.42714 -7.22959,-11.45403 l -3.18783,-3.68524 -11,2.69957 c -10.7972,2.6498 -28.03451,8.44803 -36.0685,12.1326 -2.23767,1.02625 -5.57556,3.58236 -7.41753,5.68025 -2.27718,2.59356 -3.94326,3.65894 -5.20571,3.3288 -1.38117,-0.36119 -2.36789,0.51653 -3.85279,3.42718 -2.23596,4.38283 -3.64794,4.91826 -4.79474,1.81816 -0.60477,-1.63484 -1.4833,0.17583 -4.00285,8.25 -21.5075,68.92299 -32.19764,105.49298 -36.05607,123.34455 -3.37931,15.63485 -3.93935,17.18551 -7.1966,19.9263 -3.82324,3.21705 -10.41935,3.43083 -16.78189,0.54391 z m 16.34538,-1.348 c 2.61481,-2.61481 2.50085,-2.25223 8.99595,-28.62221 5.95167,-24.16365 32.37178,-112.9209 36.53863,-122.75 C 244.0817,590.70614 246,590.22604 246,592.5 c 0,2.66549 1.44891,1.60638 4.44613,-3.25 2.13431,-3.45821 3.03612,-4.27408 3.31604,-3 0.5903,2.68681 1.84823,2.11734 4.92298,-2.22865 1.54817,-2.18826 3.17704,-3.98826 3.61971,-4 0.44268,-0.0117 2.69268,-0.88111 5,-1.93193 12.53559,-5.70906 44.22248,-14.86851 47.32224,-13.67902 1.71679,0.65879 8.52824,11.11116 11.93871,18.3203 3.55354,7.51156 2.13439,9.09773 -10.52175,11.76003 -3.89835,0.82004 -8.82314,2.37624 -10.94398,3.45821 C 301.02703,600.02686 295,607.95777 295,611.23954 c 0,1.82285 0.11302,1.81617 2.90437,-0.17145 1.96822,-1.40149 4.46625,-2.07124 7.75,-2.07786 3.05385,-0.006 6.83348,-0.93514 10.22149,-2.51231 2.95673,-1.37639 9.19197,-3.60887 13.8561,-4.96104 7.7578,-2.24907 8.72459,-2.33215 11.34862,-0.97521 1.5776,0.81581 6.81736,2.55881 11.6439,3.87333 4.82653,1.31451 12.26015,4.0212 16.51914,6.01485 6.35212,2.97345 8.08806,4.29996 9.66037,7.38195 1.24613,2.44262 1.61475,4.29677 1.0536,5.2995 -1.11571,1.99366 -7.03404,4.49535 -13.8474,5.85332 -7.56587,1.50794 -11.66276,3.68264 -15.09017,8.0101 -3.03838,3.83627 -5.44196,8.93668 -4.60557,9.77306 0.25872,0.25872 1.80328,-0.47869 3.43235,-1.63869 1.95116,-1.38935 4.48776,-2.10909 7.43314,-2.10909 2.6124,0 6.85576,-1.05456 10.20706,-2.53667 3.15473,-1.39517 9.54312,-3.63997 14.19643,-4.98845 7.60886,-2.20496 8.73788,-2.30837 11.2152,-1.0273 1.51505,0.78346 6.81874,2.56715 11.78597,3.96374 4.96724,1.3966 11.90776,3.90003 15.42337,5.56319 4.37351,2.069 7.92224,3.02416 11.23774,3.0247 4.55875,7.4e-4 10.65429,2.41303 10.65429,4.2164 0,0.43141 0.45,0.78439 1,0.78439 1.85675,0 1.01671,-5.57379 -1.64508,-10.9153 -3.33361,-6.68968 -6.91275,-8.46031 -15.20517,-7.52213 C 420.24896,634.23017 413,632.29438 413,630.05103 c 0,-1.21954 0.46092,-1.24782 25.2816,-1.55128 10.32988,-0.12629 19.04148,-0.48949 19.35909,-0.80711 0.31762,-0.31762 -0.40148,-1.95232 -1.59799,-3.63268 -2.19106,-3.07705 -4.43896,-4.07088 -10.3356,-4.56951 -4.21896,-0.35676 -4.11724,-0.29134 -2.84203,-1.82787 0.84781,-1.02155 0.53748,-1.87523 -1.31398,-3.61458 -2.23869,-2.10314 -3.2478,-2.26511 -13.20419,-2.11933 -5.92915,0.0868 -13.59721,0.86543 -17.04015,1.73027 -6.87543,1.72705 -11.67091,1.25645 -14.80675,-1.45305 -4.07402,-3.52014 -14.43076,-15.9418 -13.8096,-16.56296 1.02758,-1.02758 2.48885,-0.74198 1.81147,0.35405 -0.38913,0.62962 0.41343,0.60552 2.17813,-0.0654 1.53687,-0.58431 6.51259,-1.32479 11.05715,-1.64551 4.54457,-0.32071 8.26285,-0.90559 8.26285,-1.29972 0,-2.05775 -4.5873,-6.06738 -7.98966,-6.98354 -2.13533,-0.57499 -4.2487,-0.98255 -4.69638,-0.90569 -0.44768,0.0769 -1.43156,0.0865 -2.1864,0.0213 -1.14969,-0.0992 -1.15495,-0.38049 -0.0324,-1.73304 1.1488,-1.38422 1.00777,-1.88364 -0.98834,-3.5 -2.34931,-1.90236 -8.77743,-2.58364 -19.13538,-2.02805 -3.63076,0.19474 -4.95925,-0.2155 -6.70072,-2.0692 -4.55292,-4.84637 -6.75568,-21.29826 -3.79907,-28.37443 2.30744,-5.52247 10.76155,-17.24118 28.07314,-38.9137 27.28554,-34.15901 40.46331,-54.19114 56.80624,-86.35376 21.84606,-42.99269 29.93054,-70.3587 32.68721,-110.64624 1.77312,-25.91353 -0.68472,-54.58983 -5.99169,-69.90655 C 470.92093,238.34485 470,234.20587 470,232.39572 c 0,-7.85461 9.76999,-28.45284 20.80432,-43.86211 l 4.02102,-5.61529 24.83733,-0.32884 c 21.65043,-0.28664 50.67926,-2.59807 52.24088,-4.1597 0.23609,-0.23608 -1.28483,-2.91801 -3.37981,-5.95983 -4.39381,-6.37962 -14.57117,-16.18268 -33.02374,-31.80923 l -13,-11.00903 -1.1181,-6.60897 C 518.51486,106.09606 506.80607,92.514344 489.5,86.061051 460.54203,75.262856 406.00198,80.572571 368.75843,97.815777 350.60682,106.2197 332.58431,120.40261 324.04914,133 c -2.04955,3.025 -6.72772,11.35 -10.39595,18.5 -7.53132,14.67982 -17.85564,31.44842 -24.88544,40.41856 -3.74969,4.78465 -6.24128,6.79228 -12,9.66914 -23.35845,11.6691 -48.20756,35.0731 -65.73513,61.9123 -7.07355,10.83141 -18.74368,34.58055 -23.89844,48.63418 -19.93479,54.34907 -30.3986,132.9605 -28.82579,216.5595 0.53157,28.25422 0.45034,30.34333 -1.2646,32.52352 -1.00796,1.28142 -3.51167,5.38444 -5.5638,9.11783 -3.43198,6.24371 -8.55193,11.20311 -63.855566,61.85309 -34.224871,31.34494 -60.950059,56.57522 -62.041091,58.57074 -1.979031,3.61969 -2.596967,12.56967 -1.173124,16.99114 0.688849,2.13909 1.227814,2.25 10.933413,2.25 18.990245,0 38.798302,-3.57929 50.369465,-9.1017 3.543869,-1.69133 6.617508,-2.90104 6.830309,-2.68824 0.212801,0.2128 -0.678399,3.06509 -1.980444,6.33843 -1.302045,3.27333 -2.675918,7.86401 -3.053051,10.20151 -0.833402,5.16549 -0.823892,5.16701 13.766629,2.19365 15.76911,-3.21354 34.31901,-11.17017 44.68808,-19.1681 l 2.46462,-1.90102 1.21937,7.23687 c 1.89496,11.2464 7.12913,20.7494 16.75334,30.41686 C 175.85897,743.02779 182.88827,747 190.2418,747 c 3.77259,0 5.37699,-0.52788 7.2269,-2.37779 z m -13.7061,-0.13596 c -5.57559,-2.04804 -11.75548,-6.63112 -17.92051,-13.2901 C 156.48555,721.08997 151,709.43788 151,699.66941 c 0,-4.97487 0.0707,-5.08611 8.32554,-13.09345 13.41842,-13.01618 25.58136,-30.77556 33.03981,-48.24217 4.48114,-10.49418 9.826,-27.17002 9.37001,-29.23421 -0.19434,-0.87977 -1.12071,1.10042 -2.05859,4.40042 -3.0849,10.85445 -7.83402,22.83366 -13.36927,33.72273 -16.39618,32.25493 -41.05961,54.43568 -71.90309,64.66514 -9.53294,3.16167 -23.919548,5.93033 -25.032459,4.81741 -1.33912,-1.33912 3.040163,-14.21849 8.535526,-25.1028 5.720483,-11.33019 15.995123,-28.03321 16.768503,-27.25983 0.23562,0.23562 -2.02511,4.19242 -5.02385,8.79289 C 100.8976,686.56617 90,709.82654 90,715.082 c 0,2.57903 20.8733,-2.31676 33.9931,-7.97302 23.9738,-10.33567 45.47791,-30.7935 59.50415,-56.60898 5.64646,-10.39239 10.82765,-23.0572 14.10058,-34.4672 2.52232,-8.79326 2.5535,-9.2081 0.8348,-11.10724 -1.1954,-1.32091 -2.01289,-1.60471 -2.47387,-0.85883 -0.72721,1.17664 -6.95502,-4.71362 -6.94304,-6.56673 0.004,-0.55 1.15908,0.4625 2.56785,2.25 2.88574,3.66155 4.09829,4.05325 4.64341,1.5 0.28642,-1.34157 0.77631,-0.99148 2.099,1.5 2.01924,3.80353 2.73176,3.98844 4.49421,1.16632 0.82678,-1.32389 1.8924,-1.85685 2.92237,-1.46161 1.05911,0.40641 2.38374,-0.33439 3.82102,-2.1369 1.96001,-2.45809 2.3882,-2.60271 3.92638,-1.32614 1.51969,1.26123 1.89316,1.20487 3.11825,-0.47055 C 217.3737,597.47426 218,596.25375 218,595.80887 218,595.36399 218.86628,595 219.92508,595 c 1.2217,0 2.77453,-1.52599 4.25,-4.17654 2.4483,-4.39819 4.82492,-6.07628 4.82492,-3.40679 0,2.16938 0.84048,1.98683 3.06939,-0.66667 1.46108,-1.7394 2.08559,-1.95435 2.75194,-0.94721 0.47407,0.71653 1.45588,1.16653 2.18179,1 0.7259,-0.16654 1.58467,0.73627 1.90835,2.00623 0.32369,1.26996 1.03548,2.39496 1.58174,2.5 1.31279,0.25243 1.75418,-1.35709 -9.65056,35.19098 -11.97271,38.3682 -23.64466,78.72614 -27.33042,94.5 -4.79341,20.51426 -5.26563,21.82112 -8.48666,23.48678 -3.52534,1.82302 -6.29887,1.82289 -11.26297,-5.3e-4 z M 195.43711,742.75 c 2.09198,-1.84686 3.09245,-4.69373 5.58375,-15.88876 1.66931,-7.50132 5.68586,-23.02632 8.92567,-34.5 4.95776,-17.55775 10.14996,-34.62582 29.06253,-95.53593 1.34198,-4.322 1.44936,-5.55472 0.45047,-5.17141 -0.84909,0.32583 -1.44319,-0.49405 -1.68496,-2.32531 -0.29528,-2.23663 -0.53818,-1.7822 -1.16062,2.17141 -1.17647,7.47255 -9.14644,37.83427 -14.28284,54.41068 -5.31967,17.16789 -12.14071,34.89547 -17.05716,44.33084 -7.53717,14.46491 -17.61304,18.6563 -28.56991,11.88458 -3.8011,-2.34921 -11.78291,-10.53644 -13.62172,-13.97229 -1.18199,-2.20856 -1.22013,-2.19581 -6.17121,2.06195 l -4.98188,4.28424 0.39478,6.65095 c 0.91033,15.33673 15.15945,34.72551 30.7014,41.77543 5.82695,2.64313 9.27344,2.59416 12.4117,-0.17638 z m -0.7911,-40.84024 c 4.69783,-2.90342 8.67263,-9.07053 14.29658,-22.1819 7.57456,-17.65892 23.34481,-67.77379 21.81013,-69.30847 -0.24646,-0.24646 -1.25383,2.59585 -2.23862,6.31625 -2.97754,11.24883 -17.06529,53.18149 -20.95934,62.38616 -7.96759,18.83363 -13.15169,24.36927 -22.14639,23.64813 -3.15559,-0.25299 -6.38764,-1.29667 -8.5,-2.74477 -1.87461,-1.28511 -2.73337,-1.61711 -1.90837,-0.73779 4.64447,4.95027 13.8839,6.18357 19.64601,2.62239 z m 1.36637,-4.72855 c 3.60008,-3.73502 5.82633,-7.61465 9.8986,-17.25 5.9665,-14.11725 15.76694,-43.15328 22.16345,-65.66426 2.61403,-9.19942 4.64423,-14.74465 5.12563,-14 0.43843,0.67818 0.53489,-0.34195 0.21435,-2.26695 -0.46043,-2.76511 -0.34139,-3.18505 0.5669,-2 0.94288,1.23015 1.038,1.10203 0.5288,-0.71223 -0.3415,-1.21672 -0.11475,-3.15799 0.50388,-4.31392 0.84115,-1.5717 0.82842,-2.4588 -0.0505,-3.51781 -0.99329,-1.19683 -1.46846,-1.0708 -3.06873,0.81393 -1.74819,2.05893 -1.99395,2.10113 -3.20322,0.54998 -1.17299,-1.50461 -1.56248,-1.21744 -3.72978,2.75 -1.33101,2.43653 -3.14088,4.43005 -4.02192,4.43005 -0.88105,0 -2.20399,1.125 -2.93987,2.5 -1.40912,2.63296 -4.52187,3.36975 -5.28097,1.25 -0.28438,-0.7941 -1.27628,-0.21748 -2.71962,1.58099 -1.44845,1.80483 -2.92413,2.66045 -4.07112,2.36051 -2.12166,-0.55483 -3.00455,1.21333 -3.39965,6.8085 -0.40282,5.70464 -5.80329,21.25115 -11.62731,33.47195 -5.74825,12.06179 -15.41293,26.93932 -22.96588,35.35302 l -5.22906,5.82497 6.3968,6.50044 c 7.66792,7.79214 11.91442,10.24645 17.83065,10.30542 4.01348,0.04 4.87419,-0.41265 9.07854,-4.77459 z M 201.26032,668.5 c 0.33393,-1.1 1.33358,-3.98165 2.22144,-6.40367 1.88843,-5.15154 1.50528,-6.81864 -1.67061,-7.26877 -2.22595,-0.31548 -2.29956,-0.62249 -1.99666,-8.32756 0.38203,-9.71816 2.64294,-21.33213 5.40806,-27.78043 2.32488,-5.42163 3.33866,-5.52461 2.34696,-0.23841 -0.42034,2.2406 -1.08252,3.31982 -1.77454,2.89212 -0.66878,-0.41333 -0.82068,-0.2239 -0.38533,0.48052 0.39527,0.63955 0.0442,4.64658 -0.78012,8.90451 -0.82433,4.25793 -1.78719,10.76209 -2.13968,14.45368 -0.63021,6.60015 -0.59797,6.72277 1.93464,7.35841 2.22909,0.55947 2.57552,1.18317 2.57552,4.63688 0,4.31064 -2.2266,9.91588 -4.76553,11.99672 -1.36374,1.11769 -1.49777,1.02084 -0.97415,-0.704 z m 4.42279,-8.6875 c -0.31922,-0.79773 -0.55618,-0.56078 -0.60416,0.60417 -0.0434,1.05416 0.19292,1.64479 0.52522,1.3125 0.33229,-0.33229 0.36781,-1.1948 0.0789,-1.91667 z M 202.75,653.31067 c -1.16173,-0.30359 -1.79578,-1.52518 -1.88618,-3.63399 -0.10608,-2.47446 -0.23409,-2.66323 -0.57908,-0.85395 -0.61607,3.23089 0.33001,5.19827 2.43388,5.06127 1.6695,-0.10872 1.67147,-0.14473 0.0314,-0.57333 z m -1.03242,-14.04692 c -0.22985,-1.52006 -0.42406,-0.51375 -0.43157,2.23625 -0.007,2.75 0.18056,3.99369 0.41792,2.76375 0.23736,-1.22994 0.24351,-3.47994 0.0136,-5 z m 0.9447,-6.51375 c -0.27741,-0.6875 -0.50439,-0.125 -0.50439,1.25 0,1.375 0.22698,1.9375 0.50439,1.25 0.27741,-0.6875 0.27741,-1.8125 0,-2.5 z m 1.02083,-4.9375 c -0.31922,-0.79773 -0.55618,-0.56078 -0.60416,0.60417 -0.0434,1.05416 0.19292,1.64479 0.52522,1.3125 0.33229,-0.33229 0.36781,-1.1948 0.0789,-1.91667 z M 173,697.67431 c 0,-0.17912 -1.2375,-1.41662 -2.75,-2.75 L 167.5,692.5 l 2.42431,2.75 C 172.1902,697.82029 173,698.45859 173,697.67431 Z m 58.68311,-90.86181 c -0.31922,-0.79773 -0.55618,-0.56078 -0.60416,0.60417 -0.0434,1.05416 0.19292,1.64479 0.52522,1.3125 0.33229,-0.33229 0.36781,-1.1948 0.0789,-1.91667 z M 25.630286,705.75 c -1.067638,-3.98388 -0.671621,-9.61083 0.948687,-13.47976 1.195974,-2.85573 15.492645,-16.50473 58.940353,-56.27024 31.548764,-28.875 57.950724,-52.62268 58.671024,-52.77261 0.98224,-0.20446 1.30965,1.50386 1.30965,6.83333 0,6.76194 0.1581,7.24715 3.26578,10.02261 5.71967,5.10824 14.89516,3.53719 29.59511,-5.06735 3.77349,-2.20879 7.02162,-4.01598 7.21806,-4.01598 0.19645,0 0.94365,1.11934 1.66046,2.48741 1.95713,3.73531 0.48006,20.92015 -2.75105,32.00709 -9.14786,31.38907 -33.84256,61.7314 -52.25081,64.20046 -5.19278,0.6965 -11.30547,-2.45076 -14.36044,-7.39381 -1.92039,-3.10725 -2.33799,-5.20592 -2.40235,-12.07331 -0.0559,-5.9608 0.31602,-8.63924 1.31462,-9.468 1.17532,-0.97544 1.26136,-0.38393 0.55157,3.79223 -2.50346,14.72965 2.7675,24.05767 13.48424,23.86302 21.52851,-0.39101 52.66577,-44.4334 55.6134,-78.6629 l 0.5384,-6.25219 -1.36486,7 c -4.56769,23.42645 -18.44889,48.77754 -35.3864,64.62581 -11.34204,10.61265 -20.49566,13.5961 -26.71205,8.70629 -9.32283,-7.33334 -7.04373,-21.99202 6.87078,-44.19133 10.68603,-17.04858 20.01413,-33.57551 19.33431,-34.25533 -0.29504,-0.29504 -2.23838,2.53503 -4.31853,6.28906 -10.25327,18.50395 -40.28908,64.98521 -43.05266,66.62519 -0.74117,0.43983 -1.36023,1.56483 -1.3757,2.5 -0.0155,0.93517 -1.47796,4.36823 -3.249996,7.62901 -2.698361,4.96535 -4.196823,6.46962 -9.221884,9.25761 -12.179834,6.75758 -29.397804,10.29772 -50.133369,10.30779 -11.73975,0.006 -12.152929,-0.0671 -12.736345,-2.2441 z m 31.273478,0.22724 c 11.112491,-1.44241 19.804732,-3.80598 27.632008,-7.51361 7.689862,-3.64254 8.816743,-4.66999 12.825685,-11.69401 2.137871,-3.74574 2.347096,-4.59501 1.005153,-4.08006 -1.108696,0.42545 -1.455982,0.26406 -1.004337,-0.46671 0.379699,-0.61437 -2.691565,0.44551 -6.825032,2.35529 -14.544758,6.7201 -27.240399,7.90675 -36.125901,3.37666 -2.076202,-1.05851 -3.961716,-1.73776 -4.190031,-1.50944 -0.779834,0.77983 7.703306,4.55958 12.581287,5.60572 6.491143,1.39211 17.113595,-0.81536 26.532158,-5.51368 3.866192,-1.9286 7.218032,-3.31795 7.448534,-3.08745 0.638677,0.63868 -10.635015,6.06809 -16.283288,7.84203 -7.916248,2.48624 -12.997407,2.95415 -18.861043,1.73687 -6.799023,-1.41147 -13.568596,-5.81303 -17.064032,-11.09499 l -2.676199,-4.04401 -6.045988,5.23773 c -3.325294,2.88075 -6.698076,6.23293 -7.49507,7.4493 -1.923615,2.93581 -2.757072,8.48058 -1.934129,12.86724 L 27.090626,707 38.295313,706.9691 c 6.162578,-0.017 14.536381,-0.46333 18.608451,-0.99188 z m 24.238571,-18.85561 c 2.946716,-1.0146 8.99377,-3.67364 13.437899,-5.90898 l 8.080236,-4.06426 15.03123,-22.82419 c 14.92496,-22.66282 22.96932,-35.77493 27.816,-45.33939 2.39372,-4.72378 5.4923,-6.70461 5.4923,-3.51106 0,1.7621 -12.83632,24.31034 -21.20639,37.25106 -7.07466,10.93793 -9.69096,17.37008 -10.47337,25.74869 -1.32905,14.23252 8.21113,20.63629 20.17976,13.54549 8.35818,-4.95179 8.63919,-5.29634 7.93113,-9.72432 -0.37849,-2.36694 0.18838,-8.50268 1.41977,-15.36739 1.1274,-6.285 2.59286,-14.57728 3.25658,-18.42728 0.66372,-3.85 1.83298,-8.35 2.59836,-10 1.28104,-2.76168 1.33232,-2.44392 0.64552,4 -0.41034,3.85 -0.85868,9.475 -0.99631,12.5 -0.13763,3.025 -1.14788,8.65 -2.245,12.5 -1.09712,3.85 -2.0207,9.21594 -2.0524,11.92431 l -0.0576,4.92432 2.58343,-2.42432 c 9.59172,-9.00093 22.40601,-30.58336 27.75706,-46.74971 3.7997,-11.4795 7.0897,-30.05654 5.59708,-31.60406 -0.54673,-0.56683 -2.75768,0.13914 -5.66703,1.80953 -9.07139,5.2083 -15.79265,7.83908 -21.33428,8.35048 C 148.87483,604.65906 144,600.02501 144,589.532 v -5.56733 l -49.75,45.62739 c -38.14816,34.98696 -49.773591,46.18897 -49.851159,48.03549 -0.05564,1.32446 0.127958,2.17898 0.40799,1.89895 C 45.488442,678.84489 48,680.98301 48,682.24489 c 0,0.55783 -0.66326,0.44954 -1.5,-0.24489 -2.629367,-2.18218 -1.609016,-0.4458 1.219739,2.07569 1.495856,1.33337 2.115756,1.63681 1.377555,0.67431 -0.814129,-1.0615 -0.9238,-1.75 -0.278756,-1.75 0.584886,0 1.343521,0.4532 1.685857,1.00711 0.835396,1.3517 6.289115,4.14216 9.995605,5.11438 4.299997,1.12788 14.400376,0.14935 20.642335,-1.99986 z m 19.902405,-15.28984 c -0.0246,-0.91752 -0.34621,-2.45384 -0.71468,-3.41405 -0.372638,-0.97108 -0.2617,-1.49522 0.25,-1.18111 0.50597,0.31059 0.95541,-1.00656 0.99876,-2.927 0.10311,-4.56764 9.2659,-22.529 11.67118,-22.87843 0.9625,-0.13983 1.75,-0.11985 1.75,0.0444 0,0.16425 -2.09031,4.22801 -4.64514,9.03059 -2.55483,4.80258 -5.6847,11.94088 -6.95526,15.86289 -1.27057,3.922 -2.33025,6.38022 -2.35486,5.46271 z M 104.96937,658.5 c 0,-0.55 -0.43621,-0.325 -0.96937,0.5 -0.53316,0.825 -0.96937,1.95 -0.96937,2.5 0,0.55 0.43621,0.325 0.96937,-0.5 0.53316,-0.825 0.96937,-1.95 0.96937,-2.5 z M 111.5,646 c 0.85325,-1.65 1.32636,-3 1.05136,-3 -0.275,0 -1.19811,1.35 -2.05136,3 -0.85325,1.65 -1.32636,3 -1.05136,3 0.275,0 1.19811,-1.35 2.05136,-3 z m 1.51531,-5.83848 c 0.0338,-1.45966 1.91595,-3.53416 3.40472,-3.75266 1.78434,-0.26189 1.96313,0.43728 0.64463,2.52077 -0.92666,1.46428 -4.07691,2.42265 -4.04935,1.23189 z m 3.30308,-5.4917 c 0.23739,-0.6434 0.92167,-1.06272 1.52062,-0.93182 0.59896,0.13091 0.86695,-0.34069 0.59553,-1.04799 -0.27142,-0.7073 0.64478,-2.35535 2.03599,-3.66232 3.01429,-2.83179 3.29169,-1.3294 0.57835,3.13233 -1.83418,3.01607 -5.66768,5.04997 -4.73049,2.5098 z m 32.38887,33.09184 c -0.23919,-1.24391 -0.44398,-0.46166 -0.45508,1.73834 -0.0111,2.2 0.18461,3.21775 0.4349,2.26166 0.25029,-0.95609 0.25937,-2.75609 0.0202,-4 z m 0.95502,-8.01166 c -0.27741,-0.6875 -0.50439,-0.125 -0.50439,1.25 0,1.375 0.22698,1.9375 0.50439,1.25 0.27741,-0.6875 0.27741,-1.8125 0,-2.5 z m 1.02083,-3.9375 c -0.31922,-0.79773 -0.55618,-0.56078 -0.60416,0.60417 -0.0434,1.05416 0.19292,1.64479 0.52522,1.3125 0.33229,-0.33229 0.36781,-1.1948 0.0789,-1.91667 z m 2.3049,-11.37529 c -0.67845,-3.52394 -0.77124,-3.62231 -0.88402,-0.93721 -0.0693,1.65 -0.36939,4.8 -0.66686,7 l -0.54086,4 1.42487,-3.06279 c 0.98164,-2.11003 1.18908,-4.28757 0.66687,-7 z m 0.6951,-7.62471 c -0.31922,-0.79773 -0.55618,-0.56078 -0.60416,0.60417 -0.0434,1.05416 0.19292,1.64479 0.52522,1.3125 0.33229,-0.33229 0.36781,-1.1948 0.0789,-1.91667 z M 438.25,646.77951 c -2.54377,-1.22682 -2.94584,-3.95712 -0.8401,-5.70474 1.11846,-0.92823 1.73861,-0.70083 3,1.10006 1.64403,2.34718 2.15901,5.87651 0.8401,5.75749 -0.4125,-0.0372 -1.7625,-0.55599 -3,-1.15281 z m 1.54573,-3.3285 c -1.01478,-2.2272 -1.27924,-2.3384 -2.0949,-0.88091 -0.64666,1.15551 -0.51366,1.93405 0.43284,2.53367 2.3551,1.49201 2.86423,0.98573 1.66206,-1.65276 z M 425.5,644.59785 c -2.2,-0.69759 -5.86558,-2.2277 -8.14574,-3.40023 -2.28015,-1.17254 -7.62275,-3.06366 -11.87243,-4.20249 -14.96448,-4.01019 -18.85914,-6.81154 -24.16447,-17.38103 -7.37563,-14.69404 -16.07052,-25.10103 -32.02202,-38.32746 C 344.19725,577.05948 340,570.24871 340,566.20333 c 0,-1.56609 0.76095,-2.31283 2.75,-2.69864 1.5125,-0.29337 4.775,-1.23064 7.25,-2.08282 7.14555,-2.46031 7.18225,-2.44485 8.49366,3.57813 0.65865,3.025 1.6815,6.625 2.273,8 1.78681,4.15361 34.9768,41.32495 38.5233,43.14442 5.71425,2.93158 15.07771,4.0427 28.09726,3.33417 13.29343,-0.72343 14.95903,-0.23783 16.15072,4.70871 0.5889,2.44446 0.33889,2.74518 -2.76659,3.32777 -1.87769,0.35226 -5.76263,0.21359 -8.63319,-0.30815 -3.3146,-0.60245 -8.53095,-0.59493 -14.29447,0.0206 l -9.07527,0.96921 -4.88421,-4.81077 C 401.1979,620.74003 399,619.05549 399,619.64253 c 0,1.76472 10.33624,10.9782 14.96542,13.33983 3.45383,1.76201 5.94236,2.1883 12.42663,2.12872 10.84515,-0.0996 11.68151,0.4995 8.84556,6.33675 -2.40325,4.94662 -3.22914,5.21378 -9.73761,3.15002 z m 8.56287,-3.19957 c 2.90126,-4.69435 1.82814,-5.37709 -8.3031,-5.2826 -6.12387,0.0571 -8.7342,-0.40695 -12.5,-2.22226 -6.33274,-3.05271 -15.59653,-12.25704 -14.81488,-14.71979 0.39144,-1.23331 -0.15306,-2.24175 -1.68313,-3.11724 -1.24397,-0.71178 -9.85442,-10.04704 -19.13433,-20.74501 C 360.47746,575.54074 357,570.09174 357,562.98927 c 0,-3.32366 -0.61483,-3.59583 -3.38503,-1.49849 -1.03676,0.78494 -3.77481,1.71056 -6.08455,2.05693 -6.336,0.95014 -6.97016,1.58985 -5.62288,5.67214 1.73561,5.25894 5.0556,9.17668 13.25587,15.6425 11.08667,8.74173 22.55456,23.35999 27.71487,35.32849 3.61643,8.38772 8.81654,11.88542 24.12172,16.22479 5.225,1.48141 10.61557,3.42183 11.97905,4.31205 2.41637,1.57766 9.34787,4.07137 11.68939,4.20542 0.64264,0.0368 2.17014,-1.55387 3.39443,-3.53482 z M 418.89202,626.02 c 5.62007,-0.64613 9.91408,-0.62303 13,0.0699 4.88556,1.09708 11.10798,0.46115 11.10798,-1.13524 0,-0.52508 -0.93439,-1.88908 -2.07643,-3.03112 -1.96146,-1.96146 -2.80584,-2.04192 -15.25,-1.45328 -9.75085,0.46125 -14.65961,0.25723 -18.89315,-0.78522 l -5.71957,-1.40836 2.02487,2.84367 c 1.88869,2.65243 5.68496,5.88932 6.88679,5.87203 0.29012,-0.004 4.3039,-0.44176 8.91951,-0.97241 z M 350,641.73518 C 350,640.26535 351.94076,638 353.2,638 c 1.62443,0 0.73512,2.96436 -1.2,4 -1.53583,0.82195 -2,0.76049 -2,-0.26482 z M 353,640 c 0,-0.55 -0.19844,-1 -0.44098,-1 -0.24254,0 -0.7191,0.45 -1.05902,1 -0.33992,0.55 -0.14148,1 0.44098,1 0.58246,0 1.05902,-0.45 1.05902,-1 z m 3.03518,0.0657 c -2.83024,-5.28835 0.0727,-7.58645 13.33228,-10.55431 3.77711,-0.84542 8.12358,-2.27914 9.65883,-3.18603 2.72512,-1.60977 2.85213,-1.57979 5.35094,1.26285 1.40776,1.60146 2.57379,3.38918 2.59117,3.9727 0.0174,0.58352 -2.3309,1.65006 -5.2184,2.37008 -2.8875,0.72001 -8.96777,2.83009 -13.51171,4.68905 -9.57857,3.91866 -10.80203,4.0636 -12.20311,1.44566 z m 9.79426,-1.74658 c 3.66881,-1.47446 9.67,-3.61196 13.33598,-4.75 l 6.66543,-2.06916 -2.25267,-2.8123 -2.25267,-2.81231 -3.41275,1.95326 c -1.87702,1.07429 -6.83697,2.69395 -11.02212,3.59923 -9.47926,2.05044 -11.2647,3.23358 -10.35419,6.86132 0.3742,1.49094 1.11733,2.7108 1.6514,2.7108 0.53407,0 3.97279,-1.20638 7.64159,-2.68084 z m 79.77755,-13.90095 C 444.58841,621.76385 444.9108,621 447.04966,621 c 2.57082,0 7.95034,2.72394 7.95034,4.02568 0,1.72411 -8.71457,1.16052 -9.39301,-0.60747 z m 5.95188,-0.95001 C 449.45752,621.87881 446,621.48394 446,622.83333 c 0,1.53399 1.30941,2.16692 4.41667,2.13487 2.9275,-0.0302 2.98523,-0.10601 1.1422,-1.5 z m -38.37201,-5.27878 c -5.90227,-0.42502 -4.93607,-2.39218 1.88754,-3.84299 9.57099,-2.03496 17.9256,-1.47151 17.9256,1.20893 0,1.75515 -11.24947,3.25071 -19.81314,2.63406 z m 18.43689,-2.47983 c 1.41519,-1.4152 -7.1589,-1.79405 -13.81498,-0.61043 -6.52898,1.16102 -6.93535,1.35844 -3.80877,1.85041 3.81781,0.60073 16.68861,-0.30484 17.62375,-1.23998 z m 4.62625,0.62813 C 434.33984,615.56695 434.76283,613 436.8,613 c 1.85479,0 4.2,1.78682 4.2,3.2 0,0.8685 -2.74193,0.94799 -4.75,0.13772 z M 439,615 c -1.95837,-1.2656 -3.28218,-1.2656 -2.5,0 0.33992,0.55 1.37898,0.99311 2.30902,0.98469 C 440.26629,615.97149 440.29269,615.8354 439,615 Z m -73,-7.43086 c -2.475,-1.28575 -8.1,-3.34227 -12.5,-4.57004 -15.31598,-4.27373 -19.35899,-7.35533 -24.50177,-18.67536 -1.54326,-3.39695 -4.83923,-9.31942 -7.32437,-13.16105 -2.48514,-3.84163 -4.2534,-7.24981 -3.92948,-7.57374 C 318.0683,563.26503 320.72384,563 323.64558,563 h 5.31224 l 8.68973,10 c 4.77935,5.5 9.24759,10 9.92942,10 1.56826,0 12.42303,8.78562 12.42303,10.05494 0,2.38319 -4.12639,0.53161 -7.87264,-3.5326 C 349.85731,587.05963 348,585.64436 348,586.37729 348,589.53012 362.4323,601 366.39945,601 c 1.30448,0 4.84044,3.90809 7.01204,7.75 1.12184,1.98472 -2.39724,1.42403 -7.41149,-1.18086 z m 4.14567,-1.80805 c -1.2706,-2.00677 -3.27803,-3.55694 -5.27688,-4.0749 -1.77438,-0.45978 -5.14228,-2.15431 -7.48423,-3.76562 -4.48173,-3.08351 -11.63496,-11.11148 -11.19687,-12.56607 0.14155,-0.46998 -1.08027,-2.22414 -2.71516,-3.89815 -1.63489,-1.67401 -5.61863,-6.28651 -8.85274,-10.25 C 328.78534,564.05608 328.70167,564 323.86979,564 321.1914,564 319,564.25642 319,564.56982 c 0,0.31341 1.29108,2.45091 2.86907,4.75 1.57798,2.2991 4.77456,8.00518 7.10349,12.68018 6.72112,13.49167 10.22772,16.27643 25.23504,20.04037 4.63888,1.16347 10.20239,3.16293 12.36336,4.44325 5.36059,3.17601 5.96566,3.05372 3.57471,-0.72253 z M 358.45,592.23502 c -0.5225,-0.42074 -2.24857,-1.88324 -3.83572,-3.25 -2.74494,-2.36379 -2.82971,-2.37735 -1.73773,-0.27785 0.63139,1.21395 1.92996,2.66276 2.88571,3.21959 2.07536,1.20912 4.094,1.44064 2.68774,0.30826 z M 298,607.67856 C 298,606.31278 299.94463,604 301.09301,604 c 1.96843,0 1.4662,2.87981 -0.67215,3.85411 C 298.54686,608.70796 298,608.6683 298,607.67856 Z m 5.97525,-2.24366 C 303.43886,604.0241 303,602.25643 303,601.50675 c 0,-1.5709 8.40653,-4.93011 15,-5.99393 2.475,-0.39933 6.19468,-1.66497 8.26596,-2.81254 l 3.76596,-2.0865 2.90179,3.44311 c 1.59599,1.89371 2.60131,3.70454 2.23404,4.02407 -0.36726,0.31952 -3.59275,1.41938 -7.16775,2.44411 -3.575,1.02474 -9.51283,3.12581 -13.19519,4.66905 -8.24697,3.45622 -9.59565,3.4862 -10.82956,0.24078 z m 11.21608,-1.56719 c 2.03022,-1.01667 7.31627,-2.89502 11.74676,-4.17411 l 8.05545,-2.32561 -2.78999,-2.67298 c -2.56201,-2.45455 -2.96294,-2.55184 -4.90646,-1.19055 -1.16405,0.81534 -5.1946,2.17131 -8.95678,3.01327 C 310.56355,598.25814 304,600.86697 304,602.21762 c 0,0.50262 0.468,1.78833 1.04001,2.85713 1.18886,2.22142 3.96377,1.89147 10.15132,-1.20704 z M 198.94558,600.25 c -2.19384,-6.00353 -2.09126,-5.89148 -3.20416,-3.5 -0.57587,1.2375 -1.54078,2.2492 -2.14423,2.24821 -0.98134,-0.002 -6.59719,-7.88646 -6.59719,-9.2627 0,-0.30512 3.04199,-2.55885 6.75998,-5.00827 C 200.23836,580.45927 208,573.01425 208,571.06813 c 0,-0.50936 8.6625,-6.88746 19.25,-14.17355 25.06923,-17.25212 47.29162,-33.21922 67.75,-48.67934 9.075,-6.85786 17.1262,-12.70936 17.89155,-13.00334 1.11243,-0.4273 1.24612,0.2407 0.66651,3.33028 C 312.59383,503.682 309.29873,510 307.58233,510 c -0.91768,0 -1.76774,2.25165 -2.54831,6.75 -1.28482,7.40426 -4.34041,15.25 -5.93925,15.25 -0.55972,0 -1.51181,1.9125 -2.11575,4.25 -1.88694,7.30333 -2.03246,7.61364 -3.72306,7.93922 -1.07923,0.20784 -2.02543,2.04634 -2.73507,5.31428 -0.8238,3.7937 -1.50781,4.96152 -2.8414,4.8512 -1.204,-0.0996 -2.69236,1.70882 -4.73234,5.75 -2.76726,5.4819 -3.21821,5.8953 -6.43082,5.8953 -3.0946,0 -3.82176,0.57354 -6.97318,5.5 -3.24558,5.07366 -4.28306,5.9047 -7.04315,5.64167 -0.55,-0.0524 -2.03238,1.49328 -3.29418,3.43488 -1.69712,2.61147 -2.78173,3.37544 -4.16764,2.93557 -1.36317,-0.43266 -2.62931,0.39634 -4.64841,3.04351 -2.39403,3.13874 -2.93171,3.4237 -3.91715,2.07604 -0.73851,-1.00997 -1.48531,-1.21898 -2.11293,-0.59136 C 243.41774,588.98226 239,585.82596 239,584.21104 c 0,-0.94862 -5.18121,-0.88304 -6.70401,0.0849 -0.66221,0.4209 -2.31954,0.4853 -3.68296,0.1431 -2.13971,-0.53703 -2.75951,-0.0722 -4.52921,3.3967 -1.12766,2.21038 -2.9583,4.30707 -4.06811,4.6593 -1.10981,0.35224 -2.49865,1.53885 -3.0863,2.6369 -0.82407,1.53978 -1.7054,1.85657 -3.85289,1.3849 -2.26351,-0.49715 -3.10487,-0.12248 -4.49737,2.00273 -1.42458,2.1742 -1.96704,2.40343 -3.22227,1.36168 -1.22055,-1.01297 -1.68312,-0.97794 -2.41778,0.18308 -0.49966,0.78964 -0.91537,1.7732 -0.92379,2.1857 -0.0381,1.8644 -2.16364,0.47954 -3.06973,-2 z M 202.5,599 c 0.69731,-2.19703 2.0133,-2.59651 3.04648,-0.92479 0.42608,0.68941 1.50645,0.28424 3.01099,-1.1292 1.49245,-1.40208 3.09629,-2.00831 4.40664,-1.66565 2.10015,0.5492 7.25483,-3.87614 11.3775,-9.7677 1.13197,-1.61765 2.67333,-2.56618 4,-2.46153 1.18712,0.0936 2.38339,0.0624 2.65839,-0.0695 0.275,-0.13188 2.39504,-0.36616 4.7112,-0.52061 3.4114,-0.22748 4.32634,0.0819 4.81739,1.6291 0.60985,1.92145 1.4971,2.29019 4.72141,1.96221 1.08283,-0.11015 1.75,0.50631 1.75,1.61698 0,1.20693 0.84973,0.5445 2.59373,-2.02203 2.01647,-2.9675 3.07363,-3.6971 4.75,-3.27822 1.66513,0.41608 2.6832,-0.26674 4.46965,-2.99778 1.42105,-2.17243 2.85636,-3.32822 3.72106,-2.99641 1.62431,0.62331 3.91431,-1.40817 5.88649,-5.22194 2.03604,-3.93727 5.21248,-6.43794 8.32245,-6.55189 2.21287,-0.0811 3.15782,-0.93617 4.79054,-4.33493 2.25304,-4.69005 3.99667,-6.76608 5.68275,-6.76608 1.08194,0 1.98863,-2.17227 3.18492,-7.63051 0.31709,-1.44678 1.43263,-2.85438 2.47896,-3.128 1.34474,-0.35166 2.11101,-1.77915 2.61395,-4.86949 0.39133,-2.4046 1.75272,-5.497 3.0253,-6.872 2.21687,-2.39528 4.63006,-9.38084 5.92549,-17.15272 0.38024,-2.28126 1.49569,-4.23382 2.97087,-5.20039 1.99238,-1.30546 5.58384,-8.94734 5.58384,-11.88127 0,-0.48295 -6.4125,4.01383 -14.25,9.99285 -20.20792,15.41609 -40.14267,29.81233 -65.37901,47.21464 -16.56176,11.42055 -22.8489,16.34946 -25.89941,20.30427 -2.28019,2.95614 -7.1624,7.29654 -11.25,10.00152 -3.97187,2.62839 -7.22158,5.27527 -7.22158,5.88196 0,0.60669 0.98343,2.6943 2.18541,4.63914 2.10658,3.40853 2.2203,3.45787 3.15281,1.36803 1.42106,-3.18471 3.35926,-2.64664 4.79794,1.33197 1.43327,3.96363 2.4395,4.41233 3.36384,1.5 z m -50.24368,1.9942 c -4.01613,-1.65586 -6.44137,-6.83554 -5.90431,-12.61007 C 147.03831,581.00488 155.70062,563 158.56453,563 c 0.75005,0 1.37851,3.95661 1.83122,11.52899 0.3791,6.34095 0.95615,12.22446 1.28233,13.07448 0.49132,1.28037 2.37017,1.5013 10.95294,1.28795 5.92605,-0.14731 10.36183,0.14181 10.36443,0.67553 0.002,0.51318 -0.44545,0.88805 -0.99545,0.83305 -0.55,-0.055 -5.25917,-0.1675 -10.46482,-0.25 -8.16422,-0.12939 -9.60369,-0.4095 -10.47547,-2.03843 -0.55586,-1.03864 -1.31825,-6.95289 -1.6942,-13.14278 -0.7879,-12.97268 -0.88302,-12.96777 -7.42568,0.38325 -4.80738,9.80999 -5.73502,15.16996 -3.45647,19.97165 3.28603,6.9248 10.75014,6.81847 24.4265,-0.34796 8.29739,-4.34784 10.83915,-4.67106 3.66354,-0.46588 -9.23173,5.41016 -19.9745,8.2748 -24.31708,6.48435 z m 209.23951,-3.37359 c -1.35367,-0.98983 -1.49011,-1.50611 -0.55136,-2.08629 0.70834,-0.43778 1.89571,-0.12272 2.74745,0.72903 1.9611,1.9611 0.15568,3.07692 -2.19609,1.35726 z M 380.5,593.04597 c -1.1,-0.45499 -3.11321,-2.02517 -4.4738,-3.48928 -2.08205,-2.24048 -2.2404,-2.80962 -1,-3.59405 1.6641,-1.05236 10.96042,-1.28874 13.429,-0.34146 1.97248,0.75691 4.85724,6.06426 4.02665,7.40819 -0.7214,1.16725 -9.17168,1.17897 -11.98185,0.0166 z M 391,591.5 c 0,-3.16585 -3.79447,-5.5 -8.94098,-5.5 -5.4872,0 -6.48494,0.69704 -4.62962,3.23433 C 380.02504,592.78409 391,594.6164 391,591.5 Z m 7.00874,0.75861 c -3.52819,-0.42577 -4.96546,-1.61724 -4.99343,-4.13945 -0.0182,-1.64415 6.28861,-0.94174 8.57392,0.95489 1.47071,1.22059 1.9662,4.04447 0.66077,3.76591 -0.4125,-0.088 -2.32107,-0.34963 -4.24126,-0.58135 z m 1.55013,-2.79041 C 397.45752,587.87881 394,587.48394 394,588.83333 c 0,1.53399 1.30941,2.16692 4.41667,2.13487 2.9275,-0.0302 2.98523,-0.10601 1.1422,-1.5 z m -234.72284,-2.07617 c -2.01487,-0.61215 -2.47684,-3.82176 -3.87064,-26.89203 -1.08056,-17.88544 -1.21857,-87.91348 -0.17532,-88.95674 0.33458,-0.33458 0.49809,-2.50618 0.36335,-4.82579 -0.31914,-5.49404 2.3394,-36.02389 4.85186,-55.71747 7.85324,-61.55642 22.16447,-107.81325 44.55457,-144.00954 29.00254,-46.88607 74.25483,-76.93194 112.57685,-74.74692 10.24962,0.58441 11.12973,-0.67456 1.13549,-1.62429 -7.45031,-0.70799 -22.89542,1.25284 -30.14792,3.82741 -2.40665,0.85434 -4.54415,1.55334 -4.75,1.55334 -1.22897,0 0.18279,-2.75035 4.2333,-8.24719 5.76723,-7.82657 15.1778,-23.6276 23.37767,-39.25281 8.13788,-15.50709 10.28929,-18.54731 19.15764,-27.07216 19.19314,-18.44975 47.0059,-30.812011 83.40007,-37.069804 7.34366,-1.262705 15.73131,-1.711866 31.95705,-1.711305 19.29073,6.67e-4 22.94129,0.260372 29.64353,2.108872 16.52121,4.556608 28.18375,13.178477 34.26278,25.329757 3.27039,6.53712 5.52936,15.3123 4.26682,16.57484 -0.31229,0.31229 -1.80761,-0.40742 -3.32292,-1.59937 l -2.75512,-2.16718 -1.2264,5.80318 c -0.67452,3.19174 -2.4325,9.17817 -3.90662,13.30317 -1.47412,4.125 -3.99262,11.325 -5.59666,16 -1.60403,4.675 -4.99412,11.62861 -7.53352,15.45247 -2.72737,4.10689 -4.14944,7.10835 -3.47449,7.33333 1.83436,0.61145 1.48255,1.37068 -5.41685,11.68968 -7.46169,11.15998 -12.15563,20.11695 -15.47246,29.52452 -1.26044,3.575 -2.60868,6.86729 -2.99609,7.31619 -0.38741,0.4489 -1.95652,-1.32043 -3.48691,-3.93185 C 461.60059,220.46232 453.58008,212 451.79953,212 c -0.55931,0 1.51173,2.52865 4.6023,5.61923 13.60032,13.60031 20.61655,39.43408 20.58785,75.80445 -0.0369,46.76336 -8.34978,79.26911 -32.49796,127.07632 -17.19447,34.04065 -29.8497,53.25628 -58.94387,89.5 -19.09435,23.78657 -24.39612,31.57043 -27.24173,39.99534 -3.58137,10.60327 -7.05113,12.10517 -27.45854,11.88555 -7.34117,-0.079 -15.14758,0.18675 -17.34758,0.59057 -8.78566,1.61265 -24.05795,5.75712 -33.0247,8.96196 -5.20835,1.86153 -9.67266,3.05626 -9.92069,2.65494 -0.24803,-0.40132 0.43563,-2.18755 1.51925,-3.96941 1.48242,-2.43766 2.45055,-3.08728 3.9104,-2.62395 2.98813,0.9484 5.55997,-0.99397 7.89582,-5.96326 C 285.05167,559.03928 286.65742,557 287.44842,557 289.42748,557 292,553.08043 292,550.06506 c 0,-1.44789 1.04798,-3.34266 2.50411,-4.5275 1.67597,-1.36371 2.79542,-3.63334 3.38496,-6.86283 0.55814,-3.05749 1.65044,-5.36432 2.98151,-6.29663 2.03817,-1.42759 4.28562,-7.64152 5.73616,-15.85978 0.39518,-2.239 1.84683,-5.12574 3.31674,-6.59564 2.31565,-2.31566 4.73327,-8.30516 6.44061,-15.95625 0.37936,-1.69997 4.38223,-5.58869 12.1661,-11.81912 39.99277,-32.01138 73.13664,-63.75035 90.48271,-86.64731 17.95568,-23.70165 30.41102,-50.26721 36.15882,-77.12189 2.01066,-9.39414 2.31702,-13.53826 2.24573,-30.37811 -0.0656,-15.50263 -0.4215,-20.42247 -1.73604,-24 l -1.65349,-4.5 0.54867,4.5 c 0.30177,2.475 1.00436,8.325 1.56131,13 1.66682,13.99106 -0.56123,36.30387 -5.24239,52.5 -6.75778,23.38095 -20.43425,49.50895 -36.33787,69.42112 -8.33442,10.43514 -23.08114,26.08868 -35.60091,37.79011 -15.17499,14.1831 -32.95041,29.62842 -33.48406,29.09477 -0.2334,-0.2334 5.19189,-5.26989 12.0562,-11.19219 40.91756,-35.30232 65.63628,-64.4807 80.45208,-94.96694 7.50056,-15.4338 11.39006,-26.69453 14.6953,-42.54532 2.23172,-10.70253 2.61725,-15.0127 2.55835,-28.60155 -0.0468,-10.79015 -0.56346,-17.95369 -1.58681,-22 -1.63705,-6.4729 -0.70901,-9.61919 1.8252,-6.18788 4.4608,6.03993 4.57158,41.96949 0.18726,60.73607 -3.61602,15.47792 -6.98253,24.78718 -14.62861,40.45181 -12.26617,25.12985 -23.46546,40.04135 -49.97945,66.54602 -18.93646,18.92981 -34.74542,33.0672 -58.13521,51.98825 -13.3822,10.82546 -14.96151,12.43396 -15.94599,16.24061 -1.96947,7.61534 -4.14799,12.54277 -6.53815,14.78821 -1.48046,1.39083 -2.60401,3.91729 -3.03418,6.82281 -0.96451,6.51462 -2.98714,11.83633 -5.74381,15.11244 -1.30326,1.54883 -2.66902,4.68883 -3.03504,6.97777 -0.4023,2.51582 -1.64516,5.06965 -3.14265,6.45747 C 294.11472,547.69625 293,549.48759 293,550.41433 293,553.40126 290.01895,558 288.08273,558 c -1.14049,0 -2.10234,0.94198 -2.47403,2.42293 -1.06676,4.25031 -5.62873,8.80639 -8.30543,8.29471 -1.61759,-0.30922 -2.83406,0.20208 -3.81592,1.60388 -0.79274,1.1318 -1.30583,2.19334 -1.14019,2.35897 0.16563,0.16564 5.60726,-1.48146 12.0925,-3.66022 19.25996,-6.4705 28.79077,-8.16885 47.06034,-8.38599 19.31393,-0.22954 22.81518,-1.37732 24.61735,-8.07007 2.46613,-9.15851 7.99645,-17.61511 26.85458,-41.06421 31.14865,-38.73173 43.55188,-57.56854 61.56568,-93.5 22.14306,-44.16792 29.64677,-72.03519 31.10025,-115.5 1.39273,-41.64827 -5.0657,-68.9142 -19.85666,-83.83 -3.17966,-3.2065 -5.7812,-6.244 -5.7812,-6.75 0,-3.76376 9.15276,3.4159 14.52581,11.39443 l 3.26127,4.8427 1.71796,-5.32857 c 2.61649,-8.11552 9.91509,-22.16661 16.45658,-31.68184 4.74318,-6.8994 5.61118,-8.74809 4.50564,-9.59622 -1.10964,-0.85126 -0.45415,-2.40426 3.45613,-8.18829 2.65402,-3.92578 5.51798,-9.10078 6.36437,-11.5 0.84639,-2.39921 3.37947,-9.44487 5.62908,-15.65702 2.2496,-6.21214 4.64123,-14.19964 5.31473,-17.75 1.22858,-6.4765 2.45132,-7.74713 4.76843,-4.95519 4.2224,5.08767 3.49655,-2.72087 -1.14619,-12.3306 C 508.93586,98.920188 497.55549,90.554175 480.34195,85.79882 468.97538,82.658728 436.22037,82.643915 418,85.770627 c -32.62485,5.598596 -59.59217,17.192853 -78.5753,33.782453 -8.71445,7.61567 -13.54721,14.35712 -22.46337,31.33518 -8.01673,15.26538 -15.99869,28.67768 -22.35381,37.56171 -1.94751,2.72248 -3.44145,5.04943 -3.31988,5.171 0.12157,0.12157 3.62208,-0.58925 7.77892,-1.57962 14.41798,-3.43506 33.43344,-3.50613 33.43344,-0.12494 0,1.14275 -2.60822,1.45229 -13.5,1.60218 -11.43859,0.15741 -14.86256,0.59709 -22.42332,2.87944 -4.90783,1.48152 -10.08283,3.29087 -11.5,4.02078 -1.41718,0.72992 -4.37668,2.10275 -6.57668,3.05074 -6.39439,2.75538 -22.31952,13.63134 -30.9538,21.13969 -45.8327,39.85604 -72.19257,105.05582 -82.43177,203.89076 -2.98938,28.85531 -3.57236,40.2433 -2.14802,41.95953 0.66317,0.79907 0.86988,2.03507 0.45935,2.74667 -0.41052,0.71159 -0.38939,0.97143 0.047,0.57742 0.43635,-0.394 2.0312,0.99241 3.54411,3.08091 7.22215,9.9699 17.93589,9.21876 31.84263,-2.23246 7.98251,-6.57303 13.5619,-13.90023 19.70826,-25.88207 4.96951,-9.68766 5.31276,-10.75 3.47337,-10.75 -1.1226,0 -2.04109,-0.40787 -2.04109,-0.90638 0,-0.49851 0.87341,-0.67798 1.9409,-0.39882 1.62913,0.42602 2.85227,-1.31585 7.61439,-10.84362 7.3253,-14.65605 12.59807,-23.22108 13.44833,-21.84533 0.59529,0.9632 5.99638,-5.88848 5.99638,-7.60685 0,-1.33899 -3.24668,2.11962 -4.1023,4.37008 -0.49168,1.2932 -1.32254,2.08639 -1.84637,1.76264 -0.52383,-0.32374 -2.65551,0.32418 -4.73706,1.43983 -2.09494,1.12282 -5.67537,2.02845 -8.01952,2.02845 -3.53091,0 -4.59781,-0.49089 -6.41819,-2.9531 -1.78862,-2.41923 -2.52551,-2.76996 -4.07615,-1.94008 -3.53156,1.89003 -8.0607,0.6551 -10.40563,-2.83723 l -2.16906,-3.23042 -3.86286,3.07781 c -5.7584,4.58811 -8.85888,5.93382 -12.15334,5.27492 -3.19176,-0.63835 -4.00197,-1.94136 -9.85808,-15.85417 -5.08884,-12.08994 -3.9278,-11.37921 2.66933,1.63404 3.25438,6.41948 6.26855,11.86591 6.69815,12.10319 1.91867,1.05976 7.39355,-1.64569 12.66465,-6.2583 3.15305,-2.75916 6.20194,-5.01666 6.77532,-5.01666 0.61902,0 0.89979,1.79437 0.69118,4.41729 -0.19323,2.42952 -0.20184,4.26781 -0.0191,4.08511 0.18271,-0.1827 1.91133,0.32761 3.84138,1.13404 2.43404,1.01701 3.28028,1.09586 2.76206,0.25737 -0.52629,-0.85156 -0.11986,-1.04483 1.37507,-0.65389 1.30264,0.34064 2.03884,0.11184 1.90637,-0.59248 -0.4434,-2.35751 2.80841,-1.04068 4.10367,1.6618 2.40956,5.02737 4.9017,5.2799 13.16241,1.33375 5.99487,-2.86376 8.19904,-4.60881 11.96102,-9.46957 8.30588,-10.73182 21.57207,-23.99177 22.78729,-22.77656 0.28609,0.2861 -2.82915,4.12538 -6.92275,8.53175 -8.83637,9.5115 -16.92568,20.54225 -23.9844,32.70563 -6.82015,11.75229 -12.77985,25.14703 -12.84319,28.86576 -0.0281,1.65 -0.70304,5.7 -1.49986,9 -0.79682,3.3 -1.45579,7.89089 -1.46438,10.20197 -0.0263,7.06181 -3.91828,31.702 -5.93195,37.55485 -1.82102,5.29289 -1.82651,5.63533 -0.13431,8.38077 4.10505,6.6601 9.96591,9.36532 20.26852,9.3554 21.4007,-0.0206 53.13288,-14.35758 86.42083,-39.046 5.02629,-3.72781 9.47552,-7.3228 9.88717,-7.98887 0.8939,-1.44636 1.60792,-1.8813 -14.02268,8.54188 -14.79182,9.86384 -37.2614,21.33007 -50.24631,25.6407 -8.54388,2.83633 -11.12444,3.24649 -20.75689,3.29916 -8.89522,0.0486 -11.6697,-0.29655 -14.5,-1.80402 -4.47321,-2.38251 -8.79021,-6.39249 -10.58928,-9.83618 -1.64522,-3.14921 -1.88182,-6.2672 -0.25038,-3.29966 2.50277,4.55246 8.39824,9.5248 13.17379,11.11098 25.92366,8.61046 86.54304,-23.82487 132.22647,-70.7498 29.05499,-29.84458 50.23996,-63.52806 64.87997,-103.15722 C 439.63145,318.06678 442.43303,311 442.6664,311 c 0.73999,0 -0.75769,7.26586 -2.88577,14 -12.38562,39.19334 -37.31738,79.40588 -68.9507,111.21089 -6.41859,6.45342 -13.68618,14.3335 -16.15021,17.5113 -2.46403,3.1778 -6.08245,7.31161 -8.04093,9.18626 -1.95849,1.87465 -3.35293,3.74494 -3.09876,4.15619 0.72028,1.16544 -20.58265,18.027 -21.81393,17.26603 -0.66656,-0.41196 0.23401,-1.68314 2.30489,-3.25341 7.78901,-5.9061 16.92738,-14.28301 23.96909,-21.97184 4.125,-4.50409 13.8398,-14.83344 21.58845,-22.95411 7.74865,-8.12068 17.64865,-19.24019 22,-24.71002 9.19904,-11.56359 19.985,-27.20117 19.26117,-27.925 -0.275,-0.275 -3.13771,3.38313 -6.36158,8.12919 -17.77748,26.17132 -41.60755,50.99356 -68.11548,70.9515 -20.94828,15.77205 -46.40329,30.1486 -64.37256,36.35653 -4.675,1.61509 -7.90059,2.96127 -7.16797,2.99151 2.91757,0.12042 17.33583,-5.4928 29.16797,-11.35548 13.85465,-6.86482 29.47079,-16.33471 40.13664,-24.33954 7.30025,-5.47891 10.54287,-7.05094 5.36336,-2.60016 -1.65154,1.41918 -2.2134,2.31609 -1.25,1.99542 2.96355,-0.98642 2.01761,0.0558 -5.5,6.05993 -20.14791,16.0916 -48.49197,32.22535 -68.45064,38.96286 -13.20973,4.45925 -28.86539,5.75137 -35.79936,2.95466 -3.3668,-1.35795 -3.68829,-1.3734 -2.0309,-0.0976 5.71867,4.4021 21.79842,4.40936 37.0309,0.0167 11.27041,-3.25009 33.89468,-14.30681 46.89865,-22.91986 8.97747,-5.94614 13.57791,-7.70852 10.52746,-4.03295 -1.44802,1.74476 -3.31044,1.87372 -2.3248,0.16097 0.41793,-0.72624 0.33791,-0.90083 -0.19098,-0.41667 -0.50068,0.45834 -0.91033,1.16081 -0.91033,1.56105 0,1.07836 -5.3152,5.47609 -21.80677,18.04266 -8.14372,6.20551 -15.01509,11.07443 -15.26971,10.81982 -0.25461,-0.25462 6.94101,-6.034 15.99027,-12.84307 9.04927,-6.80907 16.33194,-12.50139 16.18373,-12.64961 -0.14822,-0.14821 -4.05579,2.02027 -8.6835,4.81885 -29.02385,17.552 -55.40644,25.09521 -72.61545,20.76193 -5.34112,-1.34491 -13.92132,-8.77972 -12.97582,-11.24365 0.4051,-1.05566 0.11242,-1.32179 -0.98888,-0.89919 -1.23371,0.47342 -1.43427,1.54874 -0.94907,5.08865 0.33836,2.4686 0.6152,6.73478 0.6152,9.48038 0,4.54552 0.38301,5.37502 4.28226,9.27427 2.95267,2.95267 5.50651,4.51193 8.22526,5.02197 8.32437,1.56166 21.88158,-3.18183 38.37567,-13.42713 4.61075,-2.86397 8.57192,-5.01848 8.8026,-4.78781 0.23067,0.23068 -1.17926,1.40745 -3.13319,2.61504 -4.05137,2.50388 -4.11033,2.60451 -2.00066,3.41407 1.00421,0.38535 1.30261,0.19211 0.84549,-0.54752 -0.44046,-0.71269 -0.26244,-0.86864 0.47284,-0.41422 0.68199,0.42149 1.06341,0.22309 0.90451,-0.47049 -0.15113,-0.65963 0.25164,-1.39355 0.89504,-1.63094 2.1258,-0.78431 0.77595,2.54312 -1.87881,4.63136 -3.26814,2.57072 -3.77586,2.56788 -3.2778,-0.0183 0.21911,-1.13773 0.0808,-1.92523 -0.30742,-1.75 -0.38818,0.17523 -5.88079,2.93018 -12.20579,6.12212 -13.21028,6.66662 -22.24296,8.84556 -29.09124,7.01765 -2.96761,-0.7921 -3.77592,-0.78833 -2.97372,0.0139 0.60591,0.60591 4.20579,1.27706 7.99974,1.49143 8.13948,0.45992 14.09268,-1.20265 24.95039,-6.968 9.05683,-4.80909 10.65151,-4.44836 1.91652,0.43354 -8.95106,5.00266 -18.10576,7.85362 -25.35297,7.89543 -6.59455,0.038 -9.38003,-0.96972 -13.63056,-4.93142 l -2.68184,-2.4996 -0.51712,3.37179 c -0.28442,1.85448 -0.78564,6.52179 -1.11382,10.37179 -0.32817,3.85 -1.27636,9.63728 -2.10708,12.86062 -0.83071,3.22335 -1.33658,6.03443 -1.12415,6.24686 1.01081,1.01082 53.77019,-36.31216 53.4496,-37.81124 -0.12306,-0.57543 0.26375,-1.22749 0.85958,-1.44902 0.59584,-0.22153 1.08334,0.30439 1.08334,1.16871 0,2.11818 -54.98533,41.02319 -56.58326,40.03562 -0.41318,-0.25536 0.0731,-3.71032 1.08061,-7.67767 1.00753,-3.96736 2.24663,-11.62146 2.75357,-17.0091 0.50693,-5.38765 1.25239,-10.33079 1.65656,-10.98476 0.46292,-0.74901 0.30762,-0.92499 -0.41964,-0.47551 C 216.51953,528.79695 216,528.64148 216,528.05902 216,527.47656 216.46583,527 217.03518,527 c 0.71358,0 0.71358,-0.60093 0,-1.93426 -0.56935,-1.06384 -1.08842,-4.32634 -1.15349,-7.25 -0.0651,-2.92366 -0.42189,-6.66574 -0.79293,-8.31574 -0.47903,-2.13028 -0.034,-4.30458 1.535,-7.5 3.92737,-7.99834 6.61749,-22.67091 8.80048,-48 l 0.5602,-6.5 -2.79295,8.00643 c -9.45337,27.09953 -23.56082,41.04753 -42.76322,42.27987 -6.3394,0.40683 -7.43003,0.21194 -9.30469,-1.66272 C 169.95561,494.95561 169,494.43963 169,494.97695 c 0,1.40179 3.96642,3.71556 7.70453,4.49436 3.7588,0.7831 13.62944,-1.52801 20.24882,-4.74107 7.34719,-3.56633 15.91088,-12.98103 21.04665,-23.13813 2.97824,-5.89012 4.60091,-8.22595 4.7984,-6.90732 0.39972,2.66889 -4.83728,16.83244 -8.18421,22.13432 -7.68853,12.17942 -22.05348,20.13684 -36.40964,20.16902 -4.29842,0.01 -5.75761,-0.45028 -7.75,-2.44268 C 168.8603,502.95121 168,502.58003 168,503.48644 c 0,0.76754 0.45122,1.67439 1.0027,2.01523 0.66572,0.41144 0.65002,1.27871 -0.0467,2.58054 -1.94966,3.64297 0.92485,14.49353 4.544,17.15248 4.71299,3.46257 21.4401,-3.5053 31.89671,-13.28695 6.1996,-5.79942 11.39394,-14.65762 13.16307,-22.44774 0.60761,-2.67552 0.33716,-2.49163 -2.50047,1.70017 -5.92073,8.74621 -14.43391,14.65624 -25.0174,17.36761 -7.31016,1.87277 -18.33411,1.59449 -20.28913,-0.51217 -1.03136,-1.11137 -0.89929,-1.21606 0.74722,-0.59231 6.90846,2.61711 19.22931,1.22778 27.84946,-3.14038 6.0241,-3.05265 13.97089,-10.34134 16.83908,-15.44459 1.17372,-2.08835 2.5063,-3.56693 2.96129,-3.28573 0.45499,0.2812 0.57674,-0.14158 0.27054,-0.93951 -0.30619,-0.79793 -0.076,-1.74786 0.51146,-2.11096 3.48758,-2.15544 -1.98629,14.95414 -7.38625,23.08706 C 205.74324,515.87426 188.02112,527 178.50415,527 c -3.10655,0 -5.50325,-0.5942 -6.67541,-1.65499 C 170.78031,524.3962 170,524.17189 170,524.81933 c 0,2.26931 6.12566,4.43529 10.75071,3.80136 6.30495,-0.86419 19.56028,-8.08833 26.31405,-14.34113 3.17651,-2.94089 6.04533,-4.91045 6.37514,-4.3768 1.37762,2.22903 1.76768,23.16001 0.61594,33.05114 -2.89561,24.86732 -10.13338,36.73999 -25.65217,42.07924 -5.58835,1.92268 -20.19226,3.38438 -23.56764,2.35889 z m 21.77115,-2.8685 c 6.44041,-1.91324 13.47529,-6.45403 16.84643,-10.87382 7.46613,-9.7886 11.9172,-35.17948 9.9308,-56.64971 l -0.60137,-6.5 -4.31507,4.15993 c -8.97228,8.64968 -25.05207,16.15608 -32.14353,15.00529 -8.2534,-1.33934 -10.94627,-7.40669 -9.79938,-22.07918 0.43361,-5.54732 0.75464,-10.98604 0.71339,-12.08604 -0.10856,-2.89528 -0.21454,-11.69162 -0.16657,-13.82559 0.0324,-1.44029 0.33318,-1.58313 1.42526,-0.67678 0.92467,0.7674 1.11959,1.86422 0.58712,3.30363 -1.07796,2.91399 0.58545,8.80252 3.09283,10.94874 4.37569,3.74543 18.02303,1.07203 27.48338,-5.38376 8.76147,-5.97887 16.51049,-17.77993 22.00802,-33.51622 1.75812,-5.03249 2.99609,-9.98249 2.75104,-11 -0.24504,-1.01751 0.0103,-2.52502 0.56747,-3.35002 0.90044,-1.33333 1.12241,-1.33333 1.99769,0 0.72749,1.10821 0.98868,0.38441 1,-2.77108 0.0119,-3.32413 1.67498,-7.52137 7.50099,-18.93098 4.11713,-8.06295 7.3125,-14.83309 7.10082,-15.04477 -0.70824,-0.70824 -10.22283,17.08417 -17.42798,32.59058 -8.69432,18.71128 -14.21784,27.20078 -22.83507,35.09691 -10.85147,9.9434 -20.62965,13.78244 -28.00835,10.99643 -2.32241,-0.87688 -2.58715,-0.83313 -1.51264,0.25 0.8021,0.80854 3.68333,1.304 7.5,1.28972 5.18605,-0.0194 7.17679,-0.57945 12.19754,-3.43146 8.89765,-5.05428 20.15528,-16.8497 26.28947,-27.54535 5.8445,-10.19054 7.13001,-10.66059 1.59455,-0.58305 -12.6679,23.06244 -35.07227,37.9497 -47.46638,31.54046 -1.64067,-0.84842 -2.75719,-1.90801 -2.48116,-2.35464 0.27604,-0.44663 -0.68181,-1.88996 -2.12855,-3.20741 -1.44674,-1.31745 -2.24649,-1.72036 -1.77722,-0.89536 0.74271,1.30574 0.62819,1.31737 -0.88426,0.0898 -0.95561,-0.77562 -1.53489,-1.93812 -1.2873,-2.58334 0.24759,-0.64521 -0.19218,-1.17312 -0.97727,-1.17312 -0.78509,0 -1.70166,1.09261 -2.03683,2.42802 -0.94513,3.76569 0.3954,86.50809 1.58245,97.67461 0.61065,5.74434 1.58699,10.30288 2.31437,10.80573 1.69995,1.17523 15.30976,0.0808 21.36531,-1.71816 z M 223,532.62244 c 0,-0.20765 -0.7875,-0.99515 -1.75,-1.75 -1.58606,-1.24387 -1.62143,-1.2085 -0.37756,0.37756 1.30637,1.66575 2.12756,2.19548 2.12756,1.37244 z M 169.12207,521.325 c -0.87155,-1.49877 -1.06669,-1.54197 -1.09166,-0.24167 -0.0323,1.68408 1.01919,3.2004 1.72792,2.49167 0.23375,-0.23375 -0.0526,-1.24625 -0.63626,-2.25 z m -1.43274,-7.075 c -0.25153,-0.9625 -0.45733,-0.175 -0.45733,1.75 0,1.925 0.2058,2.7125 0.45733,1.75 0.25152,-0.9625 0.25152,-2.5375 0,-3.5 z M 224,511.65499 c 0,-0.18976 -1.0125,-1.20226 -2.25,-2.25 L 219.5,507.5 l 1.90499,2.25 c 1.79022,2.11444 2.59501,2.70524 2.59501,1.90499 z m -35.6796,-7.15023 c 12.89863,-3.35966 22.33016,-11.34993 28.34343,-24.01215 4.19938,-8.84271 3.92726,-10.96436 -0.42173,-3.28813 -8.60367,15.18601 -29.40582,26.58558 -41.53254,22.75983 -2.31526,-0.73043 -4.54706,-1.2462 -4.95956,-1.14618 -0.4125,0.10003 -0.75,-0.34313 -0.75,-0.9848 0,-0.64166 -0.23759,-0.92907 -0.52798,-0.63868 -0.84507,0.84507 1.4631,6.1877 3.26414,7.55535 2.21974,1.68561 9.58964,1.57663 16.58424,-0.24524 z m 66.45603,-1.23165 c -2.04796,-0.21488 -5.64796,-0.21785 -8,-0.007 -2.35204,0.21125 -0.67643,0.38706 3.72357,0.39069 4.4,0.004 6.32439,-0.16921 4.27643,-0.38408 z m 7.47357,-0.93539 c -0.6875,-0.27741 -1.8125,-0.27741 -2.5,0 -0.6875,0.27741 -0.125,0.50439 1.25,0.50439 1.375,0 1.9375,-0.22698 1.25,-0.50439 z M 226.68311,445.8125 c -0.31922,-0.79773 -0.55618,-0.56078 -0.60416,0.60417 -0.0434,1.05416 0.19292,1.64479 0.52522,1.3125 0.33229,-0.33229 0.36781,-1.1948 0.0789,-1.91667 z M 210,393.44098 c 0,-1.40746 -0.40775,-2.30701 -0.90612,-1.999 -0.49837,0.30801 -0.67088,1.45956 -0.38337,2.55902 0.71955,2.75155 1.28949,2.50403 1.28949,-0.56002 z m 44.38752,-3.94098 3.78747,-5 -4.56693,5 c -2.51181,2.75 -4.57618,5.4275 -4.58749,5.95 -0.0242,1.11575 0.21826,0.847 5.36695,-5.95 z M 267,375.29179 c 0,-0.75088 -0.89783,0.043 -5.04179,4.45821 l -4.45821,4.75 4.75,-4.45821 c 2.6125,-2.45201 4.75,-4.58951 4.75,-4.75 z M 416.28426,375.25 c 5.19039,-9.0206 11.72429,-21.85485 11.69655,-22.97504 -0.0106,-0.42623 -2.2349,3.39894 -4.94298,8.50037 -2.70809,5.10143 -6.52445,11.91029 -8.48081,15.13081 -3.39454,5.588 -4.06205,7.09386 -3.14454,7.09386 0.22686,0 2.41916,-3.4875 4.87178,-7.75 z m 14.64487,-29.75 c 0,-0.55 -0.64311,0.125 -1.42913,1.5 -0.78602,1.375 -1.42913,2.95 -1.42913,3.5 0,0.55 0.64311,-0.125 1.42913,-1.5 0.78602,-1.375 1.42913,-2.95 1.42913,-3.5 z m 2.04024,-5 c 0,-0.55 -0.43621,-0.325 -0.96937,0.5 -0.53316,0.825 -0.96937,1.95 -0.96937,2.5 0,0.55 0.43621,0.325 0.96937,-0.5 0.53316,-0.825 0.96937,-1.95 0.96937,-2.5 z M 370.25,582.88536 C 367.69435,580.25741 368.84609,579 373.80887,579 c 4.69341,0 9.41257,2.1119 7.96154,3.56292 -1.40905,1.40905 -10.22377,1.65577 -11.52041,0.32244 z m 8.16247,-0.49014 C 381.19732,581.32657 379.01512,580 374.47237,580 c -3.5088,0 -4.29202,0.30642 -3.834,1.5 0.58366,1.52099 4.86007,2.01343 7.7741,0.89522 z m 6.7968,0.0388 C 383.99417,581.58294 383,580.46211 383,579.9433 c 0,-1.51717 3.63808,-1.08431 5.03517,0.59908 1.95635,2.35725 -0.14904,3.76659 -2.8259,1.89165 z m 1.76177,-1.47309 c -2.37128,-1.49964 -3.65241,-1.03455 -1.54404,0.56053 1.05985,0.80183 2.17182,1.21305 2.47104,0.91382 0.29922,-0.29922 -0.11793,-0.96268 -0.927,-1.47435 z M 335.68709,568.19528 C 332.2642,564.62256 332.31064,564 336,564 c 2.7619,0 3,0.27778 3,3.5 0,1.925 -0.14081,3.5 -0.31291,3.5 -0.1721,0 -1.5221,-1.26212 -3,-2.80472 z M 338,567 c 0,-1.13148 -0.66667,-2 -1.53518,-2 -1.22531,0 -1.31913,0.4037 -0.46482,2 0.5887,1.1 1.27953,2 1.53518,2 0.25565,0 0.46482,-0.9 0.46482,-2 z m -3,-36.44098 c 0,-1.50076 1.60484,-2.86697 3.75,-3.19242 1.7982,-0.2728 1.53882,1.06204 -0.57874,2.97841 -2.24869,2.03504 -3.17126,2.0973 -3.17126,0.21401 z m 3,-4.2542 c 0,-0.19902 1.28737,-2.93652 2.86082,-6.08334 1.57345,-3.14681 3.63462,-8.08398 4.58037,-10.97148 1.75506,-5.35843 4.62206,-7.27465 4.48852,-3 -0.0644,2.06078 -0.13376,2.08796 -0.82513,0.32311 -0.71778,-1.83225 -0.78915,-1.8375 -1.45325,-0.10687 -0.38413,1.00101 -0.46281,2.05561 -0.17487,2.34355 0.28795,0.28795 0.53949,0.11104 0.55898,-0.39312 0.0195,-0.50417 0.61411,0.12628 1.32139,1.401 1.15485,2.08136 1.42055,2.15549 2.60601,0.7271 1.12597,-1.35671 1.07872,-1.49795 -0.3214,-0.96067 -0.90279,0.34643 -1.64144,0.35673 -1.64144,0.0229 0,-1.06398 4.46691,-5.11802 5.32433,-4.83221 0.45338,0.15112 0.56016,-0.15266 0.2373,-0.67507 -0.82782,-1.33943 1.50709,-6.09971 2.9919,-6.09971 0.67787,0 1.49127,0.67437 1.80756,1.4986 0.58982,1.53704 3.97611,1.5582 5.36314,0.0335 0.42667,-0.46902 0.15489,-0.49298 -0.60396,-0.0532 -0.9437,0.54685 -1.23339,0.3605 -0.91667,-0.58967 0.25469,-0.76406 0.95057,-1.3892 1.5464,-1.3892 0.59583,0 1.45833,-0.40965 1.91667,-0.91033 0.48416,-0.52889 0.30957,-0.60891 -0.41667,-0.19098 -1.72753,0.99415 -1.56397,-0.50543 0.35375,-3.24336 0.88207,-1.25932 2.19483,-2.06286 2.91725,-1.78565 0.72241,0.27722 1.57255,-0.17107 1.88918,-0.9962 0.31905,-0.83144 1.09352,-1.18021 1.73727,-0.78235 0.71933,0.44457 0.89177,0.28135 0.45294,-0.4287 -0.38975,-0.63063 -0.28485,-1.90384 0.2331,-2.82938 1.07002,-1.91202 4.48645,-2.79286 3.88978,-1.00287 -0.21446,0.6434 -0.87744,1.16982 -1.47327,1.16982 -0.59583,0 -1.45833,0.40965 -1.91667,0.91033 -0.48416,0.52889 -0.30957,0.60891 0.41667,0.19098 1.52582,-0.87807 1.58808,-0.10154 0.19983,2.49244 -0.5776,1.07925 -1.4465,1.71732 -1.9309,1.41795 -0.48441,-0.29938 -1.20636,-0.0174 -1.60434,0.6265 -0.45192,0.73122 -0.29014,0.90292 0.4309,0.45729 1.71818,-1.06189 1.39699,0.95838 -0.38787,2.43968 -1.25469,1.0413 -1.76763,1.03669 -2.75,-0.0247 -0.96631,-1.04407 -0.85794,-1.18175 0.54238,-0.689 1.92089,0.67592 2.41629,-0.79162 0.6382,-1.89054 -1.20875,-0.74704 -3.05709,1.48682 -2.27597,2.75069 0.61753,0.99919 -1.29016,4.69041 -3.91151,7.56841 -2.14531,2.35536 -4.70072,3.0028 -4.70072,1.19098 0,-0.58246 0.5625,-0.73531 1.25,-0.33967 0.6875,0.39564 0.89948,0.33417 0.47106,-0.1366 -1.55633,-1.71015 -3.52036,-1.20061 -4.61265,1.1967 -0.6143,1.34825 -1.55985,2.17762 -2.10121,1.84304 -0.54136,-0.33458 -0.75118,-8.5e-4 -0.46627,0.74161 0.28491,0.74246 -0.64395,2.44154 -2.06413,3.77573 -2.17552,2.0438 -2.72891,2.19372 -3.51416,0.95201 -0.51261,-0.81059 -0.9458,-1.0238 -0.96264,-0.4738 -0.0168,0.55 -0.50321,0.325 -1.08082,-0.5 -0.83005,-1.18557 -0.92248,-1.04397 -0.44095,0.67549 0.83435,2.97927 -4.64626,14.99118 -6.83994,14.99118 -0.90106,0 -1.63829,-0.16284 -1.63829,-0.36185 z m 22,-25.7458 c 0,-1.05548 -1.91911,-1.49891 -2.48992,-0.57533 -0.34546,0.55897 0.0734,1.01631 0.9309,1.01631 C 359.29844,501 360,500.80156 360,500.55902 Z M 276.51197,518.25 c 0.18426,-0.9625 0.42569,-1.8625 0.53652,-2 0.11083,-0.1375 0.26862,-0.8125 0.35063,-1.5 0.082,-0.6875 0.90812,-1.19044 1.83579,-1.11765 0.92766,0.0728 1.59181,-0.35048 1.47587,-0.94061 -0.11593,-0.59013 0.68922,-1.25852 1.78922,-1.48531 1.69827,-0.35014 1.5569,0.0558 -0.93709,2.69061 -1.6154,1.70663 -2.5728,3.10296 -2.12756,3.10296 0.44525,0 0.24934,0.675 -0.43535,1.5 -1.6755,2.01886 -2.89883,1.89594 -2.48803,-0.25 z M 377,483.07791 c 0,-0.68179 5.12854,-6.07586 10.78478,-11.34317 2.15161,-2.00366 5.71789,-3.36277 4.99755,-1.90456 -1.97818,4.00449 -4.5949,7.15836 -5.94344,7.1635 -0.9136,0.003 -2.87563,1.4497 -4.36005,3.21384 -2.5273,3.00352 -5.47884,4.54985 -5.47884,2.87039 z m 4.12756,-2.82791 c 1.24387,-1.58606 1.2085,-1.62143 -0.37756,-0.37756 -1.66575,1.30637 -2.19548,2.12756 -1.37244,2.12756 0.20765,0 0.99515,-0.7875 1.75,-1.75 z M 389,474 c 0.5887,-1.1 0.92954,-2 0.75742,-2 -0.17211,0 -1.08354,0.9 -2.02539,2 -0.94185,1.1 -1.28269,2 -0.75743,2 0.52527,0 1.4367,-0.9 2.0254,-2 z m 2.2476,-6.2428 c 0.19845,-0.59535 1.1494,-1.19819 2.11322,-1.33965 0.96382,-0.14146 1.59003,0.2299 1.39158,0.82525 -0.19845,0.59535 -1.1494,1.19819 -2.11322,1.33965 -0.96382,0.14146 -1.59003,-0.2299 -1.39158,-0.82525 z m 2,-3 c 0.19845,-0.59535 1.1494,-1.19819 2.11322,-1.33965 0.96382,-0.14146 1.59003,0.2299 1.39158,0.82525 -0.19845,0.59535 -1.1494,1.19819 -2.11322,1.33965 -0.96382,0.14146 -1.59003,-0.2299 -1.39158,-0.82525 z m -51.90041,-1.58835 c 0.91145,-1.00713 1.43137,-2.05696 1.15538,-2.33295 -0.27599,-0.27599 1.24469,-1.90531 3.37928,-3.62071 5.66083,-4.54917 5.93989,-2.61817 0.43005,2.97578 -4.42805,4.49566 -8.60632,7.00182 -4.96471,2.97788 z m 53.90041,-1.41165 c 0.19845,-0.59535 1.1494,-1.19819 2.11322,-1.33965 0.96382,-0.14146 1.59003,0.2299 1.39158,0.82525 -0.19845,0.59535 -1.1494,1.19819 -2.11322,1.33965 -0.96382,0.14146 -1.59003,-0.2299 -1.39158,-0.82525 z m 2,-3 c 0.19845,-0.59535 1.1494,-1.19819 2.11322,-1.33965 0.96382,-0.14146 1.59003,0.2299 1.39158,0.82525 -0.19845,0.59535 -1.1494,1.19819 -2.11322,1.33965 -0.96382,0.14146 -1.59003,-0.2299 -1.39158,-0.82525 z m 2.07079,-3.08738 c 0.23739,-0.6434 0.97131,-1.04617 1.63094,-0.89504 0.65963,0.15112 0.90925,-0.19458 0.55471,-0.76824 -0.90201,-1.45949 3.12632,-7.67321 4.97451,-7.67321 2.08029,0 1.95126,0.50589 -1.42827,5.60003 -2.63085,3.9656 -6.82521,6.6998 -5.73189,3.73646 z M 265.47109,453.58 c -9.7003,-3.7364 -26.03795,-12.34647 -25.13702,-13.2474 0.23342,-0.23343 3.74125,1.20765 7.79517,3.20239 7.07648,3.482 22.13206,9.46501 23.81766,9.46501 0.44575,0 1.39258,-1.40535 2.10405,-3.12301 2.11037,-5.09489 6.28512,-6.2381 15.68774,-4.29594 15.97187,3.29909 23.99279,1.70638 36.60927,-7.26945 5.24041,-3.72823 7.75046,-3.78837 3.15527,-0.0756 -8.33751,6.73644 -16.34521,10.59773 -18.81389,9.072 -0.59996,-0.3708 -0.68049,-0.1027 -0.2018,0.67184 0.60325,0.97607 0.0468,1.17882 -2.29268,0.83545 -1.69908,-0.24937 -2.87011,-0.0988 -2.60228,0.3345 0.54048,0.87452 -11.64708,0.28508 -14.80062,-0.71582 -3.40875,-1.08189 -12.71922,-2.12529 -12.25448,-1.37332 0.24228,0.39201 -0.20062,1.24482 -0.98421,1.89514 -0.78359,0.65032 -1.71439,2.50131 -2.06845,4.11331 -0.77881,3.5459 -1.97583,3.60697 -10.01373,0.5109 z m 8.25808,0.81583 c -0.33229,-0.33229 -1.1948,-0.36781 -1.91667,-0.0789 -0.79773,0.31922 -0.56078,0.55618 0.60417,0.60416 1.05416,0.0434 1.64479,-0.19293 1.3125,-0.52522 z m 10,-9 c -0.33229,-0.33229 -1.1948,-0.36781 -1.91667,-0.0789 -0.79773,0.31922 -0.56078,0.55618 0.60417,0.60416 1.05416,0.0434 1.64479,-0.19293 1.3125,-0.52522 z M 406.2476,444.7572 c 0.19845,-0.59535 1.1494,-1.19819 2.11322,-1.33965 0.96382,-0.14146 1.59003,0.2299 1.39158,0.82525 -0.19845,0.59535 -1.1494,1.19819 -2.11322,1.33965 -0.96382,0.14146 -1.59003,-0.2299 -1.39158,-0.82525 z m 2,-3 c 0.19845,-0.59535 1.1494,-1.19819 2.11322,-1.33965 0.96382,-0.14146 1.59003,0.2299 1.39158,0.82525 -0.19845,0.59535 -1.1494,1.19819 -2.11322,1.33965 -0.96382,0.14146 -1.59003,-0.2299 -1.39158,-0.82525 z m -210.01864,-0.42649 c -2.05438,-0.82658 -4.38511,-6.24136 -3.71498,-8.63069 0.48612,-1.73326 0.39422,-1.88178 -0.43316,-0.70002 -0.57761,0.825 -1.05709,1.1074 -1.06551,0.62756 -0.008,-0.47985 -0.61921,-0.37125 -1.35732,0.24132 -0.7381,0.61257 -1.66189,0.79389 -2.05285,0.40292 -0.39097,-0.39096 -0.44158,-0.009 -0.11248,0.84847 0.3291,0.85761 -0.0729,2.11644 -0.89345,2.79739 -1.26189,1.04728 -1.95142,0.32759 -4.47407,-4.66975 -3.09263,-6.12647 -6.6539,-18.05248 -5.68118,-19.0252 0.30582,-0.30582 0.55604,-0.006 0.55604,0.66549 0,0.67184 0.84945,3.10934 1.88766,5.41666 1.03822,2.30733 2.91734,6.61274 4.17582,9.56759 l 2.28816,5.37245 2.57418,-3.13146 c 1.4158,-1.72231 3.0782,-3.12741 3.69422,-3.12245 0.61602,0.005 1.68461,2.02546 2.37464,4.49001 0.69003,2.46455 1.86856,4.99053 2.61895,5.6133 0.75039,0.62277 1.12802,1.5147 0.83917,1.98207 -0.28884,0.46736 1.62861,0.17942 4.26101,-0.63988 6.30425,-1.96209 14.48643,-3.56958 15.09117,-2.96484 0.2647,0.2647 -0.14563,0.67924 -0.91185,0.92119 -0.76622,0.24195 -3.49605,1.20048 -6.06628,2.13005 -2.57024,0.92957 -5.22727,1.34767 -5.90451,0.92911 -0.79034,-0.48845 -0.9758,-0.34752 -0.51783,0.39349 0.73195,1.18432 -4.55024,1.5415 -7.17555,0.48522 z M 410,439.03396 c 0,-1.59577 2.78318,-3.1938 3.51111,-2.01599 0.37904,0.6133 0.40608,1.39818 0.0601,1.74417 C 412.60782,439.72551 410,439.924 410,439.03396 Z M 295.34315,413.25 c 0.25365,-0.4125 -1.4073,-0.77436 -3.69099,-0.80414 -4.3184,-0.0563 -32.0328,-6.39855 -31.27443,-7.15692 0.23758,-0.23759 5.53728,0.69487 11.77712,2.07211 6.23983,1.37725 14.41247,2.81505 18.16143,3.19511 6.40662,0.6495 6.97756,0.53764 9.5,-1.86124 1.47604,-1.40375 3.89011,-2.85034 5.36459,-3.21465 3.06064,-0.75622 14.17889,2.1286 13.35314,3.4647 -0.29522,0.47768 0.43422,0.61459 1.62098,0.30425 1.18677,-0.31035 1.90548,-0.15588 1.59714,0.34326 -0.31467,0.5094 2.42645,0.90752 6.24837,0.90752 3.74494,0 6.63379,-0.2833 6.41966,-0.62956 -0.21413,-0.34625 2.72263,-1.63018 6.52613,-2.85317 6.36162,-2.04553 7.46824,-2.12482 13.81791,-0.99007 4.69707,0.83941 6.90247,1.68489 6.90247,2.6462 0,0.8082 -0.60643,1.17996 -1.41725,0.86882 -0.77949,-0.29912 -4.41699,-0.81529 -8.08334,-1.14705 -5.67711,-0.51371 -7.68516,-0.21687 -13.53514,2.00082 -3.77798,1.4322 -8.30881,2.60401 -10.0685,2.60401 -4.26146,0 -13.7611,-2.86954 -13.0907,-3.95428 0.29206,-0.47256 -0.43997,-0.60528 -1.62673,-0.29494 -1.26835,0.33168 -1.91039,0.16402 -1.55763,-0.40676 0.37747,-0.61075 -1.28805,-0.7288 -4.48889,-0.31817 -3.92724,0.50382 -5.53147,1.26026 -7.02716,3.31351 -1.06598,1.46335 -2.82717,2.66064 -3.91375,2.66064 -1.08659,0 -1.76808,-0.3375 -1.51443,-0.75 z M 327.25,411.33772 c -0.6875,-0.27741 -1.8125,-0.27741 -2.5,0 -0.6875,0.27741 -0.125,0.50439 1.25,0.50439 1.375,0 1.9375,-0.22698 1.25,-0.50439 z m 4.47917,0.0581 c -0.33229,-0.33229 -1.1948,-0.36781 -1.91667,-0.0789 -0.79773,0.31922 -0.56078,0.55618 0.60417,0.60416 1.05416,0.0434 1.64479,-0.19293 1.3125,-0.52522 z M 308.25,406.33772 c -0.6875,-0.27741 -1.8125,-0.27741 -2.5,0 -0.6875,0.27741 -0.125,0.50439 1.25,0.50439 1.375,0 1.9375,-0.22698 1.25,-0.50439 z m 54.29271,2.73138 c -0.68438,-1.10735 0.0196,-1.56822 3.76363,-2.46403 1.54348,-0.3693 6.51994,-3.97546 11.05878,-8.0137 C 385.33941,391.4966 390.5493,388 393.14612,388 c 0.68499,0 -0.80993,1.30348 -3.32205,2.89662 -2.51212,1.59313 -7.43772,5.66848 -10.94578,9.05631 -7.00337,6.76336 -11.27732,9.49166 -13.52048,8.63088 -0.81876,-0.31419 -1.19296,-0.12609 -0.85073,0.42764 0.33602,0.5437 0.16095,0.98855 -0.38905,0.98855 -0.55,0 -1.25889,-0.41891 -1.57532,-0.9309 z m 33.26979,-21.75221 c 0.72187,-0.28887 1.58438,-0.25335 1.91667,0.0789 0.33229,0.33229 -0.25834,0.56864 -1.3125,0.52522 -1.16495,-0.048 -1.4019,-0.28494 -0.60417,-0.60416 z M 298,376.6651 c -6.36084,-5.01193 -18,-17.20969 -18,-18.86387 0,-0.61908 3.5094,2.43488 7.79868,6.78658 7.22832,7.33353 15.81916,14.2429 16.55004,13.31074 0.17188,-0.2192 1.95765,-3.3858 3.96839,-7.03689 2.01073,-3.65108 5.57567,-8.75881 7.92209,-11.35051 4.00259,-4.42101 4.63418,-4.74192 10.2214,-5.19349 3.27536,-0.26473 7.1893,-1.1195 8.69764,-1.89949 3.77862,-1.954 7.20894,-1.77491 9.25237,0.48305 1.5747,1.74003 9.98734,3.5517 8.9886,1.9357 -0.2379,-0.38493 2.0912,-2.75571 5.17579,-5.2684 5.04575,-4.11024 6.1261,-4.56852 10.76985,-4.56852 2.83883,0 8.31008,-0.91443 12.15833,-2.03206 3.84825,-1.11764 9.29976,-1.93837 12.11447,-1.82386 8.04621,0.32734 10.78779,-1.34122 14.56966,-8.86733 3.39619,-6.75859 5.14638,-8.34306 7.07991,-6.40953 0.62303,0.62303 1.88142,1.13278 2.79642,1.13278 1.88542,0 6.72165,-4.48904 8.08005,-7.5 0.68405,-1.51622 0.75787,-1.27433 0.30518,1 -1.01897,5.11933 -4.23789,7.66403 -9.30078,7.35269 l -4.38816,-0.26985 -2.71788,5.98737 c -3.79016,8.34958 -6.34033,9.8153 -17.18818,9.87901 -4.90233,0.0288 -8.4069,0.44374 -8.09363,0.9583 0.30388,0.49914 -0.41848,0.65361 -1.60525,0.34326 -1.18676,-0.31034 -1.93943,-0.21102 -1.6726,0.22072 0.59615,0.9646 -4.40858,2.0285 -9.54229,2.0285 -5.36073,0 -8.24606,1.31907 -13.52096,6.18129 -3.87744,3.57411 -5.20027,4.21255 -8.45903,4.0826 -4.20268,-0.1676 -9.3067,-2.89408 -8.34146,-4.45587 0.33081,-0.53527 -0.81127,-0.24265 -2.53795,0.65025 -1.72669,0.8929 -3.64575,1.31054 -4.26458,0.92809 -0.68662,-0.42436 -0.84704,-0.24541 -0.41161,0.45913 0.70549,1.14151 0.17895,1.28325 -6.23879,1.67951 -7.68626,0.47458 -11.79569,4.34572 -20.19221,19.0213 -1.71616,2.99953 -3.42477,5.45342 -3.7969,5.45307 C 303.80447,380.99903 301.025,379.0486 298,376.6651 Z M 318.5,359 c 0.99549,-1.1 1.58498,-2 1.30998,-2 -0.275,0 -1.31449,0.9 -2.30998,2 -0.99549,1.1 -1.58498,2 -1.30998,2 0.275,0 1.31449,-0.9 2.30998,-2 z m 11.75,-3.66228 c -0.6875,-0.27741 -1.8125,-0.27741 -2.5,0 -0.6875,0.27741 -0.125,0.50439 1.25,0.50439 1.375,0 1.9375,-0.22698 1.25,-0.50439 z m 15.75,0.28472 c 0,-0.20765 -0.7875,-0.99515 -1.75,-1.75 -1.58606,-1.24387 -1.62143,-1.2085 -0.37756,0.37756 1.30637,1.66575 2.12756,2.19548 2.12756,1.37244 z m 49.76166,-13.30952 c -0.95609,-0.25029 -2.75609,-0.25937 -4,-0.0202 -1.24391,0.23919 -0.46166,0.44398 1.73834,0.45508 2.2,0.0111 3.21775,-0.18461 2.26166,-0.4349 z M 218.65499,359.17126 C 217.74474,358.16545 217,356.74571 217,356.01627 c 0,-0.9548 -0.5425,-0.83529 -1.93699,0.4267 -1.08883,0.98539 -2.4701,1.42347 -3.15451,1.00048 -0.77947,-0.48174 -0.95923,-0.33455 -0.49963,0.4091 1.23381,1.99635 -2.36883,2.49366 -4.44612,0.61374 C 205.4969,357.13971 205,355.38749 205,351.54501 c 0,-7.07718 -1.40534,-8.22263 -5.93079,-4.83399 -1.96307,1.46994 -4.61385,3.76916 -5.89063,5.10938 -1.43483,1.50613 -2.67739,2.08079 -3.25349,1.50469 -0.51265,-0.51265 -1.12482,-6.98301 -1.3604,-14.37859 -0.35649,-11.19131 -0.26973,-12.35635 0.51727,-6.9465 0.82728,5.68665 1.58402,12.61513 1.83799,16.82792 0.0472,0.78323 1.79463,-0.13969 4.26005,-2.25 2.95503,-2.52939 5.14263,-3.57792 7.46481,-3.57792 4.09522,0 5.35519,2.10206 5.35519,8.93426 0,2.78616 0.4201,5.06574 0.93355,5.06574 0.51346,0 3.21823,-1.42023 6.01061,-3.15607 5.69422,-3.53972 7.33246,-3.13343 4.84458,1.20146 -0.92054,1.60395 -1.36209,2.87161 -0.98123,2.81702 1.77633,-0.25459 3.26597,0.20975 2.84747,0.88759 -0.25469,0.4125 0.73126,0.83372 2.19098,0.93604 4.64466,0.32556 16.98877,-4.02123 22.46162,-7.90952 3.16178,-2.24636 5.11152,-1.57625 2.11942,0.72843 -1.05985,0.81635 -5.02496,3.0617 -8.81136,4.98966 -5.67955,2.89193 -7.97126,3.50539 -13.09501,3.50539 -4.74679,0 -6.60074,-0.43104 -7.86564,-1.82874 z M 210,358.60699 c 0,-0.21616 -0.69837,-0.661 -1.55194,-0.98855 -0.88992,-0.34149 -1.29132,-0.17385 -0.94098,0.39301 0.58726,0.95021 2.49292,1.40545 2.49292,0.59554 z M 206.71625,348.25 c -0.22912,-1.5125 -0.41659,-0.275 -0.41659,2.75 0,3.025 0.18747,4.2625 0.41659,2.75 0.22913,-1.5125 0.22913,-3.9875 0,-5.5 z m 12.55393,5.82482 c 0.3437,-1.31432 0.0834,-1.76401 -0.82022,-1.41724 -0.72802,0.27936 -1.07894,1.1457 -0.77983,1.92518 0.72072,1.87817 0.99919,1.78977 1.60005,-0.50794 z M 191.5,352 c 0.33992,-0.55 0.14148,-1 -0.44098,-1 -0.58246,0 -1.05902,0.45 -1.05902,1 0,0.55 0.19844,1 0.44098,1 0.24254,0 0.7191,-0.45 1.05902,-1 z m -3.42105,-28.58333 c 0.048,-1.16495 0.28494,-1.4019 0.60416,-0.60417 0.28887,0.72187 0.25335,1.58438 -0.0789,1.91667 -0.3323,0.33229 -0.56864,-0.25834 -0.52522,-1.3125 z m 81.63623,-53.03483 c -0.37332,-0.37331 -0.47688,-1.62445 -0.23014,-2.7803 0.24675,-1.15585 0.65599,-4.35154 0.90943,-7.10154 0.54063,-5.86606 4.26883,-24.49664 5.0605,-25.28831 0.82081,-0.8208 0.64606,1.85757 -0.37765,5.78831 -0.84712,3.25266 -1.35926,6.95846 -2.67322,19.34292 -0.32375,3.0515 -0.14918,4.61756 0.47194,4.23369 0.54217,-0.33508 1.29734,-0.1051 1.67815,0.51107 0.79452,1.28555 -3.81,6.32318 -4.83901,5.29416 z m 2.77774,-2.37039 c 0.35034,-0.56686 -0.0511,-0.7345 -0.94098,-0.39301 -1.73242,0.66479 -2.04939,1.38156 -0.61096,1.38156 0.51754,0 1.21592,-0.44485 1.55194,-0.98855 z m 40.48233,-3.57655 C 312.43886,263.0241 312,260.64922 312,259.15741 312,256.49371 309.58883,252 308.15957,252 c -0.39986,0 -3.17166,1.575 -6.15957,3.5 -6.12915,3.94879 -7.56227,4.20612 -10.18849,1.82942 -1.73687,-1.57185 -2.00748,-1.51997 -4.57874,0.87781 -3.52584,3.28796 -6.99706,5.05648 -8.31997,4.23888 -0.57523,-0.35551 -1.62224,0.14185 -2.32669,1.10524 -2.76995,3.78813 -2.39402,-0.55085 0.51269,-5.91752 3.5951,-6.63763 5.36404,-7.33281 4.41854,-1.73646 -0.41136,2.43484 -0.24742,4.15142 0.43688,4.57433 0.60243,0.37233 0.97168,0.25978 0.82056,-0.2501 -0.30167,-1.01779 7.86443,-8.2216 9.31983,-8.2216 0.49797,0 0.90539,0.87344 0.90539,1.94098 0,2.84184 1.74723,3.45466 4.57222,1.60366 1.36635,-0.89527 2.99109,-1.31453 3.61053,-0.93169 0.67233,0.41552 0.84929,0.24791 0.43906,-0.41585 -0.88282,-1.42844 4.22065,-3.978 6.87819,-3.43616 3.02855,0.61749 4.5,3.17053 4.5,7.80774 0,2.50132 0.60378,4.68752 1.5,5.43132 1.72603,1.43248 1.97435,3 0.47525,3 -0.56361,0 -1.46361,-1.15429 -2,-2.5651 z m -32.42714,-6.42042 c 0.0473,-3.90931 -0.2744,-3.86658 -2.68137,0.3562 -0.76851,1.34828 -0.75916,1.68087 0.0335,1.19098 0.62006,-0.38322 1.09977,3.4e-4 1.09977,0.87932 0,0.85746 0.3375,1.55759 0.75,1.55585 0.4125,-0.002 0.77165,-1.7938 0.79811,-3.98235 z m 6.57945,-0.76448 c 1.24387,-1.58606 1.2085,-1.62143 -0.37756,-0.37756 -1.66575,1.30637 -2.19548,2.12756 -1.37244,2.12756 0.20765,0 0.99515,-0.7875 1.75,-1.75 z m 128.7746,-48.5 c -0.0538,-0.6875 -0.16632,-4.13962 -0.25,-7.67137 -0.14478,-6.10984 -0.2859,-6.45746 -2.90883,-7.1653 -1.51617,-0.40916 -2.53326,-0.38245 -2.2602,0.0594 0.73287,1.18581 -5.70161,1.93502 -7.6901,0.89542 -0.93883,-0.49084 -2.00845,-2.4995 -2.37694,-4.46371 -0.71717,-3.82286 -0.77241,-3.8323 -7.25863,-1.2402 -3.18121,1.27132 -3.44912,1.20226 -5.55072,-1.43071 l -2.20819,-2.7665 -4.18645,3.58344 c -2.39872,2.05322 -4.68493,3.27537 -5.35378,2.862 -0.73036,-0.45139 -0.8986,-0.28664 -0.44945,0.44011 0.4104,0.66404 -0.0185,1.44414 -1.00125,1.82127 C 372.36758,194.45666 369,190.80654 369,187.81249 c 0,-1.69083 -0.34701,-1.55354 -2.47975,0.98108 -2.78556,3.31044 -8.22682,5.97978 -9.37839,4.6008 C 356.73108,192.90246 356.67725,187.1 357.02225,180.5 l 0.62727,-12 0.17524,10.71482 c 0.1573,9.6178 0.38147,10.82518 2.18951,11.79282 1.10786,0.5929 1.9086,0.72124 1.77944,0.28518 -0.3727,-1.25826 5.55226,-6.92389 7.16886,-6.85508 0.80442,0.0342 1.88201,1.52476 2.39466,3.31226 0.51265,1.7875 1.43722,3.25 2.05461,3.25 0.61738,0 3.43739,-2.025 6.26669,-4.5 2.82929,-2.475 5.62251,-4.5 6.20714,-4.5 0.58463,0 1.76108,1.35 2.61433,3 0.85325,1.65 1.75277,3 1.99893,3 0.24616,0 2.43685,-0.96647 4.8682,-2.14771 5.58037,-2.71115 7.63287,-2.02098 7.63287,2.56664 0,4.59953 2.02838,5.68189 7.26621,3.87731 3.3316,-1.14783 4.28354,-1.16532 5.3068,-0.0975 1.35818,1.41734 2.44828,17.80125 1.1844,17.80125 -0.41657,0 -0.80144,-0.5625 -0.85525,-1.25 z M 374,192.60699 c 0,-0.21616 -0.69837,-0.661 -1.55194,-0.98855 -0.88992,-0.34149 -1.29132,-0.17385 -0.94098,0.39301 0.58726,0.95021 2.49292,1.40545 2.49292,0.59554 z M 402,188 c 0,-2.47882 -0.39089,-2.97985 -2.25,-2.884 -1.69317,0.0873 -1.81691,0.22918 -0.5,0.57333 1.06026,0.27707 1.75,1.41376 1.75,2.88399 0,1.33468 0.225,2.42668 0.5,2.42668 0.275,0 0.5,-1.35 0.5,-3 z m -20.87244,-0.75 c 1.24387,-1.58606 1.2085,-1.62143 -0.37756,-0.37756 -1.66575,1.30637 -2.19548,2.12756 -1.37244,2.12756 0.20765,0 0.99515,-0.7875 1.75,-1.75 z m -12.84284,-4.60417 C 368.82958,181.01127 371,180.69487 371,182.25 c 0,0.77917 -0.6875,1.41667 -1.52778,1.41667 -0.84028,0 -1.37465,-0.45938 -1.1875,-1.02084 z M 501,180.15321 c -3.025,-0.35926 -5.45704,-1.03285 -5.40453,-1.49686 0.0525,-0.46401 1.58163,-3.2958 3.39804,-6.29286 3.18819,-5.2605 6.96122,-14.95147 13.1842,-33.86349 1.6288,-4.95 3.27671,-9.32408 3.66204,-9.72017 0.38532,-0.39609 6.76651,4.29088 14.18042,10.41551 17.05926,14.09265 38.77948,35.40501 37.4438,36.74069 -2.40404,2.40404 -54.10778,5.68468 -66.46397,4.21718 z m 49.95339,-2.72802 c 8.49936,-0.82425 15.63249,-1.67774 15.85141,-1.89665 0.21891,-0.21892 -4.26011,-5.0564 -9.95339,-10.74997 -10.95377,-10.95433 -39.5603,-35.40301 -40.41903,-34.54429 -0.27916,0.27917 -1.56778,3.82816 -2.8636,7.88665 -5.16973,16.19158 -10.69579,30.4019 -13.55577,34.85879 -1.65715,2.58246 -3.01301,4.96996 -3.01301,5.30557 0,1.96144 29.74869,1.4872 53.95339,-0.8601 z M 519.29481,154.82507 C 515.87361,153.90815 513,150.69089 513,147.77749 513,146.79987 513.64002,146 514.42226,146 c 1.6718,0 9.75235,5.98831 10.2915,7.62679 0.54649,1.66083 -1.7765,2.17451 -5.41895,1.19828 z m 3.57065,-2.48719 c -0.67742,-0.81623 -2.94927,-2.36031 -5.04856,-3.43129 -2.94135,-1.50057 -3.8169,-1.63405 -3.8169,-0.5819 0,1.72762 2.80465,4.29221 6.02056,5.50525 3.10345,1.17061 4.46296,0.45759 2.8449,-1.49206 z M 357.19495,165.5 c 0.0204,-1.65 0.2445,-2.20394 0.49804,-1.23097 0.25354,0.97297 0.23687,2.32297 -0.0371,3 -0.27393,0.67703 -0.48137,-0.11903 -0.46099,-1.76903 z m 78.81164,-8.25 c 0.004,-0.4125 0.90066,-2.1 1.99341,-3.75 1.09275,-1.65 1.98979,-3.31286 1.99341,-3.69525 0.004,-0.38239 -3.13962,-0.66565 -6.98498,-0.62947 -4.94982,0.0466 -7.73962,-0.42435 -9.55314,-1.61262 l -2.56158,-1.67841 2.55314,-4.56808 C 424.85108,138.80373 426,136.57977 426,136.37405 426,136.16832 423.075,136 419.5,136 c -4.85433,0 -6.5,-0.34877 -6.5,-1.37756 0,-1.80521 2.45497,-3.81258 3.50233,-2.86376 0.45008,0.40772 0.45165,0.10929 0.003,-0.66319 -0.58451,-1.00751 -0.44483,-1.17583 0.49418,-0.59549 0.92131,0.5694 1.0694,0.42131 0.5,-0.5 -0.51694,-0.83643 -0.41716,-1.06683 0.27639,-0.6382 0.59698,0.36895 1.35353,0.23701 1.68122,-0.29321 0.60918,-0.98567 -2.66728,-0.67507 -4.4407,0.42096 -0.53657,0.33162 -1.83762,0.14158 -2.89124,-0.42229 -1.44288,-0.77221 -2.23147,-0.6447 -3.1953,0.51664 -1.11706,1.34598 -0.90807,1.46233 1.645,0.91586 2.43034,-0.5202 2.62401,-0.43521 1.14587,0.5029 -0.97831,0.6209 -2.75598,0.9868 -3.95038,0.81312 -1.92705,-0.28022 -1.59247,-0.86322 2.97087,-5.17664 C 417.01132,120.71291 434.08688,107 435.19674,107 c 0.44179,0 0.80326,0.20917 0.80326,0.46481 0,0.84765 -20.25574,17.44899 -21.03514,17.24014 -0.69112,-0.18519 -0.96486,0.32986 -0.96486,1.81537 0,0.28618 1.78207,-0.38882 3.96016,-1.5 7.06323,-3.60339 7.99557,-2.19084 2.53984,3.848 -1.925,2.13074 -3.5,4.21502 -3.5,4.63171 0,0.4167 2.1375,0.48129 4.75,0.14353 7.3528,-0.9506 8.32742,0.28679 5,6.34806 -1.5125,2.75518 -2.75,5.18604 -2.75,5.40191 0,1.06688 4.21968,1.91036 10.83877,2.16658 4.03632,0.15625 7.5672,0.51252 7.84639,0.79172 0.27919,0.27919 -0.90737,2.56424 -2.63681,5.07789 -3.04682,4.4284 -4.05548,5.38179 -4.04176,3.82028 z m -10.27742,-22.85417 c -0.33229,-0.33229 -1.1948,-0.36781 -1.91667,-0.0789 -0.79773,0.31922 -0.56078,0.55618 0.60417,0.60416 1.05416,0.0434 1.64479,-0.19293 1.3125,-0.52522 z m -3.60161,-9.05955 c 1.24448,-1.5086 1.16266,-1.55194 -0.87756,-0.46482 -2.32696,1.23991 -2.89993,2.12854 -1.37244,2.12854 0.48265,0 1.49515,-0.74867 2.25,-1.66372 z M 481.5,141.30202 c -1.65,-0.21341 -3.675,-0.6651 -4.5,-1.00377 -0.825,-0.33867 -1.83028,-0.54673 -2.23396,-0.46236 -0.40368,0.0844 -3.15847,-0.99454 -6.12176,-2.39759 -4.25391,-2.01413 -5.86251,-3.47397 -7.64337,-6.93652 -1.24055,-2.41204 -2.87325,-4.62255 -3.62823,-4.91226 -0.93045,-0.35705 -1.32441,-2.06715 -1.22285,-5.30814 0.0929,-2.9655 0.30867,-3.73054 0.56806,-2.01443 0.23002,1.52183 0.84078,2.50581 1.35723,2.18662 0.51645,-0.31918 1.2405,0.23569 1.609,1.23305 0.3685,0.99736 0.93213,2.03838 1.25251,2.31338 0.32038,0.275 1.47821,2.22043 2.57294,4.32318 2.38517,4.58139 3.17461,5.30847 6.73369,6.20174 2.64667,0.66427 2.61078,0.56442 -1.14796,-3.19432 -2.16924,-2.16925 -4.43221,-5.72305 -5.13237,-8.05999 -1.08737,-3.62932 -1.02852,-4.52156 0.4467,-6.77303 0.93447,-1.42618 3.13709,-3.4699 4.8947,-4.54158 3.32696,-2.02857 2.93635,-2.23633 -3.80433,-2.02347 l -4,0.12631 4.26269,-1.98621 c 2.35497,-1.0973 5.81774,-1.86375 7.73733,-1.71257 1.91105,0.1505 4.02774,-0.0682 4.70377,-0.48601 0.67602,-0.4178 1.80673,-0.28029 2.51267,0.3056 0.70595,0.58588 1.28354,0.73004 1.28354,0.32035 0,-0.40969 0.675,-0.18469 1.5,0.5 0.825,0.68469 1.5,0.90969 1.5,0.5 0,-0.40969 0.5625,-0.29175 1.25,0.26208 0.6875,0.55384 2.7125,1.31969 4.5,1.7019 1.8153,0.38816 3.25,1.32203 3.25,2.11548 0,0.78129 0.39752,1.42054 0.88337,1.42054 0.85797,0 2.44261,3.7394 2.22478,5.25 -0.0595,0.4125 0.34185,0.75 0.89185,0.75 0.55,0 1,0.62686 1,1.39301 0,0.76616 0.70352,1.66298 1.56338,1.99294 0.85986,0.32996 1.25221,1.10341 0.87189,1.71879 -0.38033,0.61538 -0.0713,1.50228 0.68661,1.9709 1.13741,0.70321 1.07246,1.15778 -0.37188,2.60248 -1.56916,1.56956 -1.75,1.58191 -1.75,0.1195 0,-0.89702 -0.3375,-1.78095 -0.75,-1.96429 C 498.8375,126.65 497.68056,124.925 496.67903,123 c -1.30968,-2.51727 -1.37988,-2.95497 -0.25,-1.55887 0.86403,1.06762 1.57097,1.44159 1.57097,0.83104 0,-1.43277 -3.27048,-7.67016 -4.25,-8.1055 -0.4125,-0.18334 -0.75,-0.97084 -0.75,-1.75 C 493,111.6375 492.57929,111 492.0651,111 c -0.5142,0 -2.2017,-0.52267 -3.75,-1.16148 -1.54831,-0.63882 -3.20495,-1.07137 -3.68144,-0.96122 -0.47649,0.11014 -1.91552,-0.48719 -3.19785,-1.3274 -1.28234,-0.84022 -2.57426,-1.1349 -2.87095,-0.65484 -0.5567,0.90076 2.90233,2.56149 7.63784,3.66704 1.48649,0.34704 4.06991,1.93755 5.74093,3.53447 2.81495,2.69011 3.01639,3.34391 2.74112,8.89644 -0.24937,5.03003 -0.76344,6.47968 -3.19941,9.02229 -1.59626,1.66613 -4.59374,3.53611 -6.66107,4.1555 -2.06733,0.61938 -3.52196,1.50934 -3.23251,1.97768 0.28945,0.46833 -0.51278,0.84463 -1.78274,0.83621 -1.8318,-0.0121 -2.00161,-0.20968 -0.82163,-0.95574 1.16897,-0.73909 1.0084,-0.90434 -0.75,-0.77188 -2.91387,0.2195 -2.8719,1.54557 0.0723,2.28452 2.03413,0.51054 4.65592,-0.14359 12.19031,-3.04143 l 2,-0.76923 -2,1.72056 c -1.28287,1.10362 -0.65539,0.94333 1.75,-0.44703 2.0625,-1.19217 3.75,-1.70743 3.75,-1.14504 0,1.23034 -1.49243,2.24721 -5.5,3.74742 -5.23381,1.95926 -5.93585,2.09149 -9,1.69518 z m -7.25,-2.9643 c -0.6875,-0.27741 -1.25,-0.94344 -1.25,-1.48007 0,-0.53663 0.45,-0.69757 1,-0.35765 0.55,0.33992 1,0.10192 1,-0.52888 0,-0.76913 1.23523,-0.94223 3.75,-0.52553 5.82605,0.9654 12.33096,-2.73352 14.172,-8.0587 1.30176,-3.76531 1.25811,-4.39949 -0.51626,-7.5 C 490.18875,116.01298 481.34167,111 476.72181,111 c -4.0092,0 -9.2698,2.6612 -11.25757,5.69492 -1.53819,2.34757 -1.53679,2.82658 0.0201,6.90326 0.96231,2.51977 3.39056,5.85082 5.7163,7.84156 l 4.04331,3.46093 -2.65389,0.66608 c -2.46763,0.61934 -2.52883,0.76096 -0.87198,2.01787 0.98006,0.74347 2.23192,1.33056 2.78192,1.30463 0.55,-0.0259 0.4375,-0.27412 -0.25,-0.55153 z M 470.2,123.8 c -1.66613,-1.66613 -1.50397,-7.30283 0.25201,-8.76017 3.89103,-3.22927 8.06402,2.99747 5.07057,7.56606 -1.72715,2.63596 -3.48611,3.03058 -5.32258,1.19411 z m 5.31733,-2.85461 C 476.1263,119.02671 474.53298,115 473.16482,115 471.69853,115 470,117.41511 470,119.5 c 0,4.32264 4.2507,5.43621 5.51733,1.44539 z m -8.0762,13.58641 C 464.90154,132.61095 463.41617,132.5916 465,134.5 c 0.68469,0.825 1.9508,1.5 2.81357,1.5 1.2558,0 1.18151,-0.29285 -0.37244,-1.4682 z M 463,130 c -0.5887,-1.1 -1.29537,-2 -1.57037,-2 -0.275,0 -0.0183,0.9 0.57037,2 0.5887,1.1 1.29537,2 1.57037,2 0.275,0 0.0183,-0.9 -0.57037,-2 z m -4,-6.5 c 0,-0.825 -0.45,-1.5 -1,-1.5 -0.55,0 -1,0.675 -1,1.5 0,0.825 0.45,1.5 1,1.5 0.55,0 1,-0.675 1,-1.5 z m 34.41025,-5.75 c -1.32281,-2.33619 -4.75487,-5.75 -5.78073,-5.75 -0.56202,0 0.5047,1.575 2.37048,3.5 3.54755,3.66014 4.60301,4.35651 3.41025,2.25 z M 477.3956,108.3 c -0.97782,-0.715 -2.06685,-1.3 -2.42006,-1.3 -0.35322,0 -0.64221,0.585 -0.64221,1.3 0,0.715 1.08903,1.3 2.42006,1.3 2.23075,0 2.28099,-0.1017 0.64221,-1.3 z M 473,108.60699 c 0,-0.21616 -0.69837,-0.661 -1.55194,-0.98855 -0.88992,-0.34149 -1.29132,-0.17385 -0.94098,0.39301 0.58726,0.95021 2.49292,1.40545 2.49292,0.59554 z"
       id="path1" />
  </g>
</svg>
